{
copyright = "Copyright (c) 2024 by Vladimir Nikolic. All rights reserved.";
designer = "Vladimir Nikolic";
designerURL = "https://www.coroflot.com/vladimirnikolic";
familyName = Password;
customParameters = (
{
name = glyphOrder;
value = (
.notdef,
NULL,
CR,
space,
E,
F,
N,
R,
G,
H,
I,
J,
K,
L,
O,
M,
Y,
Q,
P,
S,
T,
U,
V,
W,
X,
Z,
a,
b,
c,
e,
f,
g,
i,
j,
k,
l,
m,
n,
o,
p,
q,
r,
s,
t,
u,
v,
w,
x,
y,
z,
zero,
one,
two,
three,
four,
five,
six,
seven,
eight,
nine,
exclam,
question,
colon,
semicolon,
period,
comma,
D,
B,
C,
A,
at,
ordfeminine,
quotedbl,
quotesingle,
bar,
dollar,
slash,
Oslash,
oslash,
cent,
hyphen,
macron,
h,
sterling,
exclamdown,
minus,
bullet,
equal,
yen,
plus,
bracketleft,
bracketright,
backslash,
cedilla,
Ccedilla,
ccedilla,
underscore,
questiondown,
percent,
AE,
ae,
germandbls,
section,
ordmasculine,
ogonek,
aogonek,
Aogonek,
paragraph,
dieresis,
circumflex,
acute,
aacute,
iacute,
Iacute,
uacute,
Uacute,
eacute,
Eacute,
acircumflex,
Acircumflex,
ecircumflex,
Aacute,
grave,
agrave,
Agrave,
egrave,
Egrave,
cacute,
Cacute,
ccircumflex,
Ccircumflex,
idieresis,
Idieresis,
adieresis,
Adieresis,
udieresis,
Udieresis,
ucircumflex,
Ucircumflex,
ugrave,
Ugrave,
odieresis,
Odieresis,
ograve,
Ograve,
oacute,
Oacute,
ocircumflex,
Ocircumflex,
Ecircumflex,
hcircumflex,
Hcircumflex,
dotaccent,
gdotaccent,
Gdotaccent,
zdotaccent,
Zdotaccent,
nacute,
Nacute,
edotaccent,
Edotaccent,
gcircumflex,
Gcircumflex,
ydieresis,
edieresis,
Edieresis,
igrave,
Igrave,
icircumflex,
Icircumflex,
zacute,
Zacute,
Ydieresis,
ycircumflex,
Ycircumflex,
wcircumflex,
Wcircumflex,
uogonek,
Uogonek,
hungarumlaut,
uhungarumlaut,
Uhungarumlaut,
ohungarumlaut,
Ohungarumlaut,
oe,
OE,
racute,
Racute,
caron,
ncaron,
Ncaron,
d,
dcroat,
Dcroat,
eth,
Eth,
yacute,
Yacute,
ecaron,
Ecaron,
circumflex.case,
eogonek,
Eogonek,
breve,
jcircumflex,
Jcircumflex,
ij,
IJ,
iogonek,
Iogonek,
ccaron,
Ccaron,
gbreve,
Gbreve,
ebreve,
Ebreve,
multiply,
scaron,
Scaron,
obreve,
Obreve,
scedilla,
Scedilla,

glyphs = (
{
glyphname = E;
layers = (
{
layerId = "70DCFFAA-56DE-41D2-8F07-83204E6B1F0A";
paths = (
{
nodes = (
"423 149 LINE",
"423 0 LINE",
"238 0 LINE SMOOTH",
"172 0 OFFCURVE",
"66 74 OFFCURVE",
"43 136 QCURVE SMOOTH",
"37 153 OFFCURVE",
"31 216 OFFCURVE",
"30 252 QCURVE",
"30 387 LINE SMOOTH",
"30 417 OFFCURVE",
"60 417 QCURVE SMOOTH",
"89 417 OFFCURVE",
"89 446 QCURVE SMOOTH",
"89 506 LINE SMOOTH",
"89 536 OFFCURVE",
"60 536 QCURVE SMOOTH",
"38 536 OFFCURVE",
"46 556 QCURVE SMOOTH",
"70 615 OFFCURVE",
"175 684 OFFCURVE",
"238 684 QCURVE SMOOTH",
"423 684 LINE",
"423 565 LINE",
"423 536 LINE",
"238 536 LINE SMOOTH",
"214 536 OFFCURVE",
"188 516 OFFCURVE",
"181 493 QCURVE SMOOTH",
"175 473 OFFCURVE",
"179 436 OFFCURVE",
"179 417 QCURVE",
"387 417 LINE",
"387 387 LINE",
"387 268 LINE",
"179 268 LINE",
"179 249 OFFCURVE",
"175 212 OFFCURVE",
"181 192 QCURVE SMOOTH",
"188 169 OFFCURVE",
"214 149 OFFCURVE",
"238 149 QCURVE SMOOTH"
);
}
);
width = 457;
}
);
unicode = 0045;
},
{
glyphname = F;
layers = (
{
layerId = "70DCFFAA-56DE-41D2-8F07-83204E6B1F0A";
paths = (
{
nodes = (
"406 684 LINE",
"406 535 LINE",
"245 535 LINE SMOOTH",
"220 535 OFFCURVE",
"194 515 OFFCURVE",
"187 492 QCURVE SMOOTH",
"182 473 OFFCURVE",
"185 436 OFFCURVE",
"185 416 QCURVE",
"374 416 LINE",
"374 387 LINE",
"374 268 LINE",
"185 268 LINE",
"185 208 LINE",
"185 0 LINE",
"36 0 LINE",
"36 208 LINE",
"36 387 LINE SMOOTH",
"36 416 OFFCURVE",
"66 416 QCURVE SMOOTH",
"96 416 OFFCURVE",
"96 446 QCURVE SMOOTH",
"96 505 LINE SMOOTH",
"96 535 OFFCURVE",
"66 535 QCURVE SMOOTH",
"44 535 OFFCURVE",
"52 556 QCURVE",
"77 614 OFFCURVE",
"181 684 OFFCURVE",
"245 684 QCURVE SMOOTH"
);
}
);
width = 423;
}
);
unicode = 0046;
},
{
glyphname = N;
layers = (
{
layerId = "70DCFFAA-56DE-41D2-8F07-83204E6B1F0A";
paths = (
{
nodes = (
"451 208 LINE",
"451 0 LINE",
"302 0 LINE",
"302 284 LINE",
"302 427 LINE SMOOTH",
"302 444 OFFCURVE",
"306 479 OFFCURVE",
"299 496 QCURVE SMOOTH",
"291 518 OFFCURVE",
"266 535 OFFCURVE",
"243 535 QCURVE SMOOTH",
"220 535 OFFCURVE",
"195 518 OFFCURVE",
"187 496 QCURVE SMOOTH",
"180 479 OFFCURVE",
"184 444 OFFCURVE",
"184 427 QCURVE SMOOTH",
"184 284 LINE",
"184 0 LINE",
"35 0 LINE",
"35 386 LINE SMOOTH",
"35 416 OFFCURVE",
"65 416 QCURVE SMOOTH",
"95 416 OFFCURVE",
"95 446 QCURVE SMOOTH",
"95 505 LINE SMOOTH",
"95 535 OFFCURVE",
"65 535 QCURVE SMOOTH",
"54 535 OFFCURVE",
"46 546 OFFCURVE",
"51 556 QCURVE",
"73 609 OFFCURVE",
"158 672 OFFCURVE",
"258 689 OFFCURVE",
"360 657 OFFCURVE",
"398 614 QCURVE SMOOTH",
"418 591 OFFCURVE",
"440 545 OFFCURVE",
"450 496 OFFCURVE",
"451 445 OFFCURVE",
"451 418 QCURVE SMOOTH",
"451 238 LINE"
);
}
);
width = 485;
}
);
unicode = 004E;
},
{
glyphname = R;
layers = (
{
layerId = "70DCFFAA-56DE-41D2-8F07-83204E6B1F0A";
paths = (
{
nodes = (
"185 208 LINE",
"185 149 LINE",
"185 0 LINE",
"36 0 LINE",
"36 208 LINE",
"36 387 LINE SMOOTH",
"36 416 OFFCURVE",
"66 416 QCURVE SMOOTH",
"96 416 OFFCURVE",
"96 446 QCURVE SMOOTH",
"96 505 LINE SMOOTH",
"96 535 OFFCURVE",
"66 535 QCURVE SMOOTH",
"36 535 OFFCURVE",
"36 565 QCURVE SMOOTH",
"36 684 LINE",
"245 684 LINE SMOOTH",
"288 684 OFFCURVE",
"363 651 OFFCURVE",
"419 595 OFFCURVE",
"452 519 OFFCURVE",
"452 476 QCURVE SMOOTH",
"452 436 OFFCURVE",
"430 373 OFFCURVE",
"404 342 QCURVE",
"430 311 OFFCURVE",
"452 248 OFFCURVE",
"452 208 QCURVE SMOOTH",
"452 0 LINE",
"423 0 LINE",
"304 0 LINE",
"304 208 LINE SMOOTH",
"304 233 OFFCURVE",
"269 268 OFFCURVE",
"245 268 QCURVE SMOOTH",
"185 268 LINE"
);
},
{
nodes = (
"245 416 LINE SMOOTH",
"269 416 OFFCURVE",
"304 451 OFFCURVE",
"304 476 QCURVE SMOOTH",
"304 501 OFFCURVE",
"269 535 OFFCURVE",
"245 535 QCURVE SMOOTH",
"185 535 LINE",
"185 476 LINE",
"185 416 LINE"
);
}
);
width = 482;
}
);
unicode = 0052;
},
{
glyphname = G;
layers = (
{
layerId = "70DCFFAA-56DE-41D2-8F07-83204E6B1F0A";
paths = (
{
nodes = (
"448 386 LINE",
"448 237 LINE SMOOTH",
"448 191 OFFCURVE",
"425 108 OFFCURVE",
"377 44 OFFCURVE",
"304 3 OFFCURVE",
"254 0 QCURVE SMOOTH",
"209 -3 OFFCURVE",
"128 26 OFFCURVE",
"67 83 OFFCURVE",
"31 162 OFFCURVE",
"31 207 QCURVE SMOOTH",
"31 386 LINE SMOOTH",
"31 415 OFFCURVE",
"61 415 QCURVE SMOOTH",
"91 415 OFFCURVE",
"91 445 QCURVE SMOOTH",
"91 505 LINE SMOOTH",
"91 534 OFFCURVE",
"61 534 QCURVE SMOOTH",
"39 534 OFFCURVE",
"47 555 QCURVE SMOOTH",
"62 591 OFFCURVE",
"115 646 OFFCURVE",
"182 678 OFFCURVE",
"257 685 OFFCURVE",
"295 675 QCURVE SMOOTH",
"337 663 OFFCURVE",
"396 619 OFFCURVE",
"432 558 OFFCURVE",
"448 485 OFFCURVE",
"448 445 QCURVE",
"299 445 LINE",
"299 462 OFFCURVE",
"298 494 OFFCURVE",
"287 518 OFFCURVE",
"264 533 OFFCURVE",
"242 534 QCURVE SMOOTH",
"224 535 OFFCURVE",
"200 523 OFFCURVE",
"190 508 QCURVE SMOOTH",
"180 494 OFFCURVE",
"180 465 OFFCURVE",
"180 449 QCURVE SMOOTH",
"180 207 LINE SMOOTH",
"180 192 OFFCURVE",
"193 168 OFFCURVE",
"214 152 OFFCURVE",
"240 146 OFFCURVE",
"254 150 QCURVE",
"273 154 OFFCURVE",
"291 172 OFFCURVE",
"299 195 OFFCURVE",
"299 222 OFFCURVE",
"299 237 QCURVE",
"239 237 LINE",
"239 386 LINE"
);
}
);
width = 477;
}
);
unicode = 0047;
},
{
glyphname = H;
layers = (
{
layerId = "70DCFFAA-56DE-41D2-8F07-83204E6B1F0A";
paths = (
{
nodes = (
"93 238 LINE SMOOTH",
"93 268 OFFCURVE",
"64 268 QCURVE SMOOTH",
"34 268 OFFCURVE",
"34 297 QCURVE SMOOTH",
"34 684 LINE",
"182 684 LINE",
"182 326 LINE",
"301 326 LINE",
"301 684 LINE",
"450 684 LINE",
"450 0 LINE",
"301 0 LINE",
"301 177 LINE",
"182 177 LINE",
"182 0 LINE",
"34 0 LINE",
"34 119 LINE SMOOTH",
"34 149 OFFCURVE",
"64 149 QCURVE SMOOTH",
"80 149 OFFCURVE",
"93 162 OFFCURVE",
"93 179 QCURVE SMOOTH"
);
}
);
width = 485;
}
);
unicode = 0048;
},
{
glyphname = I;
layers = (
{
layerId = "70DCFFAA-56DE-41D2-8F07-83204E6B1F0A";
paths = (
{
nodes = (
"96 505 LINE SMOOTH",
"96 535 OFFCURVE",
"66 535 QCURVE SMOOTH",
"37 535 OFFCURVE",
"37 565 QCURVE SMOOTH",
"37 684 LINE",
"185 684 LINE",
"185 416 LINE",
"185 267 LINE",
"185 0 LINE",
"37 0 LINE",
"37 387 LINE SMOOTH",
"37 416 OFFCURVE",
"66 416 QCURVE SMOOTH",
"96 416 OFFCURVE",
"96 446 QCURVE SMOOTH"
);
}
);
width = 224;
}
);
unicode = 0049;
},
{
glyphname = J;
layers = (
{
layerId = "70DCFFAA-56DE-41D2-8F07-83204E6B1F0A";
paths = (
{
nodes = (
"347 506 LINE SMOOTH",
"347 535 OFFCURVE",
"318 535 QCURVE SMOOTH",
"288 535 OFFCURVE",
"288 565 QCURVE SMOOTH",
"288 684 LINE",
"436 684 LINE",
"436 476 LINE",
"436 387 LINE",
"436 238 LINE SMOOTH",
"436 205 OFFCURVE",
"429 147 OFFCURVE",
"409 96 OFFCURVE",
"371 52 OFFCURVE",
"341 33 QCURVE SMOOTH",
"289 0 OFFCURVE",
"167 0 OFFCURVE",
"116 33 QCURVE SMOOTH",
"85 52 OFFCURVE",
"48 96 OFFCURVE",
"27 147 OFFCURVE",
"20 205 OFFCURVE",
"20 238 QCURVE",
"169 238 LINE",
"169 225 OFFCURVE",
"168 200 OFFCURVE",
"174 179 OFFCURVE",
"189 161 OFFCURVE",
"205 154 QCURVE SMOOTH",
"229 143 OFFCURVE",
"277 164 OFFCURVE",
"285 189 QCURVE SMOOTH",
"293 215 OFFCURVE",
"288 263 OFFCURVE",
"288 288 QCURVE SMOOTH",
"288 387 LINE SMOOTH",
"288 416 OFFCURVE",
"318 416 QCURVE SMOOTH",
"347 416 OFFCURVE",
"347 446 QCURVE SMOOTH"
);
}
);
width = 470;
}
);
unicode = 004A;
},
{
glyphname = K;
layers = (
{
layerId = "70DCFFAA-56DE-41D2-8F07-83204E6B1F0A";
paths = (
{
nodes = (
"184 416 LINE",
"243 416 LINE SMOOTH",
"268 416 OFFCURVE",
"302 451 OFFCURVE",
"302 476 QCURVE SMOOTH",
"302 684 LINE",
"451 684 LINE",
"451 476 LINE SMOOTH",
"451 436 OFFCURVE",
"428 373 OFFCURVE",
"402 342 QCURVE",
"428 311 OFFCURVE",
"451 248 OFFCURVE",
"451 208 QCURVE SMOOTH",
"451 0 LINE",
"421 0 LINE",
"302 0 LINE",
"302 208 LINE SMOOTH",
"302 233 OFFCURVE",
"268 267 OFFCURVE",
"243 267 QCURVE SMOOTH",
"184 267 LINE",
"184 208 LINE",
"184 149 LINE",
"184 0 LINE",
"35 0 LINE",
"35 208 LINE",
"35 387 LINE SMOOTH",
"35 416 OFFCURVE",
"65 416 QCURVE SMOOTH",
"94 416 OFFCURVE",
"94 446 QCURVE SMOOTH",
"94 506 LINE SMOOTH",
"94 535 OFFCURVE",
"65 535 QCURVE SMOOTH",
"35 535 OFFCURVE",
"35 565 QCURVE SMOOTH",
"35 684 LINE",
"184 684 LINE",
"184 535 LINE",
"184 476 LINE"
);
}
);
width = 490;
}
);
unicode = 004B;
},
{
glyphname = L;
layers = (
{
layerId = "70DCFFAA-56DE-41D2-8F07-83204E6B1F0A";
paths = (
{
nodes = (
"97 505 LINE SMOOTH",
"97 535 OFFCURVE",
"67 535 QCURVE SMOOTH",
"38 535 OFFCURVE",
"38 565 QCURVE SMOOTH",
"38 684 LINE",
"186 684 LINE",
"186 416 LINE",
"186 267 LINE",
"186 148 LINE",
"335 148 LINE",
"335 0 LINE",
"186 0 LINE",
"38 0 LINE",
"38 386 LINE SMOOTH",
"38 416 OFFCURVE",
"67 416 QCURVE SMOOTH",
"97 416 OFFCURVE",
"97 446 QCURVE SMOOTH"
);
}
);
width = 355;
}
);
unicode = 004C;
},
{
glyphname = O;
layers = (
{
layerId = "70DCFFAA-56DE-41D2-8F07-83204E6B1F0A";
paths = (
{
nodes = (
"400 615 OFFCURVE",
"440 530 OFFCURVE",
"452 436 OFFCURVE",
"447 342 OFFCURVE",
"447 302 QCURVE SMOOTH",
"447 254 OFFCURVE",
"445 164 OFFCURVE",
"423 118 QCURVE SMOOTH",
"399 70 OFFCURVE",
"334 18 OFFCURVE",
"281 6 QCURVE SMOOTH",
"232 -5 OFFCURVE",
"141 18 OFFCURVE",
"70 74 OFFCURVE",
"27 159 OFFCURVE",
"27 209 QCURVE SMOOTH",
"27 387 LINE SMOOTH",
"27 417 OFFCURVE",
"57 417 QCURVE SMOOTH",
"87 417 OFFCURVE",
"87 447 QCURVE SMOOTH",
"87 506 LINE SMOOTH",
"87 536 OFFCURVE",
"57 536 QCURVE SMOOTH",
"35 536 OFFCURVE",
"43 556 QCURVE SMOOTH",
"62 602 OFFCURVE",
"135 664 OFFCURVE",
"222 689 OFFCURVE",
"315 675 OFFCURVE",
"356 646 QCURVE SMOOTH"
);
},
{
nodes = (
"274 160 OFFCURVE",
"291 180 OFFCURVE",
"297 205 OFFCURVE",
"295 234 OFFCURVE",
"295 249 QCURVE SMOOTH",
"295 476 LINE SMOOTH",
"295 491 OFFCURVE",
"281 517 OFFCURVE",
"258 533 OFFCURVE",
"230 538 OFFCURVE",
"216 533 QCURVE SMOOTH",
"197 526 OFFCURVE",
"180 505 OFFCURVE",
"174 480 OFFCURVE",
"176 451 OFFCURVE",
"176 436 QCURVE SMOOTH",
"176 209 LINE SMOOTH",
"176 194 OFFCURVE",
"190 168 OFFCURVE",
"212 152 OFFCURVE",
"240 148 OFFCURVE",
"255 153 QCURVE SMOOTH"
);
}
);
width = 475;
}
);
unicode = 004F;
},
{
glyphname = M;
layers = (
{
layerId = "70DCFFAA-56DE-41D2-8F07-83204E6B1F0A";
paths = (
{
nodes = (
"450 208 LINE",
"450 0 LINE",
"301 0 LINE",
"301 285 LINE",
"301 427 LINE SMOOTH",
"301 444 OFFCURVE",
"304 479 OFFCURVE",
"297 497 QCURVE SMOOTH",
"289 518 OFFCURVE",
"265 535 OFFCURVE",
"242 535 QCURVE SMOOTH",
"219 535 OFFCURVE",
"194 518 OFFCURVE",
"186 497 QCURVE SMOOTH",
"179 479 OFFCURVE",
"182 444 OFFCURVE",
"182 427 QCURVE SMOOTH",
"182 285 LINE",
"182 0 LINE",
"34 0 LINE",
"34 387 LINE SMOOTH",
"34 416 OFFCURVE",
"63 416 QCURVE SMOOTH",
"93 416 OFFCURVE",
"93 446 QCURVE SMOOTH",
"93 505 LINE SMOOTH",
"93 535 OFFCURVE",
"63 535 QCURVE SMOOTH",
"40 535 OFFCURVE",
"50 556 QCURVE",
"70 604 OFFCURVE",
"146 666 OFFCURVE",
"238 689 OFFCURVE",
"335 669 OFFCURVE",
"375 635 QCURVE",
"413 667 OFFCURVE",
"504 688 OFFCURVE",
"593 671 OFFCURVE",
"669 617 OFFCURVE",
"693 574 QCURVE SMOOTH",
"705 551 OFFCURVE",
"715 507 OFFCURVE",
"718 462 OFFCURVE",
"717 416 OFFCURVE",
"717 393 QCURVE SMOOTH",
"717 238 LINE",
"717 208 LINE",
"717 0 LINE",
"569 0 LINE",
"569 285 LINE",
"569 427 LINE SMOOTH",
"569 444 OFFCURVE",
"572 479 OFFCURVE",
"565 497 QCURVE SMOOTH",
"557 518 OFFCURVE",
"532 535 OFFCURVE",
"509 535 QCURVE SMOOTH",
"486 535 OFFCURVE",
"461 518 OFFCURVE",
"453 497 QCURVE SMOOTH",
"447 479 OFFCURVE",
"450 444 OFFCURVE",
"450 427 QCURVE SMOOTH",
"450 238 LINE"
);
}
);
width = 752;
}
);
unicode = 004D;
},
{
glyphname = Y;
layers = (
{
layerId = "70DCFFAA-56DE-41D2-8F07-83204E6B1F0A";
paths = (
{
nodes = (
"441 684 LINE",
"441 622 OFFCURVE",
"443 501 OFFCURVE",
"441 439 QCURVE SMOOTH",
"440 407 OFFCURVE",
"420 349 OFFCURVE",
"385 300 OFFCURVE",
"337 262 OFFCURVE",
"307 251 QCURVE",
"307 0 LINE",
"159 0 LINE",
"159 251 LINE",
"132 262 OFFCURVE",
"89 290 OFFCURVE",
"71 313 QCURVE SMOOTH",
"53 335 OFFCURVE",
"43 360 QCURVE",
"41 363 OFFCURVE",
"35 377 OFFCURVE",
"31 392 OFFCURVE",
"32 406 OFFCURVE",
"37 410 QCURVE SMOOTH",
"44 416 OFFCURVE",
"55 416 QCURVE SMOOTH",
"84 416 OFFCURVE",
"84 446 QCURVE SMOOTH",
"84 505 LINE SMOOTH",
"84 535 OFFCURVE",
"55 535 QCURVE SMOOTH",
"25 535 OFFCURVE",
"25 565 QCURVE SMOOTH",
"25 684 LINE",
"174 684 LINE",
"174 518 LINE SMOOTH",
"174 499 OFFCURVE",
"170 453 OFFCURVE",
"178 413 OFFCURVE",
"203 386 OFFCURVE",
"233 386 QCURVE SMOOTH",
"263 386 OFFCURVE",
"288 413 OFFCURVE",
"296 453 OFFCURVE",
"292 499 OFFCURVE",
"292 518 QCURVE SMOOTH",
"292 684 LINE"
);
}
);
width = 469;
}
);
unicode = 0059;
},
{
glyphname = Q;
layers = (
{
layerId = "70DCFFAA-56DE-41D2-8F07-83204E6B1F0A";
paths = (
{
nodes = (
"447 472 OFFCURVE",
"443 405 OFFCURVE",
"443 370 QCURVE SMOOTH",
"443 234 LINE SMOOTH",
"443 161 OFFCURVE",
"382 46 OFFCURVE",
"310 18 QCURVE",
"310 -55 LINE",
"161 -55 LINE",
"161 18 LINE",
"131 30 OFFCURVE",
"81 69 OFFCURVE",
"46 120 OFFCURVE",
"27 180 OFFCURVE",
"27 212 QCURVE SMOOTH",
"27 391 LINE SMOOTH",
"27 420 OFFCURVE",
"57 420 QCURVE SMOOTH",
"87 420 OFFCURVE",
"87 450 QCURVE SMOOTH",
"87 510 LINE SMOOTH",
"87 539 OFFCURVE",
"57 539 QCURVE SMOOTH",
"35 539 OFFCURVE",
"43 560 QCURVE SMOOTH",
"63 609 OFFCURVE",
"135 669 OFFCURVE",
"219 692 OFFCURVE",
"307 680 OFFCURVE",
"382 636 OFFCURVE",
"435 559 OFFCURVE",
"442 506 QCURVE SMOOTH"
);
},
{
nodes = (
"274 163 OFFCURVE",
"291 183 OFFCURVE",
"297 209 OFFCURVE",
"295 238 OFFCURVE",
"295 253 QCURVE SMOOTH",
"295 480 LINE SMOOTH",
"295 495 OFFCURVE",
"281 521 OFFCURVE",
"258 537 OFFCURVE",
"230 541 OFFCURVE",
"215 536 QCURVE SMOOTH",
"196 529 OFFCURVE",
"179 509 OFFCURVE",
"174 483 OFFCURVE",
"176 455 OFFCURVE",
"176 440 QCURVE SMOOTH",
"176 212 LINE SMOOTH",
"176 197 OFFCURVE",
"190 172 OFFCURVE",
"212 156 OFFCURVE",
"240 151 OFFCURVE",
"255 156 QCURVE SMOOTH"
);
}
);
width = 471;
}
);
unicode = 0051;
},
{
glyphname = P;
layers = (
{
layerId = "70DCFFAA-56DE-41D2-8F07-83204E6B1F0A";
paths = (
{
nodes = (
"243 684 LINE SMOOTH",
"286 684 OFFCURVE",
"362 651 OFFCURVE",
"418 595 OFFCURVE",
"451 519 OFFCURVE",
"451 476 QCURVE SMOOTH",
"451 433 OFFCURVE",
"418 357 OFFCURVE",
"362 301 OFFCURVE",
"286 268 OFFCURVE",
"243 268 QCURVE SMOOTH",
"184 268 LINE",
"184 208 LINE",
"184 149 LINE",
"184 0 LINE",
"35 0 LINE",
"35 208 LINE",
"35 387 LINE SMOOTH",
"35 417 OFFCURVE",
"65 417 QCURVE SMOOTH",
"94 417 OFFCURVE",
"94 446 QCURVE SMOOTH",
"94 506 LINE SMOOTH",
"94 535 OFFCURVE",
"65 535 QCURVE SMOOTH",
"35 535 OFFCURVE",
"35 565 QCURVE SMOOTH",
"35 684 LINE"
);
},
{
nodes = (
"303 501 OFFCURVE",
"268 535 OFFCURVE",
"243 535 QCURVE SMOOTH",
"184 535 LINE",
"184 476 LINE",
"184 417 LINE",
"243 417 LINE SMOOTH",
"268 417 OFFCURVE",
"303 451 OFFCURVE",
"303 476 QCURVE SMOOTH"
);
}
);
width = 464;
}
);
unicode = 0050;
},
{
glyphname = S;
layers = (
{
layerId = "70DCFFAA-56DE-41D2-8F07-83204E6B1F0A";
paths = (
{
nodes = (
"194 0 OFFCURVE",
"118 33 OFFCURVE",
"62 90 OFFCURVE",
"29 166 OFFCURVE",
"29 209 QCURVE SMOOTH",
"29 238 LINE",
"178 238 LINE",
"178 209 LINE SMOOTH",
"178 184 OFFCURVE",
"213 149 OFFCURVE",
"237 149 QCURVE SMOOTH",
"262 149 OFFCURVE",
"297 184 OFFCURVE",
"297 209 QCURVE SMOOTH",
"297 233 OFFCURVE",
"262 268 OFFCURVE",
"237 268 QCURVE SMOOTH",
"206 268 OFFCURVE",
"147 286 OFFCURVE",
"97 319 OFFCURVE",
"58 366 OFFCURVE",
"46 395 QCURVE SMOOTH",
"40 408 OFFCURVE",
"53 414 QCURVE SMOOTH",
"59 417 OFFCURVE",
"66 417 QCURVE SMOOTH",
"95 417 OFFCURVE",
"95 446 QCURVE SMOOTH",
"95 506 LINE SMOOTH",
"95 536 OFFCURVE",
"66 536 QCURVE SMOOTH",
"57 536 OFFCURVE",
"53 538 QCURVE SMOOTH",
"41 545 OFFCURVE",
"46 558 QCURVE SMOOTH",
"61 594 OFFCURVE",
"114 648 OFFCURVE",
"180 680 OFFCURVE",
"255 687 OFFCURVE",
"293 677 QCURVE SMOOTH",
"335 665 OFFCURVE",
"394 620 OFFCURVE",
"430 559 OFFCURVE",
"446 486 OFFCURVE",
"446 446 QCURVE",
"297 446 LINE",
"297 476 LINE",
"297 477 LINE",
"297 483 OFFCURVE",
"296 486 QCURVE SMOOTH",
"294 501 OFFCURVE",
"279 525 OFFCURVE",
"259 531 QCURVE",
"258 532 OFFCURVE",
"258 532 QCURVE",
"256 533 OFFCURVE",
"254 533 OFFCURVE",
"252 534 QCURVE SMOOTH",
"238 537 OFFCURVE",
"226 534 QCURVE",
"219 534 OFFCURVE",
"215 531 QCURVE",
"202 526 OFFCURVE",
"196 518 QCURVE",
"195 518 LINE",
"193 516 LINE SMOOTH",
"188 511 OFFCURVE",
"185 505 QCURVE SMOOTH",
"183 501 OFFCURVE",
"183 500 QCURVE",
"181 495 OFFCURVE",
"179 487 OFFCURVE",
"178 483 QCURVE",
"176 458 OFFCURVE",
"208 417 OFFCURVE",
"237 417 QCURVE SMOOTH",
"280 417 OFFCURVE",
"356 384 OFFCURVE",
"413 327 OFFCURVE",
"446 252 OFFCURVE",
"446 209 QCURVE SMOOTH",
"446 166 OFFCURVE",
"413 90 OFFCURVE",
"356 33 OFFCURVE",
"280 0 OFFCURVE",
"237 0 QCURVE SMOOTH"
);
}
);
width = 480;
}
);
unicode = 0053;
},
{
glyphname = T;
layers = (
{
layerId = "70DCFFAA-56DE-41D2-8F07-83204E6B1F0A";
paths = (
{
nodes = (
"190 505 LINE SMOOTH",
"190 535 OFFCURVE",
"160 535 QCURVE SMOOTH",
"12 535 LINE",
"12 684 LINE",
"131 684 LINE",
"160 684 LINE",
"250 684 LINE",
"279 684 LINE",
"398 684 LINE",
"398 535 LINE",
"279 535 LINE",
"279 416 LINE",
"279 267 LINE",
"279 0 LINE",
"131 0 LINE",
"131 386 LINE SMOOTH",
"131 416 OFFCURVE",
"160 416 QCURVE SMOOTH",
"190 416 OFFCURVE",
"190 446 QCURVE SMOOTH"
);
}
);
width = 415;
}
);
unicode = 0054;
},
{
glyphname = U;
layers = (
{
layerId = "70DCFFAA-56DE-41D2-8F07-83204E6B1F0A";
paths = (
{
nodes = (
"88 506 LINE SMOOTH",
"88 536 OFFCURVE",
"59 536 QCURVE SMOOTH",
"29 536 OFFCURVE",
"29 566 QCURVE SMOOTH",
"29 685 LINE",
"178 685 LINE",
"178 400 LINE",
"178 258 LINE SMOOTH",
"178 240 OFFCURVE",
"174 206 OFFCURVE",
"181 188 QCURVE SMOOTH",
"189 167 OFFCURVE",
"214 149 OFFCURVE",
"237 149 QCURVE SMOOTH",
"260 149 OFFCURVE",
"285 167 OFFCURVE",
"293 188 QCURVE SMOOTH",
"300 206 OFFCURVE",
"296 240 OFFCURVE",
"296 258 QCURVE SMOOTH",
"296 400 LINE",
"296 685 LINE",
"445 685 LINE",
"445 358 LINE SMOOTH",
"445 320 OFFCURVE",
"449 239 OFFCURVE",
"440 158 OFFCURVE",
"409 83 OFFCURVE",
"373 52 QCURVE SMOOTH",
"341 23 OFFCURVE",
"262 -2 OFFCURVE",
"183 4 OFFCURVE",
"108 40 OFFCURVE",
"80 73 QCURVE SMOOTH",
"54 103 OFFCURVE",
"32 185 OFFCURVE",
"26 272 OFFCURVE",
"29 355 OFFCURVE",
"29 387 QCURVE SMOOTH",
"29 417 OFFCURVE",
"59 417 QCURVE SMOOTH",
"88 417 OFFCURVE",
"88 447 QCURVE SMOOTH"
);
}
);
width = 475;
}
);
unicode = 0055;
},
{
glyphname = V;
layers = (
{
layerId = "70DCFFAA-56DE-41D2-8F07-83204E6B1F0A";
paths = (
{
nodes = (
"89 505 LINE SMOOTH",
"89 535 OFFCURVE",
"60 535 QCURVE SMOOTH",
"30 535 OFFCURVE",
"30 565 QCURVE SMOOTH",
"30 684 LINE",
"179 684 LINE",
"179 476 LINE",
"179 327 LINE",
"179 307 LINE",
"179 279 LINE",
"181 267 OFFCURVE",
"184 243 OFFCURVE",
"188 231 QCURVE SMOOTH",
"190 224 OFFCURVE",
"196 211 OFFCURVE",
"199 204 QCURVE SMOOTH",
"205 191 OFFCURVE",
"213 179 QCURVE SMOOTH",
"219 169 OFFCURVE",
"231 151 OFFCURVE",
"238 143 QCURVE",
"245 151 OFFCURVE",
"257 169 OFFCURVE",
"263 179 QCURVE SMOOTH",
"270 191 OFFCURVE",
"277 204 QCURVE SMOOTH",
"280 211 OFFCURVE",
"286 224 OFFCURVE",
"288 231 QCURVE SMOOTH",
"292 243 OFFCURVE",
"295 267 OFFCURVE",
"297 279 QCURVE",
"297 307 LINE",
"297 327 LINE",
"297 476 LINE",
"297 684 LINE",
"446 684 LINE",
"446 476 LINE",
"446 327 LINE SMOOTH",
"446 294 OFFCURVE",
"442 225 OFFCURVE",
"417 147 OFFCURVE",
"362 55 OFFCURVE",
"312 0 QCURVE",
"164 0 LINE",
"114 55 OFFCURVE",
"59 147 OFFCURVE",
"34 225 OFFCURVE",
"30 294 OFFCURVE",
"30 327 QCURVE SMOOTH",
"30 386 LINE SMOOTH",
"30 416 OFFCURVE",
"60 416 QCURVE SMOOTH",
"89 416 OFFCURVE",
"89 446 QCURVE SMOOTH"
);
}
);
width = 475;
}
);
unicode = 0056;
},
{
glyphname = W;
layers = (
{
layerId = "70DCFFAA-56DE-41D2-8F07-83204E6B1F0A";
paths = (
{
nodes = (
"91 506 LINE SMOOTH",
"91 535 OFFCURVE",
"61 535 QCURVE SMOOTH",
"31 535 OFFCURVE",
"31 565 QCURVE SMOOTH",
"31 684 LINE",
"180 684 LINE",
"180 476 LINE",
"180 327 LINE",
"180 307 LINE SMOOTH",
"180 300 OFFCURVE",
"180 286 OFFCURVE",
"181 279 QCURVE",
"182 255 OFFCURVE",
"190 231 QCURVE SMOOTH",
"192 224 OFFCURVE",
"197 211 OFFCURVE",
"200 204 QCURVE",
"204 198 OFFCURVE",
"210 185 OFFCURVE",
"214 179 QCURVE SMOOTH",
"227 159 OFFCURVE",
"239 143 QCURVE",
"253 160 OFFCURVE",
"264 179 QCURVE SMOOTH",
"271 191 OFFCURVE",
"278 204 QCURVE SMOOTH",
"282 211 OFFCURVE",
"287 224 OFFCURVE",
"289 231 QCURVE SMOOTH",
"296 255 OFFCURVE",
"298 279 QCURVE",
"298 286 OFFCURVE",
"299 300 OFFCURVE",
"299 307 QCURVE SMOOTH",
"299 314 LINE",
"299 327 LINE",
"299 387 LINE",
"299 565 LINE",
"299 684 LINE",
"447 684 LINE",
"447 476 LINE",
"447 327 LINE",
"447 314 LINE",
"447 307 LINE",
"448 300 OFFCURVE",
"448 286 OFFCURVE",
"449 279 QCURVE SMOOTH",
"450 267 OFFCURVE",
"453 243 OFFCURVE",
"457 231 QCURVE SMOOTH",
"459 224 OFFCURVE",
"465 211 OFFCURVE",
"468 204 QCURVE SMOOTH",
"474 191 OFFCURVE",
"482 179 QCURVE SMOOTH",
"488 170 OFFCURVE",
"500 151 OFFCURVE",
"507 143 QCURVE",
"514 151 OFFCURVE",
"526 170 OFFCURVE",
"532 179 QCURVE SMOOTH",
"539 191 OFFCURVE",
"546 204 QCURVE SMOOTH",
"549 211 OFFCURVE",
"555 224 OFFCURVE",
"557 231 QCURVE SMOOTH",
"561 243 OFFCURVE",
"564 267 OFFCURVE",
"565 279 QCURVE SMOOTH",
"566 286 OFFCURVE",
"566 300 OFFCURVE",
"566 307 QCURVE SMOOTH",
"566 327 LINE",
"566 476 LINE",
"566 684 LINE",
"715 684 LINE",
"715 476 LINE",
"715 327 LINE SMOOTH",
"715 294 OFFCURVE",
"711 225 OFFCURVE",
"686 147 OFFCURVE",
"631 56 OFFCURVE",
"581 0 QCURVE",
"433 0 LINE",
"415 20 OFFCURVE",
"385 57 OFFCURVE",
"373 74 QCURVE",
"349 39 OFFCURVE",
"314 0 QCURVE",
"165 0 LINE",
"115 56 OFFCURVE",
"60 147 OFFCURVE",
"35 225 OFFCURVE",
"31 294 OFFCURVE",
"31 327 QCURVE SMOOTH",
"31 387 LINE SMOOTH",
"31 416 OFFCURVE",
"61 416 QCURVE SMOOTH",
"91 416 OFFCURVE",
"91 446 QCURVE SMOOTH"
);
}
);
width = 745;
}
);
unicode = 0057;
},
{
glyphname = X;
layers = (
{
layerId = "70DCFFAA-56DE-41D2-8F07-83204E6B1F0A";
paths = (
{
nodes = (
"89 506 LINE SMOOTH",
"89 535 OFFCURVE",
"59 535 QCURVE SMOOTH",
"29 535 OFFCURVE",
"29 565 QCURVE SMOOTH",
"29 684 LINE",
"178 684 LINE",
"178 518 LINE SMOOTH",
"178 499 OFFCURVE",
"174 454 OFFCURVE",
"182 414 OFFCURVE",
"208 387 OFFCURVE",
"237 387 QCURVE SMOOTH",
"267 387 OFFCURVE",
"293 414 OFFCURVE",
"300 454 OFFCURVE",
"297 499 OFFCURVE",
"297 518 QCURVE SMOOTH",
"297 684 LINE",
"446 684 LINE",
"446 492 LINE SMOOTH",
"446 467 OFFCURVE",
"444 421 OFFCURVE",
"434 376 OFFCURVE",
"415 333 OFFCURVE",
"397 312 QCURVE",
"422 283 OFFCURVE",
"443 201 OFFCURVE",
"449 114 OFFCURVE",
"446 31 OFFCURVE",
"446 0 QCURVE",
"312 0 LINE",
"297 0 LINE",
"297 136 LINE SMOOTH",
"297 153 OFFCURVE",
"299 186 OFFCURVE",
"291 203 QCURVE SMOOTH",
"283 222 OFFCURVE",
"258 238 OFFCURVE",
"237 238 QCURVE SMOOTH",
"217 238 OFFCURVE",
"192 222 OFFCURVE",
"183 203 QCURVE SMOOTH",
"175 186 OFFCURVE",
"178 153 OFFCURVE",
"178 136 QCURVE SMOOTH",
"178 0 LINE",
"163 0 LINE",
"29 0 LINE",
"29 31 OFFCURVE",
"26 114 OFFCURVE",
"32 201 OFFCURVE",
"53 283 OFFCURVE",
"78 312 QCURVE",
"62 331 OFFCURVE",
"42 372 OFFCURVE",
"36 395 QCURVE SMOOTH",
"33 405 OFFCURVE",
"41 410 QCURVE",
"48 416 OFFCURVE",
"59 416 QCURVE SMOOTH",
"89 416 OFFCURVE",
"89 446 QCURVE SMOOTH"
);
}
);
width = 473;
}
);
unicode = 0058;
},
{
glyphname = Z;
layers = (
{
layerId = "70DCFFAA-56DE-41D2-8F07-83204E6B1F0A";
paths = (
{
nodes = (
"213 419 OFFCURVE",
"232 425 OFFCURVE",
"239 439 QCURVE SMOOTH",
"266 492 LINE",
"274 506 OFFCURVE",
"259 533 OFFCURVE",
"242 535 QCURVE",
"31 535 LINE",
"31 684 LINE",
"418 684 LINE",
"418 535 LINE",
"202 149 LINE",
"418 149 LINE",
"418 0 LINE",
"31 0 LINE",
"31 149 LINE",
"186 425 LINE SMOOTH",
"188 429 OFFCURVE",
"194 428 QCURVE",
"195 428 OFFCURVE",
"199 426 QCURVE SMOOTH"
);
}
);
width = 449;
}
);
unicode = 005A;
},
{
glyphname = a;
layers = (
{
layerId = "70DCFFAA-56DE-41D2-8F07-83204E6B1F0A";
paths = (
{
nodes = (
"447 208 LINE",
"447 0 LINE",
"298 0 LINE",
"298 149 LINE",
"180 149 LINE",
"180 0 LINE",
"31 0 LINE",
"31 208 LINE",
"31 387 LINE SMOOTH",
"31 416 OFFCURVE",
"61 416 QCURVE SMOOTH",
"91 416 OFFCURVE",
"91 446 QCURVE SMOOTH",
"91 506 LINE SMOOTH",
"91 536 OFFCURVE",
"61 536 QCURVE SMOOTH",
"38 536 OFFCURVE",
"47 556 QCURVE SMOOTH",
"69 609 OFFCURVE",
"154 673 OFFCURVE",
"254 690 OFFCURVE",
"356 658 OFFCURVE",
"394 615 QCURVE SMOOTH",
"414 592 OFFCURVE",
"436 545 OFFCURVE",
"446 497 OFFCURVE",
"447 445 OFFCURVE",
"447 418 QCURVE SMOOTH",
"447 238 LINE"
);
},
{
nodes = (
"298 433 LINE SMOOTH",
"298 450 OFFCURVE",
"301 484 OFFCURVE",
"293 501 QCURVE SMOOTH",
"284 520 OFFCURVE",
"260 536 OFFCURVE",
"239 536 QCURVE SMOOTH",
"218 536 OFFCURVE",
"194 520 OFFCURVE",
"185 501 QCURVE SMOOTH",
"177 484 OFFCURVE",
"180 450 OFFCURVE",
"180 433 QCURVE SMOOTH",
"180 297 LINE",
"298 297 LINE"
);
}
);
width = 481;
}
);
unicode = 0061;
},
{
glyphname = b;
layers = (
{
layerId = "70DCFFAA-56DE-41D2-8F07-83204E6B1F0A";
paths = (
{
nodes = (
"91 505 LINE SMOOTH",
"91 535 OFFCURVE",
"61 535 QCURVE SMOOTH",
"32 535 OFFCURVE",
"32 564 QCURVE SMOOTH",
"32 683 LINE",
"240 683 LINE SMOOTH",
"283 683 OFFCURVE",
"359 650 OFFCURVE",
"415 594 OFFCURVE",
"448 518 OFFCURVE",
"448 475 QCURVE SMOOTH",
"448 435 OFFCURVE",
"425 372 OFFCURVE",
"399 341 QCURVE",
"425 311 OFFCURVE",
"448 248 OFFCURVE",
"448 208 QCURVE SMOOTH",
"448 165 OFFCURVE",
"415 89 OFFCURVE",
"359 33 OFFCURVE",
"283 0 OFFCURVE",
"240 0 QCURVE SMOOTH",
"32 0 LINE",
"32 208 LINE",
"32 386 LINE SMOOTH",
"32 416 OFFCURVE",
"61 416 QCURVE SMOOTH",
"91 416 OFFCURVE",
"91 445 QCURVE SMOOTH"
);
},
{
nodes = (
"180 208 LINE",
"180 148 LINE",
"240 148 LINE SMOOTH",
"265 148 OFFCURVE",
"299 183 OFFCURVE",
"299 208 QCURVE SMOOTH",
"299 233 OFFCURVE",
"265 267 OFFCURVE",
"240 267 QCURVE SMOOTH",
"180 267 LINE"
);
},
{
nodes = (
"240 416 LINE SMOOTH",
"265 416 OFFCURVE",
"299 451 OFFCURVE",
"299 475 QCURVE SMOOTH",
"299 500 OFFCURVE",
"265 535 OFFCURVE",
"240 535 QCURVE SMOOTH",
"180 535 LINE",
"180 475 LINE",
"180 416 LINE"
);
}
);
width = 474;
}
);
unicode = 0062;
},
{
glyphname = c;
layers = (
{
layerId = "70DCFFAA-56DE-41D2-8F07-83204E6B1F0A";
paths = (
{
nodes = (
"88 506 LINE SMOOTH",
"88 536 OFFCURVE",
"58 536 QCURVE SMOOTH",
"35 536 OFFCURVE",
"45 557 QCURVE",
"60 593 OFFCURVE",
"113 648 OFFCURVE",
"179 680 OFFCURVE",
"254 687 OFFCURVE",
"292 677 QCURVE SMOOTH",
"334 665 OFFCURVE",
"393 621 OFFCURVE",
"429 560 OFFCURVE",
"445 487 OFFCURVE",
"445 447 QCURVE",
"296 447 LINE",
"296 470 OFFCURVE",
"293 509 OFFCURVE",
"270 526 QCURVE SMOOTH",
"251 539 OFFCURVE",
"206 532 OFFCURVE",
"191 515 QCURVE SMOOTH",
"184 507 OFFCURVE",
"178 457 OFFCURVE",
"176 401 OFFCURVE",
"177 351 OFFCURVE",
"177 343 QCURVE SMOOTH",
"177 255 LINE SMOOTH",
"177 233 OFFCURVE",
"174 191 OFFCURVE",
"191 171 QCURVE SMOOTH",
"206 153 OFFCURVE",
"251 147 OFFCURVE",
"270 160 QCURVE SMOOTH",
"293 176 OFFCURVE",
"296 216 OFFCURVE",
"296 239 QCURVE",
"445 239 LINE",
"445 209 OFFCURVE",
"439 157 OFFCURVE",
"423 110 OFFCURVE",
"392 67 OFFCURVE",
"367 47 QCURVE SMOOTH",
"324 12 OFFCURVE",
"216 -6 OFFCURVE",
"164 14 QCURVE SMOOTH",
"112 34 OFFCURVE",
"42 118 OFFCURVE",
"32 172 QCURVE SMOOTH",
"27 199 OFFCURVE",
"28 253 OFFCURVE",
"28 280 QCURVE SMOOTH",
"28 387 LINE SMOOTH",
"28 417 OFFCURVE",
"58 417 QCURVE SMOOTH",
"88 417 OFFCURVE",
"88 447 QCURVE SMOOTH"
);
}
);
width = 469;
}
);
unicode = 0063;
},
{
glyphname = e;
layers = (
{
layerId = "70DCFFAA-56DE-41D2-8F07-83204E6B1F0A";
paths = (
{
nodes = (
"423 149 LINE",
"423 0 LINE",
"238 0 LINE SMOOTH",
"172 0 OFFCURVE",
"66 74 OFFCURVE",
"43 136 QCURVE SMOOTH",
"37 153 OFFCURVE",
"31 216 OFFCURVE",
"30 252 QCURVE",
"30 387 LINE SMOOTH",
"30 417 OFFCURVE",
"60 417 QCURVE SMOOTH",
"89 417 OFFCURVE",
"89 446 QCURVE SMOOTH",
"89 506 LINE SMOOTH",
"89 536 OFFCURVE",
"60 536 QCURVE SMOOTH",
"38 536 OFFCURVE",
"46 556 QCURVE SMOOTH",
"70 615 OFFCURVE",
"175 684 OFFCURVE",
"238 684 QCURVE SMOOTH",
"423 684 LINE",
"423 565 LINE",
"423 536 LINE",
"238 536 LINE SMOOTH",
"214 536 OFFCURVE",
"188 516 OFFCURVE",
"181 493 QCURVE SMOOTH",
"175 473 OFFCURVE",
"179 436 OFFCURVE",
"179 417 QCURVE",
"387 417 LINE",
"387 387 LINE",
"387 268 LINE",
"179 268 LINE",
"179 249 OFFCURVE",
"175 212 OFFCURVE",
"181 192 QCURVE SMOOTH",
"188 169 OFFCURVE",
"214 149 OFFCURVE",
"238 149 QCURVE SMOOTH"
);
}
);
width = 457;
}
);
unicode = 0065;
},
{
glyphname = f;
layers = (
{
layerId = "70DCFFAA-56DE-41D2-8F07-83204E6B1F0A";
paths = (
{
nodes = (
"406 684 LINE",
"406 535 LINE",
"245 535 LINE SMOOTH",
"220 535 OFFCURVE",
"194 515 OFFCURVE",
"187 492 QCURVE SMOOTH",
"182 473 OFFCURVE",
"185 436 OFFCURVE",
"185 416 QCURVE",
"374 416 LINE",
"374 387 LINE",
"374 268 LINE",
"185 268 LINE",
"185 208 LINE",
"185 0 LINE",
"36 0 LINE",
"36 208 LINE",
"36 387 LINE SMOOTH",
"36 416 OFFCURVE",
"66 416 QCURVE SMOOTH",
"96 416 OFFCURVE",
"96 446 QCURVE SMOOTH",
"96 505 LINE SMOOTH",
"96 535 OFFCURVE",
"66 535 QCURVE SMOOTH",
"44 535 OFFCURVE",
"52 556 QCURVE",
"77 614 OFFCURVE",
"181 684 OFFCURVE",
"245 684 QCURVE SMOOTH"
);
}
);
width = 423;
}
);
unicode = 0066;
},
{
glyphname = g;
layers = (
{
layerId = "70DCFFAA-56DE-41D2-8F07-83204E6B1F0A";
paths = (
{
nodes = (
"448 386 LINE",
"448 237 LINE SMOOTH",
"448 191 OFFCURVE",
"425 108 OFFCURVE",
"377 44 OFFCURVE",
"304 3 OFFCURVE",
"254 0 QCURVE SMOOTH",
"209 -3 OFFCURVE",
"128 26 OFFCURVE",
"67 83 OFFCURVE",
"31 162 OFFCURVE",
"31 207 QCURVE SMOOTH",
"31 386 LINE SMOOTH",
"31 415 OFFCURVE",
"61 415 QCURVE SMOOTH",
"91 415 OFFCURVE",
"91 445 QCURVE SMOOTH",
"91 505 LINE SMOOTH",
"91 534 OFFCURVE",
"61 534 QCURVE SMOOTH",
"39 534 OFFCURVE",
"47 555 QCURVE SMOOTH",
"62 591 OFFCURVE",
"115 646 OFFCURVE",
"182 678 OFFCURVE",
"257 685 OFFCURVE",
"295 675 QCURVE SMOOTH",
"337 663 OFFCURVE",
"396 619 OFFCURVE",
"432 558 OFFCURVE",
"448 485 OFFCURVE",
"448 445 QCURVE",
"299 445 LINE",
"299 462 OFFCURVE",
"298 494 OFFCURVE",
"287 518 OFFCURVE",
"264 533 OFFCURVE",
"242 534 QCURVE SMOOTH",
"224 535 OFFCURVE",
"200 523 OFFCURVE",
"190 508 QCURVE SMOOTH",
"180 494 OFFCURVE",
"180 465 OFFCURVE",
"180 449 QCURVE SMOOTH",
"180 207 LINE SMOOTH",
"180 192 OFFCURVE",
"193 168 OFFCURVE",
"214 152 OFFCURVE",
"240 146 OFFCURVE",
"254 150 QCURVE",
"273 154 OFFCURVE",
"291 172 OFFCURVE",
"299 195 OFFCURVE",
"299 222 OFFCURVE",
"299 237 QCURVE",
"239 237 LINE",
"239 386 LINE"
);
}
);
width = 477;
}
);
unicode = 0067;
},
{
glyphname = i;
layers = (
{
layerId = "70DCFFAA-56DE-41D2-8F07-83204E6B1F0A";
paths = (
{
nodes = (
"96 505 LINE SMOOTH",
"96 535 OFFCURVE",
"66 535 QCURVE SMOOTH",
"37 535 OFFCURVE",
"37 565 QCURVE SMOOTH",
"37 684 LINE",
"185 684 LINE",
"185 416 LINE",
"185 267 LINE",
"185 0 LINE",
"37 0 LINE",
"37 387 LINE SMOOTH",
"37 416 OFFCURVE",
"66 416 QCURVE SMOOTH",
"96 416 OFFCURVE",
"96 446 QCURVE SMOOTH"
);
}
);
width = 224;
}
);
unicode = 0069;
},
{
glyphname = j;
layers = (
{
layerId = "70DCFFAA-56DE-41D2-8F07-83204E6B1F0A";
paths = (
{
nodes = (
"347 506 LINE SMOOTH",
"347 535 OFFCURVE",
"318 535 QCURVE SMOOTH",
"288 535 OFFCURVE",
"288 565 QCURVE SMOOTH",
"288 684 LINE",
"436 684 LINE",
"436 476 LINE",
"436 387 LINE",
"436 238 LINE SMOOTH",
"436 205 OFFCURVE",
"429 147 OFFCURVE",
"409 96 OFFCURVE",
"371 52 OFFCURVE",
"341 33 QCURVE SMOOTH",
"289 0 OFFCURVE",
"167 0 OFFCURVE",
"116 33 QCURVE SMOOTH",
"85 52 OFFCURVE",
"48 96 OFFCURVE",
"27 147 OFFCURVE",
"20 205 OFFCURVE",
"20 238 QCURVE",
"169 238 LINE",
"169 225 OFFCURVE",
"168 200 OFFCURVE",
"174 179 OFFCURVE",
"189 161 OFFCURVE",
"205 154 QCURVE SMOOTH",
"229 143 OFFCURVE",
"277 164 OFFCURVE",
"285 189 QCURVE SMOOTH",
"293 215 OFFCURVE",
"288 263 OFFCURVE",
"288 288 QCURVE SMOOTH",
"288 387 LINE SMOOTH",
"288 416 OFFCURVE",
"318 416 QCURVE SMOOTH",
"347 416 OFFCURVE",
"347 446 QCURVE SMOOTH"
);
}
);
width = 470;
}
);
unicode = 006A;
},
{
glyphname = k;
layers = (
{
layerId = "70DCFFAA-56DE-41D2-8F07-83204E6B1F0A";
paths = (
{
nodes = (
"184 416 LINE",
"243 416 LINE SMOOTH",
"268 416 OFFCURVE",
"302 451 OFFCURVE",
"302 476 QCURVE SMOOTH",
"302 684 LINE",
"451 684 LINE",
"451 476 LINE SMOOTH",
"451 436 OFFCURVE",
"428 373 OFFCURVE",
"402 342 QCURVE",
"428 311 OFFCURVE",
"451 248 OFFCURVE",
"451 208 QCURVE SMOOTH",
"451 0 LINE",
"421 0 LINE",
"302 0 LINE",
"302 208 LINE SMOOTH",
"302 233 OFFCURVE",
"268 267 OFFCURVE",
"243 267 QCURVE SMOOTH",
"184 267 LINE",
"184 208 LINE",
"184 149 LINE",
"184 0 LINE",
"35 0 LINE",
"35 208 LINE",
"35 387 LINE SMOOTH",
"35 416 OFFCURVE",
"65 416 QCURVE SMOOTH",
"94 416 OFFCURVE",
"94 446 QCURVE SMOOTH",
"94 506 LINE SMOOTH",
"94 535 OFFCURVE",
"65 535 QCURVE SMOOTH",
"35 535 OFFCURVE",
"35 565 QCURVE SMOOTH",
"35 684 LINE",
"184 684 LINE",
"184 535 LINE",
"184 476 LINE"
);
}
);
width = 490;
}
);
unicode = 006B;
},
{
glyphname = l;
layers = (
{
layerId = "70DCFFAA-56DE-41D2-8F07-83204E6B1F0A";
paths = (
{
nodes = (
"97 505 LINE SMOOTH",
"97 535 OFFCURVE",
"67 535 QCURVE SMOOTH",
"38 535 OFFCURVE",
"38 565 QCURVE SMOOTH",
"38 684 LINE",
"186 684 LINE",
"186 416 LINE",
"186 267 LINE",
"186 148 LINE",
"335 148 LINE",
"335 0 LINE",
"186 0 LINE",
"38 0 LINE",
"38 386 LINE SMOOTH",
"38 416 OFFCURVE",
"67 416 QCURVE SMOOTH",
"97 416 OFFCURVE",
"97 446 QCURVE SMOOTH"
);
}
);
width = 355;
}
);
unicode = 006C;
},
{
glyphname = m;
layers = (
{
layerId = "70DCFFAA-56DE-41D2-8F07-83204E6B1F0A";
paths = (
{
nodes = (
"450 208 LINE",
"450 0 LINE",
"301 0 LINE",
"301 285 LINE",
"301 427 LINE SMOOTH",
"301 444 OFFCURVE",
"304 479 OFFCURVE",
"297 497 QCURVE SMOOTH",
"289 518 OFFCURVE",
"265 535 OFFCURVE",
"242 535 QCURVE SMOOTH",
"219 535 OFFCURVE",
"194 518 OFFCURVE",
"186 497 QCURVE SMOOTH",
"179 479 OFFCURVE",
"182 444 OFFCURVE",
"182 427 QCURVE SMOOTH",
"182 285 LINE",
"182 0 LINE",
"34 0 LINE",
"34 387 LINE SMOOTH",
"34 416 OFFCURVE",
"63 416 QCURVE SMOOTH",
"93 416 OFFCURVE",
"93 446 QCURVE SMOOTH",
"93 505 LINE SMOOTH",
"93 535 OFFCURVE",
"63 535 QCURVE SMOOTH",
"40 535 OFFCURVE",
"50 556 QCURVE",
"70 604 OFFCURVE",
"146 666 OFFCURVE",
"238 689 OFFCURVE",
"335 669 OFFCURVE",
"375 635 QCURVE",
"413 667 OFFCURVE",
"504 688 OFFCURVE",
"593 671 OFFCURVE",
"669 617 OFFCURVE",
"693 574 QCURVE SMOOTH",
"705 551 OFFCURVE",
"715 507 OFFCURVE",
"718 462 OFFCURVE",
"717 416 OFFCURVE",
"717 393 QCURVE SMOOTH",
"717 238 LINE",
"717 208 LINE",
"717 0 LINE",
"569 0 LINE",
"569 285 LINE",
"569 427 LINE SMOOTH",
"569 444 OFFCURVE",
"572 479 OFFCURVE",
"565 497 QCURVE SMOOTH",
"557 518 OFFCURVE",
"532 535 OFFCURVE",
"509 535 QCURVE SMOOTH",
"486 535 OFFCURVE",
"461 518 OFFCURVE",
"453 497 QCURVE SMOOTH",
"447 479 OFFCURVE",
"450 444 OFFCURVE",
"450 427 QCURVE SMOOTH",
"450 238 LINE"
);
}
);
width = 752;
}
);
unicode = 006D;
},
{
glyphname = n;
layers = (
{
layerId = "70DCFFAA-56DE-41D2-8F07-83204E6B1F0A";
paths = (
{
nodes = (
"451 208 LINE",
"451 0 LINE",
"302 0 LINE",
"302 284 LINE",
"302 427 LINE SMOOTH",
"302 444 OFFCURVE",
"306 479 OFFCURVE",
"299 496 QCURVE SMOOTH",
"291 518 OFFCURVE",
"266 535 OFFCURVE",
"243 535 QCURVE SMOOTH",
"220 535 OFFCURVE",
"195 518 OFFCURVE",
"187 496 QCURVE SMOOTH",
"180 479 OFFCURVE",
"184 444 OFFCURVE",
"184 427 QCURVE SMOOTH",
"184 284 LINE",
"184 0 LINE",
"35 0 LINE",
"35 386 LINE SMOOTH",
"35 416 OFFCURVE",
"65 416 QCURVE SMOOTH",
"95 416 OFFCURVE",
"95 446 QCURVE SMOOTH",
"95 505 LINE SMOOTH",
"95 535 OFFCURVE",
"65 535 QCURVE SMOOTH",
"54 535 OFFCURVE",
"46 546 OFFCURVE",
"51 556 QCURVE",
"73 609 OFFCURVE",
"158 672 OFFCURVE",
"258 689 OFFCURVE",
"360 657 OFFCURVE",
"398 614 QCURVE SMOOTH",
"418 591 OFFCURVE",
"440 545 OFFCURVE",
"450 496 OFFCURVE",
"451 445 OFFCURVE",
"451 418 QCURVE SMOOTH",
"451 238 LINE"
);
}
);
width = 485;
}
);
unicode = 006E;
},
{
glyphname = o;
layers = (
{
layerId = "70DCFFAA-56DE-41D2-8F07-83204E6B1F0A";
paths = (
{
nodes = (
"400 615 OFFCURVE",
"440 530 OFFCURVE",
"452 436 OFFCURVE",
"447 342 OFFCURVE",
"447 302 QCURVE SMOOTH",
"447 254 OFFCURVE",
"445 164 OFFCURVE",
"423 118 QCURVE SMOOTH",
"399 70 OFFCURVE",
"334 18 OFFCURVE",
"281 6 QCURVE SMOOTH",
"232 -5 OFFCURVE",
"141 18 OFFCURVE",
"70 74 OFFCURVE",
"27 159 OFFCURVE",
"27 209 QCURVE SMOOTH",
"27 387 LINE SMOOTH",
"27 417 OFFCURVE",
"57 417 QCURVE SMOOTH",
"87 417 OFFCURVE",
"87 447 QCURVE SMOOTH",
"87 506 LINE SMOOTH",
"87 536 OFFCURVE",
"57 536 QCURVE SMOOTH",
"35 536 OFFCURVE",
"43 556 QCURVE SMOOTH",
"62 602 OFFCURVE",
"135 664 OFFCURVE",
"222 689 OFFCURVE",
"315 675 OFFCURVE",
"356 646 QCURVE SMOOTH"
);
},
{
nodes = (
"274 160 OFFCURVE",
"291 180 OFFCURVE",
"297 205 OFFCURVE",
"295 234 OFFCURVE",
"295 249 QCURVE SMOOTH",
"295 476 LINE SMOOTH",
"295 491 OFFCURVE",
"281 517 OFFCURVE",
"258 533 OFFCURVE",
"230 538 OFFCURVE",
"216 533 QCURVE SMOOTH",
"197 526 OFFCURVE",
"180 505 OFFCURVE",
"174 480 OFFCURVE",
"176 451 OFFCURVE",
"176 436 QCURVE SMOOTH",
"176 209 LINE SMOOTH",
"176 194 OFFCURVE",
"190 168 OFFCURVE",
"212 152 OFFCURVE",
"240 148 OFFCURVE",
"255 153 QCURVE SMOOTH"
);
}
);
width = 475;
}
);
unicode = 006F;
},
{
glyphname = p;
layers = (
{
layerId = "70DCFFAA-56DE-41D2-8F07-83204E6B1F0A";
paths = (
{
nodes = (
"243 684 LINE SMOOTH",
"286 684 OFFCURVE",
"362 651 OFFCURVE",
"418 595 OFFCURVE",
"451 519 OFFCURVE",
"451 476 QCURVE SMOOTH",
"451 433 OFFCURVE",
"418 357 OFFCURVE",
"362 301 OFFCURVE",
"286 268 OFFCURVE",
"243 268 QCURVE SMOOTH",
"184 268 LINE",
"184 208 LINE",
"184 149 LINE",
"184 0 LINE",
"35 0 LINE",
"35 208 LINE",
"35 387 LINE SMOOTH",
"35 417 OFFCURVE",
"65 417 QCURVE SMOOTH",
"94 417 OFFCURVE",
"94 446 QCURVE SMOOTH",
"94 506 LINE SMOOTH",
"94 535 OFFCURVE",
"65 535 QCURVE SMOOTH",
"35 535 OFFCURVE",
"35 565 QCURVE SMOOTH",
"35 684 LINE"
);
},
{
nodes = (
"303 501 OFFCURVE",
"268 535 OFFCURVE",
"243 535 QCURVE SMOOTH",
"184 535 LINE",
"184 476 LINE",
"184 417 LINE",
"243 417 LINE SMOOTH",
"268 417 OFFCURVE",
"303 451 OFFCURVE",
"303 476 QCURVE SMOOTH"
);
}
);
width = 464;
}
);
unicode = 0070;
},
{
glyphname = q;
layers = (
{
layerId = "70DCFFAA-56DE-41D2-8F07-83204E6B1F0A";
paths = (
{
nodes = (
"447 472 OFFCURVE",
"443 405 OFFCURVE",
"443 370 QCURVE SMOOTH",
"443 234 LINE SMOOTH",
"443 161 OFFCURVE",
"382 46 OFFCURVE",
"310 18 QCURVE",
"310 -55 LINE",
"161 -55 LINE",
"161 18 LINE",
"131 30 OFFCURVE",
"81 69 OFFCURVE",
"46 120 OFFCURVE",
"27 180 OFFCURVE",
"27 212 QCURVE SMOOTH",
"27 391 LINE SMOOTH",
"27 420 OFFCURVE",
"57 420 QCURVE SMOOTH",
"87 420 OFFCURVE",
"87 450 QCURVE SMOOTH",
"87 510 LINE SMOOTH",
"87 539 OFFCURVE",
"57 539 QCURVE SMOOTH",
"35 539 OFFCURVE",
"43 560 QCURVE SMOOTH",
"63 609 OFFCURVE",
"135 669 OFFCURVE",
"219 692 OFFCURVE",
"307 680 OFFCURVE",
"382 636 OFFCURVE",
"435 559 OFFCURVE",
"442 506 QCURVE SMOOTH"
);
},
{
nodes = (
"274 163 OFFCURVE",
"291 183 OFFCURVE",
"297 209 OFFCURVE",
"295 238 OFFCURVE",
"295 253 QCURVE SMOOTH",
"295 480 LINE SMOOTH",
"295 495 OFFCURVE",
"281 521 OFFCURVE",
"258 537 OFFCURVE",
"230 541 OFFCURVE",
"215 536 QCURVE SMOOTH",
"196 529 OFFCURVE",
"179 509 OFFCURVE",
"174 483 OFFCURVE",
"176 455 OFFCURVE",
"176 440 QCURVE SMOOTH",
"176 212 LINE SMOOTH",
"176 197 OFFCURVE",
"190 172 OFFCURVE",
"212 156 OFFCURVE",
"240 151 OFFCURVE",
"255 156 QCURVE SMOOTH"
);
}
);
width = 471;
}
);
unicode = 0071;
},
{
glyphname = r;
layers = (
{
layerId = "70DCFFAA-56DE-41D2-8F07-83204E6B1F0A";
paths = (
{
nodes = (
"185 208 LINE",
"185 149 LINE",
"185 0 LINE",
"36 0 LINE",
"36 208 LINE",
"36 387 LINE SMOOTH",
"36 416 OFFCURVE",
"66 416 QCURVE SMOOTH",
"96 416 OFFCURVE",
"96 446 QCURVE SMOOTH",
"96 505 LINE SMOOTH",
"96 535 OFFCURVE",
"66 535 QCURVE SMOOTH",
"36 535 OFFCURVE",
"36 565 QCURVE SMOOTH",
"36 684 LINE",
"245 684 LINE SMOOTH",
"288 684 OFFCURVE",
"363 651 OFFCURVE",
"419 595 OFFCURVE",
"452 519 OFFCURVE",
"452 476 QCURVE SMOOTH",
"452 436 OFFCURVE",
"430 373 OFFCURVE",
"404 342 QCURVE",
"430 311 OFFCURVE",
"452 248 OFFCURVE",
"452 208 QCURVE SMOOTH",
"452 0 LINE",
"423 0 LINE",
"304 0 LINE",
"304 208 LINE SMOOTH",
"304 233 OFFCURVE",
"269 268 OFFCURVE",
"245 268 QCURVE SMOOTH",
"185 268 LINE"
);
},
{
nodes = (
"245 416 LINE SMOOTH",
"269 416 OFFCURVE",
"304 451 OFFCURVE",
"304 476 QCURVE SMOOTH",
"304 501 OFFCURVE",
"269 535 OFFCURVE",
"245 535 QCURVE SMOOTH",
"185 535 LINE",
"185 476 LINE",
"185 416 LINE"
);
}
);
width = 482;
}
);
unicode = 0072;
},
{
glyphname = s;
layers = (
{
layerId = "70DCFFAA-56DE-41D2-8F07-83204E6B1F0A";
paths = (
{
nodes = (
"194 0 OFFCURVE",
"118 33 OFFCURVE",
"62 90 OFFCURVE",
"29 166 OFFCURVE",
"29 209 QCURVE SMOOTH",
"29 238 LINE",
"178 238 LINE",
"178 209 LINE SMOOTH",
"178 184 OFFCURVE",
"213 149 OFFCURVE",
"237 149 QCURVE SMOOTH",
"262 149 OFFCURVE",
"297 184 OFFCURVE",
"297 209 QCURVE SMOOTH",
"297 233 OFFCURVE",
"262 268 OFFCURVE",
"237 268 QCURVE SMOOTH",
"206 268 OFFCURVE",
"147 286 OFFCURVE",
"97 319 OFFCURVE",
"58 366 OFFCURVE",
"46 395 QCURVE SMOOTH",
"40 408 OFFCURVE",
"53 414 QCURVE SMOOTH",
"59 417 OFFCURVE",
"66 417 QCURVE SMOOTH",
"95 417 OFFCURVE",
"95 446 QCURVE SMOOTH",
"95 506 LINE SMOOTH",
"95 536 OFFCURVE",
"66 536 QCURVE SMOOTH",
"57 536 OFFCURVE",
"53 538 QCURVE SMOOTH",
"41 545 OFFCURVE",
"46 558 QCURVE SMOOTH",
"61 594 OFFCURVE",
"114 648 OFFCURVE",
"180 680 OFFCURVE",
"255 687 OFFCURVE",
"293 677 QCURVE SMOOTH",
"335 665 OFFCURVE",
"394 620 OFFCURVE",
"430 559 OFFCURVE",
"446 486 OFFCURVE",
"446 446 QCURVE",
"297 446 LINE",
"297 476 LINE",
"297 477 LINE",
"297 483 OFFCURVE",
"296 486 QCURVE SMOOTH",
"294 501 OFFCURVE",
"279 525 OFFCURVE",
"259 531 QCURVE",
"258 532 OFFCURVE",
"258 532 QCURVE",
"256 533 OFFCURVE",
"254 533 OFFCURVE",
"252 534 QCURVE SMOOTH",
"238 537 OFFCURVE",
"226 534 QCURVE",
"219 534 OFFCURVE",
"215 531 QCURVE",
"202 526 OFFCURVE",
"196 518 QCURVE",
"195 518 LINE",
"193 516 LINE SMOOTH",
"188 511 OFFCURVE",
"185 505 QCURVE SMOOTH",
"183 501 OFFCURVE",
"183 500 QCURVE",
"181 495 OFFCURVE",
"179 487 OFFCURVE",
"178 483 QCURVE",
"176 458 OFFCURVE",
"208 417 OFFCURVE",
"237 417 QCURVE SMOOTH",
"280 417 OFFCURVE",
"356 384 OFFCURVE",
"413 327 OFFCURVE",
"446 252 OFFCURVE",
"446 209 QCURVE SMOOTH",
"446 166 OFFCURVE",
"413 90 OFFCURVE",
"356 33 OFFCURVE",
"280 0 OFFCURVE",
"237 0 QCURVE SMOOTH"
);
}
);
width = 480;
}
);
unicode = 0073;
},
{
glyphname = t;
layers = (
{
layerId = "70DCFFAA-56DE-41D2-8F07-83204E6B1F0A";
paths = (
{
nodes = (
"190 505 LINE SMOOTH",
"190 535 OFFCURVE",
"160 535 QCURVE SMOOTH",
"12 535 LINE",
"12 684 LINE",
"131 684 LINE",
"160 684 LINE",
"250 684 LINE",
"279 684 LINE",
"398 684 LINE",
"398 535 LINE",
"279 535 LINE",
"279 416 LINE",
"279 267 LINE",
"279 0 LINE",
"131 0 LINE",
"131 386 LINE SMOOTH",
"131 416 OFFCURVE",
"160 416 QCURVE SMOOTH",
"190 416 OFFCURVE",
"190 446 QCURVE SMOOTH"
);
}
);
width = 415;
}
);
unicode = 0074;
},
{
glyphname = u;
layers = (
{
layerId = "70DCFFAA-56DE-41D2-8F07-83204E6B1F0A";
paths = (
{
nodes = (
"88 506 LINE SMOOTH",
"88 536 OFFCURVE",
"59 536 QCURVE SMOOTH",
"29 536 OFFCURVE",
"29 566 QCURVE SMOOTH",
"29 685 LINE",
"178 685 LINE",
"178 400 LINE",
"178 258 LINE SMOOTH",
"178 240 OFFCURVE",
"174 206 OFFCURVE",
"181 188 QCURVE SMOOTH",
"189 167 OFFCURVE",
"214 149 OFFCURVE",
"237 149 QCURVE SMOOTH",
"260 149 OFFCURVE",
"285 167 OFFCURVE",
"293 188 QCURVE SMOOTH",
"300 206 OFFCURVE",
"296 240 OFFCURVE",
"296 258 QCURVE SMOOTH",
"296 400 LINE",
"296 685 LINE",
"445 685 LINE",
"445 358 LINE SMOOTH",
"445 320 OFFCURVE",
"449 239 OFFCURVE",
"440 158 OFFCURVE",
"409 83 OFFCURVE",
"373 52 QCURVE SMOOTH",
"341 23 OFFCURVE",
"262 -2 OFFCURVE",
"183 4 OFFCURVE",
"108 40 OFFCURVE",
"80 73 QCURVE SMOOTH",
"54 103 OFFCURVE",
"32 185 OFFCURVE",
"26 272 OFFCURVE",
"29 355 OFFCURVE",
"29 387 QCURVE SMOOTH",
"29 417 OFFCURVE",
"59 417 QCURVE SMOOTH",
"88 417 OFFCURVE",
"88 447 QCURVE SMOOTH"
);
}
);
width = 475;
}
);
unicode = 0075;
},
{
glyphname = v;
layers = (
{
layerId = "70DCFFAA-56DE-41D2-8F07-83204E6B1F0A";
paths = (
{
nodes = (
"89 505 LINE SMOOTH",
"89 535 OFFCURVE",
"60 535 QCURVE SMOOTH",
"30 535 OFFCURVE",
"30 565 QCURVE SMOOTH",
"30 684 LINE",
"179 684 LINE",
"179 476 LINE",
"179 327 LINE",
"179 307 LINE",
"179 279 LINE",
"181 267 OFFCURVE",
"184 243 OFFCURVE",
"188 231 QCURVE SMOOTH",
"190 224 OFFCURVE",
"196 211 OFFCURVE",
"199 204 QCURVE SMOOTH",
"205 191 OFFCURVE",
"213 179 QCURVE SMOOTH",
"219 169 OFFCURVE",
"231 151 OFFCURVE",
"238 143 QCURVE",
"245 151 OFFCURVE",
"257 169 OFFCURVE",
"263 179 QCURVE SMOOTH",
"270 191 OFFCURVE",
"277 204 QCURVE SMOOTH",
"280 211 OFFCURVE",
"286 224 OFFCURVE",
"288 231 QCURVE SMOOTH",
"292 243 OFFCURVE",
"295 267 OFFCURVE",
"297 279 QCURVE",
"297 307 LINE",
"297 327 LINE",
"297 476 LINE",
"297 684 LINE",
"446 684 LINE",
"446 476 LINE",
"446 327 LINE SMOOTH",
"446 294 OFFCURVE",
"442 225 OFFCURVE",
"417 147 OFFCURVE",
"362 55 OFFCURVE",
"312 0 QCURVE",
"164 0 LINE",
"114 55 OFFCURVE",
"59 147 OFFCURVE",
"34 225 OFFCURVE",
"30 294 OFFCURVE",
"30 327 QCURVE SMOOTH",
"30 386 LINE SMOOTH",
"30 416 OFFCURVE",
"60 416 QCURVE SMOOTH",
"89 416 OFFCURVE",
"89 446 QCURVE SMOOTH"
);
}
);
width = 475;
}
);
unicode = 0076;
},
{
glyphname = w;
layers = (
{
layerId = "70DCFFAA-56DE-41D2-8F07-83204E6B1F0A";
paths = (
{
nodes = (
"91 506 LINE SMOOTH",
"91 535 OFFCURVE",
"61 535 QCURVE SMOOTH",
"31 535 OFFCURVE",
"31 565 QCURVE SMOOTH",
"31 684 LINE",
"180 684 LINE",
"180 476 LINE",
"180 327 LINE",
"180 307 LINE SMOOTH",
"180 300 OFFCURVE",
"180 286 OFFCURVE",
"181 279 QCURVE",
"182 255 OFFCURVE",
"190 231 QCURVE SMOOTH",
"192 224 OFFCURVE",
"197 211 OFFCURVE",
"200 204 QCURVE",
"204 198 OFFCURVE",
"210 185 OFFCURVE",
"214 179 QCURVE SMOOTH",
"227 159 OFFCURVE",
"239 143 QCURVE",
"253 160 OFFCURVE",
"264 179 QCURVE SMOOTH",
"271 191 OFFCURVE",
"278 204 QCURVE SMOOTH",
"282 211 OFFCURVE",
"287 224 OFFCURVE",
"289 231 QCURVE SMOOTH",
"296 255 OFFCURVE",
"298 279 QCURVE",
"298 286 OFFCURVE",
"299 300 OFFCURVE",
"299 307 QCURVE SMOOTH",
"299 314 LINE",
"299 327 LINE",
"299 387 LINE",
"299 565 LINE",
"299 684 LINE",
"447 684 LINE",
"447 476 LINE",
"447 327 LINE",
"447 314 LINE",
"447 307 LINE",
"448 300 OFFCURVE",
"448 286 OFFCURVE",
"449 279 QCURVE SMOOTH",
"450 267 OFFCURVE",
"453 243 OFFCURVE",
"457 231 QCURVE SMOOTH",
"459 224 OFFCURVE",
"465 211 OFFCURVE",
"468 204 QCURVE SMOOTH",
"474 191 OFFCURVE",
"482 179 QCURVE SMOOTH",
"488 170 OFFCURVE",
"500 151 OFFCURVE",
"507 143 QCURVE",
"514 151 OFFCURVE",
"526 170 OFFCURVE",
"532 179 QCURVE SMOOTH",
"539 191 OFFCURVE",
"546 204 QCURVE SMOOTH",
"549 211 OFFCURVE",
"555 224 OFFCURVE",
"557 231 QCURVE SMOOTH",
"561 243 OFFCURVE",
"564 267 OFFCURVE",
"565 279 QCURVE SMOOTH",
"566 286 OFFCURVE",
"566 300 OFFCURVE",
"566 307 QCURVE SMOOTH",
"566 327 LINE",
"566 476 LINE",
"566 684 LINE",
"715 684 LINE",
"715 476 LINE",
"715 327 LINE SMOOTH",
"715 294 OFFCURVE",
"711 225 OFFCURVE",
"686 147 OFFCURVE",
"631 56 OFFCURVE",
"581 0 QCURVE",
"433 0 LINE",
"415 20 OFFCURVE",
"385 57 OFFCURVE",
"373 74 QCURVE",
"349 39 OFFCURVE",
"314 0 QCURVE",
"165 0 LINE",
"115 56 OFFCURVE",
"60 147 OFFCURVE",
"35 225 OFFCURVE",
"31 294 OFFCURVE",
"31 327 QCURVE SMOOTH",
"31 387 LINE SMOOTH",
"31 416 OFFCURVE",
"61 416 QCURVE SMOOTH",
"91 416 OFFCURVE",
"91 446 QCURVE SMOOTH"
);
}
);
width = 745;
}
);
unicode = 0077;
},
{
glyphname = x;
layers = (
{
layerId = "70DCFFAA-56DE-41D2-8F07-83204E6B1F0A";
paths = (
{
nodes = (
"89 506 LINE SMOOTH",
"89 535 OFFCURVE",
"59 535 QCURVE SMOOTH",
"29 535 OFFCURVE",
"29 565 QCURVE SMOOTH",
"29 684 LINE",
"178 684 LINE",
"178 518 LINE SMOOTH",
"178 499 OFFCURVE",
"174 454 OFFCURVE",
"182 414 OFFCURVE",
"208 387 OFFCURVE",
"237 387 QCURVE SMOOTH",
"267 387 OFFCURVE",
"293 414 OFFCURVE",
"300 454 OFFCURVE",
"297 499 OFFCURVE",
"297 518 QCURVE SMOOTH",
"297 684 LINE",
"446 684 LINE",
"446 492 LINE SMOOTH",
"446 467 OFFCURVE",
"444 421 OFFCURVE",
"434 376 OFFCURVE",
"415 333 OFFCURVE",
"397 312 QCURVE",
"422 283 OFFCURVE",
"443 201 OFFCURVE",
"449 114 OFFCURVE",
"446 31 OFFCURVE",
"446 0 QCURVE",
"312 0 LINE",
"297 0 LINE",
"297 136 LINE SMOOTH",
"297 153 OFFCURVE",
"299 186 OFFCURVE",
"291 203 QCURVE SMOOTH",
"283 222 OFFCURVE",
"258 238 OFFCURVE",
"237 238 QCURVE SMOOTH",
"217 238 OFFCURVE",
"192 222 OFFCURVE",
"183 203 QCURVE SMOOTH",
"175 186 OFFCURVE",
"178 153 OFFCURVE",
"178 136 QCURVE SMOOTH",
"178 0 LINE",
"163 0 LINE",
"29 0 LINE",
"29 31 OFFCURVE",
"26 114 OFFCURVE",
"32 201 OFFCURVE",
"53 283 OFFCURVE",
"78 312 QCURVE",
"62 331 OFFCURVE",
"42 372 OFFCURVE",
"36 395 QCURVE SMOOTH",
"33 405 OFFCURVE",
"41 410 QCURVE",
"48 416 OFFCURVE",
"59 416 QCURVE SMOOTH",
"89 416 OFFCURVE",
"89 446 QCURVE SMOOTH"
);
}
);
width = 473;
}
);
unicode = 0078;
},
{
glyphname = y;
layers = (
{
layerId = "70DCFFAA-56DE-41D2-8F07-83204E6B1F0A";
paths = (
{
nodes = (
"441 684 LINE",
"441 622 OFFCURVE",
"443 501 OFFCURVE",
"441 439 QCURVE SMOOTH",
"440 407 OFFCURVE",
"420 349 OFFCURVE",
"385 300 OFFCURVE",
"337 262 OFFCURVE",
"307 251 QCURVE",
"307 0 LINE",
"159 0 LINE",
"159 251 LINE",
"132 262 OFFCURVE",
"89 290 OFFCURVE",
"71 313 QCURVE SMOOTH",
"53 335 OFFCURVE",
"43 360 QCURVE",
"41 363 OFFCURVE",
"35 377 OFFCURVE",
"31 392 OFFCURVE",
"32 406 OFFCURVE",
"37 410 QCURVE SMOOTH",
"44 416 OFFCURVE",
"55 416 QCURVE SMOOTH",
"84 416 OFFCURVE",
"84 446 QCURVE SMOOTH",
"84 505 LINE SMOOTH",
"84 535 OFFCURVE",
"55 535 QCURVE SMOOTH",
"25 535 OFFCURVE",
"25 565 QCURVE SMOOTH",
"25 684 LINE",
"174 684 LINE",
"174 518 LINE SMOOTH",
"174 499 OFFCURVE",
"170 453 OFFCURVE",
"178 413 OFFCURVE",
"203 386 OFFCURVE",
"233 386 QCURVE SMOOTH",
"263 386 OFFCURVE",
"288 413 OFFCURVE",
"296 453 OFFCURVE",
"292 499 OFFCURVE",
"292 518 QCURVE SMOOTH",
"292 684 LINE"
);
}
);
width = 469;
}
);
unicode = 0079;
},
{
glyphname = z;
layers = (
{
layerId = "70DCFFAA-56DE-41D2-8F07-83204E6B1F0A";
paths = (
{
nodes = (
"213 419 OFFCURVE",
"232 425 OFFCURVE",
"239 439 QCURVE SMOOTH",
"266 492 LINE",
"274 506 OFFCURVE",
"259 533 OFFCURVE",
"242 535 QCURVE",
"31 535 LINE",
"31 684 LINE",
"418 684 LINE",
"418 535 LINE",
"202 149 LINE",
"418 149 LINE",
"418 0 LINE",
"31 0 LINE",
"31 149 LINE",
"186 425 LINE SMOOTH",
"188 429 OFFCURVE",
"194 428 QCURVE",
"195 428 OFFCURVE",
"199 426 QCURVE SMOOTH"
);
}
);
width = 449;
}
);
unicode = 007A;
},
{
glyphname = zero;
layers = (
{
layerId = "70DCFFAA-56DE-41D2-8F07-83204E6B1F0A";
paths = (
{
nodes = (
"400 615 OFFCURVE",
"440 530 OFFCURVE",
"452 436 OFFCURVE",
"447 342 OFFCURVE",
"447 302 QCURVE SMOOTH",
"447 254 OFFCURVE",
"445 164 OFFCURVE",
"423 118 QCURVE SMOOTH",
"399 70 OFFCURVE",
"334 18 OFFCURVE",
"281 6 QCURVE SMOOTH",
"232 -5 OFFCURVE",
"141 18 OFFCURVE",
"70 74 OFFCURVE",
"27 159 OFFCURVE",
"27 209 QCURVE SMOOTH",
"27 387 LINE SMOOTH",
"27 417 OFFCURVE",
"57 417 QCURVE SMOOTH",
"87 417 OFFCURVE",
"87 447 QCURVE SMOOTH",
"87 506 LINE SMOOTH",
"87 536 OFFCURVE",
"57 536 QCURVE SMOOTH",
"35 536 OFFCURVE",
"43 556 QCURVE SMOOTH",
"62 602 OFFCURVE",
"135 664 OFFCURVE",
"222 689 OFFCURVE",
"315 675 OFFCURVE",
"356 646 QCURVE SMOOTH"
);
},
{
nodes = (
"274 160 OFFCURVE",
"291 180 OFFCURVE",
"297 205 OFFCURVE",
"295 234 OFFCURVE",
"295 249 QCURVE SMOOTH",
"295 476 LINE SMOOTH",
"295 491 OFFCURVE",
"281 517 OFFCURVE",
"258 533 OFFCURVE",
"230 538 OFFCURVE",
"216 533 QCURVE SMOOTH",
"197 526 OFFCURVE",
"180 505 OFFCURVE",
"174 480 OFFCURVE",
"176 451 OFFCURVE",
"176 436 QCURVE SMOOTH",
"176 209 LINE SMOOTH",
"176 194 OFFCURVE",
"190 168 OFFCURVE",
"212 152 OFFCURVE",
"240 148 OFFCURVE",
"255 153 QCURVE SMOOTH"
);
}
);
width = 475;
}
);
unicode = 0030;
},
{
glyphname = one;
layers = (
{
layerId = "70DCFFAA-56DE-41D2-8F07-83204E6B1F0A";
paths = (
{
nodes = (
"149 505 LINE SMOOTH",
"149 535 OFFCURVE",
"119 535 QCURVE SMOOTH",
"20 535 LINE",
"20 683 LINE",
"89 683 LINE",
"238 683 LINE",
"238 416 LINE",
"238 267 LINE",
"238 0 LINE",
"89 0 LINE",
"89 386 LINE SMOOTH",
"89 416 OFFCURVE",
"119 416 QCURVE SMOOTH",
"149 416 OFFCURVE",
"149 446 QCURVE SMOOTH"
);
}
);
width = 271;
}
);
unicode = 0031;
},
{
glyphname = two;
layers = (
{
layerId = "70DCFFAA-56DE-41D2-8F07-83204E6B1F0A";
paths = (
{
nodes = (
"180 446 LINE",
"91 446 LINE",
"91 505 LINE SMOOTH",
"91 535 OFFCURVE",
"62 535 QCURVE SMOOTH",
"53 535 OFFCURVE",
"48 539 QCURVE SMOOTH",
"43 542 OFFCURVE",
"44 547 QCURVE",
"58 586 OFFCURVE",
"111 644 OFFCURVE",
"176 677 OFFCURVE",
"249 687 OFFCURVE",
"321 671 OFFCURVE",
"386 629 OFFCURVE",
"410 595 QCURVE SMOOTH",
"446 543 OFFCURVE",
"450 428 OFFCURVE",
"399 331 OFFCURVE",
"303 267 OFFCURVE",
"240 267 QCURVE SMOOTH",
"215 267 OFFCURVE",
"180 233 OFFCURVE",
"180 208 QCURVE SMOOTH",
"180 148 LINE",
"440 148 LINE",
"448 148 LINE",
"448 0 LINE",
"240 0 LINE",
"32 0 LINE",
"32 208 LINE SMOOTH",
"32 251 OFFCURVE",
"65 327 OFFCURVE",
"121 383 OFFCURVE",
"197 416 OFFCURVE",
"240 416 QCURVE SMOOTH",
"257 416 OFFCURVE",
"283 432 OFFCURVE",
"298 456 OFFCURVE",
"301 485 OFFCURVE",
"295 499 QCURVE SMOOTH",
"294 501 OFFCURVE",
"293 502 OFFCURVE",
"292 504 QCURVE SMOOTH",
"289 510 OFFCURVE",
"284 515 QCURVE",
"284 516 OFFCURVE",
"282 518 QCURVE SMOOTH",
"280 520 OFFCURVE",
"275 523 OFFCURVE",
"273 525 QCURVE SMOOTH",
"268 528 OFFCURVE",
"263 530 QCURVE SMOOTH",
"260 532 OFFCURVE",
"254 533 OFFCURVE",
"252 534 QCURVE",
"242 535 OFFCURVE",
"233 534 QCURVE",
"228 534 OFFCURVE",
"225 533 QCURVE SMOOTH",
"223 532 OFFCURVE",
"220 532 OFFCURVE",
"218 531 QCURVE SMOOTH",
"198 524 OFFCURVE",
"183 500 OFFCURVE",
"181 485 QCURVE",
"181 483 OFFCURVE",
"180 478 OFFCURVE",
"180 476 QCURVE"
);
}
);
width = 479;
}
);
unicode = 0032;
},
{
glyphname = three;
layers = (
{
layerId = "70DCFFAA-56DE-41D2-8F07-83204E6B1F0A";
paths = (
{
nodes = (
"174 208 LINE SMOOTH",
"174 184 OFFCURVE",
"208 149 OFFCURVE",
"233 149 QCURVE SMOOTH",
"258 149 OFFCURVE",
"293 184 OFFCURVE",
"293 208 QCURVE SMOOTH",
"293 233 OFFCURVE",
"258 268 OFFCURVE",
"233 268 QCURVE SMOOTH",
"204 268 LINE",
"204 417 LINE",
"233 417 LINE SMOOTH",
"258 417 OFFCURVE",
"293 451 OFFCURVE",
"293 476 QCURVE",
"293 478 OFFCURVE",
"292 481 OFFCURVE",
"292 483 QCURVE",
"292 485 OFFCURVE",
"291 490 OFFCURVE",
"291 492 QCURVE",
"290 492 OFFCURVE",
"290 494 QCURVE",
"288 499 OFFCURVE",
"285 504 QCURVE SMOOTH",
"283 508 OFFCURVE",
"279 513 OFFCURVE",
"277 516 QCURVE SMOOTH",
"275 518 OFFCURVE",
"275 518 QCURVE",
"257 536 OFFCURVE",
"233 535 QCURVE",
"226 535 LINE",
"224 535 OFFCURVE",
"221 534 OFFCURVE",
"219 534 QCURVE",
"215 532 OFFCURVE",
"215 532 QCURVE",
"194 526 OFFCURVE",
"177 503 OFFCURVE",
"175 488 QCURVE",
"175 486 OFFCURVE",
"174 486 QCURVE",
"174 477 LINE",
"174 476 LINE",
"173 469 OFFCURVE",
"174 454 OFFCURVE",
"174 446 QCURVE",
"85 446 LINE",
"85 506 LINE SMOOTH",
"85 535 OFFCURVE",
"55 535 QCURVE SMOOTH",
"49 535 OFFCURVE",
"41 539 QCURVE SMOOTH",
"35 542 OFFCURVE",
"38 547 QCURVE",
"58 602 OFFCURVE",
"133 666 OFFCURVE",
"223 689 OFFCURVE",
"316 673 OFFCURVE",
"392 620 OFFCURVE",
"441 534 OFFCURVE",
"441 476 QCURVE SMOOTH",
"441 436 OFFCURVE",
"419 373 OFFCURVE",
"393 342 QCURVE",
"419 312 OFFCURVE",
"441 249 OFFCURVE",
"441 208 QCURVE SMOOTH",
"441 165 OFFCURVE",
"408 89 OFFCURVE",
"352 33 OFFCURVE",
"276 0 OFFCURVE",
"233 0 QCURVE SMOOTH",
"190 0 OFFCURVE",
"114 33 OFFCURVE",
"58 89 OFFCURVE",
"25 165 OFFCURVE",
"25 208 QCURVE SMOOTH",
"25 238 LINE",
"174 238 LINE"
);
}
);
width = 467;
}
);
unicode = 0033;
},
{
glyphname = four;
layers = (
{
layerId = "70DCFFAA-56DE-41D2-8F07-83204E6B1F0A";
paths = (
{
nodes = (
"444 208 LINE",
"444 0 LINE",
"295 0 LINE",
"295 149 LINE",
"295 208 LINE",
"295 268 LINE",
"236 268 LINE SMOOTH",
"173 268 OFFCURVE",
"68 337 OFFCURVE",
"44 396 QCURVE",
"35 416 OFFCURVE",
"58 416 QCURVE SMOOTH",
"87 416 OFFCURVE",
"87 446 QCURVE SMOOTH",
"87 506 LINE SMOOTH",
"87 535 OFFCURVE",
"58 535 QCURVE SMOOTH",
"28 535 OFFCURVE",
"28 565 QCURVE SMOOTH",
"28 684 LINE",
"177 684 LINE",
"177 675 LINE",
"177 476 LINE SMOOTH",
"177 451 OFFCURVE",
"211 416 OFFCURVE",
"236 416 QCURVE SMOOTH",
"295 416 LINE",
"295 476 LINE",
"295 535 LINE",
"295 684 LINE",
"444 684 LINE",
"444 476 LINE"
);
}
);
width = 477;
}
);
unicode = 0034;
},
{
glyphname = five;
layers = (
{
layerId = "70DCFFAA-56DE-41D2-8F07-83204E6B1F0A";
paths = (
{
nodes = (
"31 238 LINE",
"180 238 LINE",
"180 208 LINE SMOOTH",
"180 183 OFFCURVE",
"215 149 OFFCURVE",
"239 149 QCURVE SMOOTH",
"264 149 OFFCURVE",
"299 183 OFFCURVE",
"299 208 QCURVE SMOOTH",
"299 268 LINE SMOOTH",
"299 293 OFFCURVE",
"264 327 OFFCURVE",
"239 327 QCURVE SMOOTH",
"31 327 LINE",
"31 387 LINE SMOOTH",
"31 416 OFFCURVE",
"61 416 QCURVE SMOOTH",
"91 416 OFFCURVE",
"91 446 QCURVE SMOOTH",
"91 506 LINE SMOOTH",
"91 535 OFFCURVE",
"61 535 QCURVE SMOOTH",
"31 535 OFFCURVE",
"31 565 QCURVE SMOOTH",
"31 684 LINE",
"269 684 LINE",
"447 684 LINE",
"447 535 LINE",
"239 535 LINE",
"180 535 LINE",
"180 476 LINE",
"239 476 LINE SMOOTH",
"282 476 OFFCURVE",
"358 443 OFFCURVE",
"414 387 OFFCURVE",
"447 311 OFFCURVE",
"447 268 QCURVE SMOOTH",
"447 208 LINE SMOOTH",
"447 165 OFFCURVE",
"414 89 OFFCURVE",
"358 33 OFFCURVE",
"282 0 OFFCURVE",
"239 0 QCURVE SMOOTH",
"196 0 OFFCURVE",
"120 33 OFFCURVE",
"64 89 OFFCURVE",
"31 165 OFFCURVE",
"31 208 QCURVE SMOOTH"
);
}
);
width = 481;
}
);
unicode = 0035;
},
{
glyphname = six;
layers = (
{
layerId = "70DCFFAA-56DE-41D2-8F07-83204E6B1F0A";
paths = (
{
nodes = (
"178 416 LINE",
"178 408 LINE",
"193 413 OFFCURVE",
"222 416 OFFCURVE",
"237 416 QCURVE SMOOTH",
"280 416 OFFCURVE",
"356 383 OFFCURVE",
"413 327 OFFCURVE",
"446 251 OFFCURVE",
"446 208 QCURVE SMOOTH",
"446 165 OFFCURVE",
"413 89 OFFCURVE",
"356 33 OFFCURVE",
"280 0 OFFCURVE",
"237 0 QCURVE SMOOTH",
"194 0 OFFCURVE",
"118 33 OFFCURVE",
"62 89 OFFCURVE",
"29 165 OFFCURVE",
"29 208 QCURVE",
"29 209 LINE",
"30 390 LINE",
"30 391 LINE",
"30 416 OFFCURVE",
"59 416 QCURVE SMOOTH",
"89 416 OFFCURVE",
"89 446 QCURVE SMOOTH",
"89 506 LINE SMOOTH",
"89 535 OFFCURVE",
"59 535 QCURVE SMOOTH",
"37 535 OFFCURVE",
"45 556 QCURVE SMOOTH",
"60 592 OFFCURVE",
"113 647 OFFCURVE",
"180 679 OFFCURVE",
"255 686 OFFCURVE",
"293 676 QCURVE SMOOTH",
"335 664 OFFCURVE",
"394 620 OFFCURVE",
"430 559 OFFCURVE",
"446 486 OFFCURVE",
"446 446 QCURVE",
"297 446 LINE",
"297 476 LINE",
"297 477 LINE",
"297 482 OFFCURVE",
"296 485 QCURVE",
"294 502 OFFCURVE",
"278 526 OFFCURVE",
"255 532 QCURVE",
"254 533 OFFCURVE",
"252 533 QCURVE",
"251 534 OFFCURVE",
"251 534 QCURVE",
"249 534 OFFCURVE",
"247 535 OFFCURVE",
"245 535 QCURVE",
"237 535 LINE SMOOTH",
"211 535 OFFCURVE",
"196 518 QCURVE",
"194 516 LINE SMOOTH",
"188 510 OFFCURVE",
"185 504 QCURVE SMOOTH",
"183 501 OFFCURVE",
"181 493 QCURVE",
"180 493 OFFCURVE",
"180 491 QCURVE",
"179 489 OFFCURVE",
"179 485 OFFCURVE",
"178 483 QCURVE",
"178 476 LINE"
);
},
{
nodes = (
"178 183 OFFCURVE",
"213 149 OFFCURVE",
"237 149 QCURVE SMOOTH",
"262 149 OFFCURVE",
"297 183 OFFCURVE",
"297 208 QCURVE SMOOTH",
"297 233 OFFCURVE",
"262 268 OFFCURVE",
"237 268 QCURVE SMOOTH",
"213 268 OFFCURVE",
"178 233 OFFCURVE",
"178 208 QCURVE SMOOTH"
);
}
);
width = 474;
}
);
unicode = 0036;
},
{
glyphname = seven;
layers = (
{
layerId = "70DCFFAA-56DE-41D2-8F07-83204E6B1F0A";
paths = (
{
nodes = (
"257 405 OFFCURVE",
"267 433 QCURVE SMOOTH",
"272 447 OFFCURVE",
"283 475 OFFCURVE",
"288 489 QCURVE SMOOTH",
"296 509 OFFCURVE",
"273 525 OFFCURVE",
"258 532 QCURVE",
"257 532 LINE",
"251 535 OFFCURVE",
"245 535 QCURVE SMOOTH",
"27 535 LINE",
"27 684 LINE",
"416 684 LINE",
"416 535 LINE",
"215 0 LINE",
"57 0 LINE",
"209 407 LINE",
"215 420 OFFCURVE",
"228 416 QCURVE",
"229 415 OFFCURVE",
"229 415 QCURVE"
);
}
);
width = 436;
}
);
unicode = 0037;
},
{
glyphname = eight;
layers = (
{
layerId = "70DCFFAA-56DE-41D2-8F07-83204E6B1F0A";
paths = (
{
nodes = (
"83 506 LINE SMOOTH",
"83 535 OFFCURVE",
"53 535 QCURVE SMOOTH",
"31 535 OFFCURVE",
"39 556 QCURVE",
"61 608 OFFCURVE",
"138 669 OFFCURVE",
"227 689 OFFCURVE",
"318 671 OFFCURVE",
"393 618 OFFCURVE",
"440 533 OFFCURVE",
"440 476 QCURVE SMOOTH",
"440 436 OFFCURVE",
"417 373 OFFCURVE",
"391 342 QCURVE",
"417 311 OFFCURVE",
"440 248 OFFCURVE",
"440 208 QCURVE SMOOTH",
"440 165 OFFCURVE",
"407 89 OFFCURVE",
"350 33 OFFCURVE",
"274 0 OFFCURVE",
"231 0 QCURVE SMOOTH",
"165 0 OFFCURVE",
"67 69 OFFCURVE",
"19 172 OFFCURVE",
"29 291 OFFCURVE",
"72 342 QCURVE",
"61 355 OFFCURVE",
"45 381 OFFCURVE",
"39 396 QCURVE SMOOTH",
"31 416 OFFCURVE",
"53 416 QCURVE SMOOTH",
"83 416 OFFCURVE",
"83 446 QCURVE SMOOTH"
);
},
{
nodes = (
"291 501 OFFCURVE",
"256 535 OFFCURVE",
"231 535 QCURVE SMOOTH",
"207 535 OFFCURVE",
"172 501 OFFCURVE",
"172 476 QCURVE SMOOTH",
"172 451 OFFCURVE",
"207 416 OFFCURVE",
"231 416 QCURVE SMOOTH",
"256 416 OFFCURVE",
"291 451 OFFCURVE",
"291 476 QCURVE SMOOTH"
);
},
{
nodes = (
"291 233 OFFCURVE",
"256 268 OFFCURVE",
"231 268 QCURVE SMOOTH",
"207 268 OFFCURVE",
"172 233 OFFCURVE",
"172 208 QCURVE SMOOTH",
"172 183 OFFCURVE",
"207 149 OFFCURVE",
"231 149 QCURVE SMOOTH",
"256 149 OFFCURVE",
"291 183 OFFCURVE",
"291 208 QCURVE SMOOTH"
);
}
);
width = 467;
}
);
unicode = 0038;
},
{
glyphname = nine;
layers = (
{
layerId = "70DCFFAA-56DE-41D2-8F07-83204E6B1F0A";
paths = (
{
nodes = (
"175 238 LINE",
"175 209 LINE",
"175 208 LINE",
"175 202 OFFCURVE",
"176 199 QCURVE",
"176 197 LINE",
"178 183 OFFCURVE",
"193 160 OFFCURVE",
"211 154 QCURVE SMOOTH",
"213 153 OFFCURVE",
"213 153 QCURVE",
"222 149 OFFCURVE",
"235 149 QCURVE SMOOTH",
"246 149 OFFCURVE",
"258 154 QCURVE",
"259 154 OFFCURVE",
"263 156 QCURVE SMOOTH",
"269 160 OFFCURVE",
"272 163 QCURVE SMOOTH",
"277 166 OFFCURVE",
"280 171 QCURVE SMOOTH",
"284 176 OFFCURVE",
"290 186 OFFCURVE",
"292 192 QCURVE SMOOTH",
"293 194 OFFCURVE",
"293 199 OFFCURVE",
"294 201 QCURVE",
"294 209 LINE",
"294 268 LINE",
"294 277 LINE",
"265 268 OFFCURVE",
"235 268 QCURVE SMOOTH",
"203 268 OFFCURVE",
"145 286 OFFCURVE",
"94 320 OFFCURVE",
"54 367 OFFCURVE",
"42 396 QCURVE SMOOTH",
"34 417 OFFCURVE",
"56 417 QCURVE SMOOTH",
"86 417 OFFCURVE",
"86 446 QCURVE SMOOTH",
"86 506 LINE SMOOTH",
"86 536 OFFCURVE",
"56 536 QCURVE SMOOTH",
"34 536 OFFCURVE",
"42 556 QCURVE SMOOTH",
"44 561 OFFCURVE",
"48 568 OFFCURVE",
"50 572 QCURVE SMOOTH",
"77 624 OFFCURVE",
"175 684 OFFCURVE",
"235 684 QCURVE SMOOTH",
"245 684 LINE",
"271 682 OFFCURVE",
"291 677 QCURVE",
"300 674 LINE",
"304 672 OFFCURVE",
"312 670 OFFCURVE",
"316 668 QCURVE SMOOTH",
"370 645 OFFCURVE",
"439 549 OFFCURVE",
"443 487 QCURVE",
"443 476 LINE",
"442 195 LINE",
"442 190 OFFCURVE",
"441 180 OFFCURVE",
"440 175 QCURVE SMOOTH",
"434 139 OFFCURVE",
"399 77 OFFCURVE",
"347 30 OFFCURVE",
"282 3 OFFCURVE",
"245 1 QCURVE",
"235 -1 OFFCURVE",
"226 1 QCURVE",
"217 1 LINE",
"216 1 OFFCURVE",
"214 2 OFFCURVE",
"213 2 QCURVE",
"205 2 OFFCURVE",
"201 3 QCURVE SMOOTH",
"198 4 OFFCURVE",
"192 4 OFFCURVE",
"190 5 QCURVE SMOOTH",
"182 7 OFFCURVE",
"179 8 QCURVE",
"177 8 LINE",
"138 18 OFFCURVE",
"81 62 OFFCURVE",
"44 123 OFFCURVE",
"26 197 OFFCURVE",
"26 238 QCURVE"
);
},
{
nodes = (
"175 451 OFFCURVE",
"210 417 OFFCURVE",
"235 417 QCURVE SMOOTH",
"259 417 OFFCURVE",
"294 451 OFFCURVE",
"294 476 QCURVE SMOOTH",
"294 501 OFFCURVE",
"259 536 OFFCURVE",
"235 536 QCURVE SMOOTH",
"210 536 OFFCURVE",
"175 501 OFFCURVE",
"175 476 QCURVE SMOOTH"
);
}
);
width = 472;
}
);
unicode = 0039;
},
{
glyphname = exclam;
layers = (
{
layerId = "70DCFFAA-56DE-41D2-8F07-83204E6B1F0A";
paths = (
{
nodes = (
"183 149 LINE",
"183 0 LINE",
"34 0 LINE",
"34 149 LINE"
);
},
{
nodes = (
"94 417 OFFCURVE",
"94 447 QCURVE SMOOTH",
"94 506 LINE SMOOTH",
"94 536 OFFCURVE",
"64 536 QCURVE SMOOTH",
"34 536 OFFCURVE",
"34 565 QCURVE SMOOTH",
"34 684 LINE",
"183 684 LINE",
"183 417 LINE",
"183 268 LINE",
"183 209 LINE",
"34 209 LINE",
"34 387 LINE SMOOTH",
"34 417 OFFCURVE",
"64 417 QCURVE SMOOTH"
);
}
);
width = 221;
}
);
unicode = 0021;
},
{
glyphname = question;
layers = (
{
layerId = "70DCFFAA-56DE-41D2-8F07-83204E6B1F0A";
paths = (
{
nodes = (
"281 148 LINE",
"281 0 LINE",
"132 0 LINE",
"132 148 LINE"
);
},
{
nodes = (
"73 505 LINE SMOOTH",
"73 535 OFFCURVE",
"43 535 QCURVE SMOOTH",
"36 535 OFFCURVE",
"29 538 QCURVE SMOOTH",
"23 541 OFFCURVE",
"26 547 QCURVE",
"46 601 OFFCURVE",
"129 669 OFFCURVE",
"230 690 OFFCURVE",
"333 660 OFFCURVE",
"373 618 QCURVE SMOOTH",
"413 576 OFFCURVE",
"436 471 OFFCURVE",
"409 372 OFFCURVE",
"336 292 OFFCURVE",
"281 276 QCURVE",
"281 208 LINE",
"132 208 LINE",
"132 327 LINE SMOOTH",
"132 364 OFFCURVE",
"184 416 OFFCURVE",
"221 416 QCURVE SMOOTH",
"248 416 OFFCURVE",
"281 452 OFFCURVE",
"281 475 QCURVE SMOOTH",
"281 480 OFFCURVE",
"279 488 QCURVE",
"279 491 OFFCURVE",
"278 493 QCURVE",
"278 495 OFFCURVE",
"277 496 OFFCURVE",
"277 498 QCURVE",
"276 499 OFFCURVE",
"274 503 QCURVE SMOOTH",
"273 505 OFFCURVE",
"272 506 OFFCURVE",
"271 508 QCURVE SMOOTH",
"267 515 OFFCURVE",
"263 517 QCURVE",
"252 528 OFFCURVE",
"244 530 QCURVE",
"241 532 OFFCURVE",
"233 534 QCURVE SMOOTH",
"221 537 OFFCURVE",
"207 533 QCURVE",
"205 533 OFFCURVE",
"201 531 QCURVE",
"199 531 LINE",
"179 524 OFFCURVE",
"164 500 OFFCURVE",
"162 485 QCURVE",
"162 476 LINE",
"162 475 LINE",
"161 468 OFFCURVE",
"162 454 OFFCURVE",
"162 446 QCURVE",
"73 446 LINE"
);
}
);
width = 456;
}
);
unicode = 003F;
},
{
glyphname = colon;
layers = (
{
layerId = "70DCFFAA-56DE-41D2-8F07-83204E6B1F0A";
paths = (
{
nodes = (
"32 194 OFFCURVE",
"81 244 OFFCURVE",
"116 244 QCURVE SMOOTH",
"151 244 OFFCURVE",
"201 194 OFFCURVE",
"201 159 QCURVE SMOOTH",
"201 124 OFFCURVE",
"151 74 OFFCURVE",
"116 74 QCURVE SMOOTH",
"81 74 OFFCURVE",
"32 124 OFFCURVE",
"32 159 QCURVE SMOOTH"
);
},
{
nodes = (
"32 596 OFFCURVE",
"81 646 OFFCURVE",
"116 646 QCURVE SMOOTH",
"151 646 OFFCURVE",
"201 596 OFFCURVE",
"201 561 QCURVE SMOOTH",
"201 526 OFFCURVE",
"151 476 OFFCURVE",
"116 476 QCURVE SMOOTH",
"81 476 OFFCURVE",
"32 526 OFFCURVE",
"32 561 QCURVE SMOOTH"
);
}
);
width = 229;
}
);
unicode = 003A;
},
{
glyphname = semicolon;
layers = (
{
layerId = "70DCFFAA-56DE-41D2-8F07-83204E6B1F0A";
paths = (
{
nodes = (
"193 240 LINE",
"193 21 LINE",
"44 21 LINE",
"44 240 LINE"
);
},
{
nodes = (
"32 596 OFFCURVE",
"81 646 OFFCURVE",
"116 646 QCURVE SMOOTH",
"151 646 OFFCURVE",
"201 596 OFFCURVE",
"201 561 QCURVE SMOOTH",
"201 526 OFFCURVE",
"151 476 OFFCURVE",
"116 476 QCURVE SMOOTH",
"81 476 OFFCURVE",
"32 526 OFFCURVE",
"32 561 QCURVE SMOOTH"
);
}
);
width = 219;
}
);
unicode = 003B;
},
{
glyphname = period;
layers = (
{
layerId = "70DCFFAA-56DE-41D2-8F07-83204E6B1F0A";
paths = (
{
nodes = (
"186 148 LINE",
"186 0 LINE",
"37 0 LINE",
"37 148 LINE"
);
}
);
width = 219;
}
);
unicode = 002E;
},
{
glyphname = comma;
layers = (
{
layerId = "70DCFFAA-56DE-41D2-8F07-83204E6B1F0A";
paths = (
{
nodes = (
"186 148 LINE",
"186 -71 LINE",
"37 -71 LINE",
"37 148 LINE"
);
}
);
width = 219;
}
);
unicode = 002C;
},
{
glyphname = D;
layers = (
{
layerId = "70DCFFAA-56DE-41D2-8F07-83204E6B1F0A";
paths = (
{
nodes = (
"246 149 LINE SMOOTH",
"277 149 OFFCURVE",
"295 174 QCURVE SMOOTH",
"305 187 OFFCURVE",
"306 214 OFFCURVE",
"306 228 QCURVE SMOOTH",
"306 342 LINE",
"306 455 LINE SMOOTH",
"306 470 OFFCURVE",
"305 496 OFFCURVE",
"295 510 QCURVE SMOOTH",
"277 535 OFFCURVE",
"246 535 QCURVE SMOOTH",
"187 535 LINE",
"187 476 LINE",
"187 446 LINE",
"187 238 LINE",
"187 208 LINE",
"187 149 LINE"
);
},
{
nodes = (
"246 684 LINE SMOOTH",
"306 684 OFFCURVE",
"406 622 OFFCURVE",
"433 569 QCURVE SMOOTH",
"447 540 OFFCURVE",
"460 484 OFFCURVE",
"464 427 OFFCURVE",
"463 371 OFFCURVE",
"463 342 QCURVE SMOOTH",
"463 313 OFFCURVE",
"464 257 OFFCURVE",
"460 200 OFFCURVE",
"447 144 OFFCURVE",
"433 115 QCURVE SMOOTH",
"406 61 OFFCURVE",
"306 0 OFFCURVE",
"246 0 QCURVE SMOOTH",
"187 0 LINE",
"38 0 LINE",
"38 208 LINE",
"38 238 LINE",
"38 449 LINE SMOOTH",
"38 478 OFFCURVE",
"68 478 QCURVE SMOOTH",
"98 478 OFFCURVE",
"98 508 QCURVE SMOOTH",
"98 567 LINE SMOOTH",
"98 597 OFFCURVE",
"68 597 QCURVE SMOOTH",
"38 597 OFFCURVE",
"38 627 QCURVE SMOOTH",
"38 684 LINE",
"187 684 LINE"
);
}
);
width = 486;
}
);
unicode = 0044;
},
{
glyphname = B;
layers = (
{
layerId = "70DCFFAA-56DE-41D2-8F07-83204E6B1F0A";
paths = (
{
nodes = (
"91 505 LINE SMOOTH",
"91 535 OFFCURVE",
"61 535 QCURVE SMOOTH",
"32 535 OFFCURVE",
"32 564 QCURVE SMOOTH",
"32 683 LINE",
"240 683 LINE SMOOTH",
"283 683 OFFCURVE",
"359 650 OFFCURVE",
"415 594 OFFCURVE",
"448 518 OFFCURVE",
"448 475 QCURVE SMOOTH",
"448 435 OFFCURVE",
"425 372 OFFCURVE",
"399 341 QCURVE",
"425 311 OFFCURVE",
"448 248 OFFCURVE",
"448 208 QCURVE SMOOTH",
"448 165 OFFCURVE",
"415 89 OFFCURVE",
"359 33 OFFCURVE",
"283 0 OFFCURVE",
"240 0 QCURVE SMOOTH",
"32 0 LINE",
"32 208 LINE",
"32 386 LINE SMOOTH",
"32 416 OFFCURVE",
"61 416 QCURVE SMOOTH",
"91 416 OFFCURVE",
"91 445 QCURVE SMOOTH"
);
},
{
nodes = (
"180 208 LINE",
"180 148 LINE",
"240 148 LINE SMOOTH",
"265 148 OFFCURVE",
"299 183 OFFCURVE",
"299 208 QCURVE SMOOTH",
"299 233 OFFCURVE",
"265 267 OFFCURVE",
"240 267 QCURVE SMOOTH",
"180 267 LINE"
);
},
{
nodes = (
"240 416 LINE SMOOTH",
"265 416 OFFCURVE",
"299 451 OFFCURVE",
"299 475 QCURVE SMOOTH",
"299 500 OFFCURVE",
"265 535 OFFCURVE",
"240 535 QCURVE SMOOTH",
"180 535 LINE",
"180 475 LINE",
"180 416 LINE"
);
}
);
width = 474;
}
);
unicode = 0042;
},
{
glyphname = C;
layers = (
{
layerId = "70DCFFAA-56DE-41D2-8F07-83204E6B1F0A";
paths = (
{
nodes = (
"88 506 LINE SMOOTH",
"88 536 OFFCURVE",
"58 536 QCURVE SMOOTH",
"35 536 OFFCURVE",
"45 557 QCURVE",
"60 593 OFFCURVE",
"113 648 OFFCURVE",
"179 680 OFFCURVE",
"254 687 OFFCURVE",
"292 677 QCURVE SMOOTH",
"334 665 OFFCURVE",
"393 621 OFFCURVE",
"429 560 OFFCURVE",
"445 487 OFFCURVE",
"445 447 QCURVE",
"296 447 LINE",
"296 470 OFFCURVE",
"293 509 OFFCURVE",
"270 526 QCURVE SMOOTH",
"251 539 OFFCURVE",
"206 532 OFFCURVE",
"191 515 QCURVE SMOOTH",
"184 507 OFFCURVE",
"178 457 OFFCURVE",
"176 401 OFFCURVE",
"177 351 OFFCURVE",
"177 343 QCURVE SMOOTH",
"177 255 LINE SMOOTH",
"177 233 OFFCURVE",
"174 191 OFFCURVE",
"191 171 QCURVE SMOOTH",
"206 153 OFFCURVE",
"251 147 OFFCURVE",
"270 160 QCURVE SMOOTH",
"293 176 OFFCURVE",
"296 216 OFFCURVE",
"296 239 QCURVE",
"445 239 LINE",
"445 209 OFFCURVE",
"439 157 OFFCURVE",
"423 110 OFFCURVE",
"392 67 OFFCURVE",
"367 47 QCURVE SMOOTH",
"324 12 OFFCURVE",
"216 -6 OFFCURVE",
"164 14 QCURVE SMOOTH",
"112 34 OFFCURVE",
"42 118 OFFCURVE",
"32 172 QCURVE SMOOTH",
"27 199 OFFCURVE",
"28 253 OFFCURVE",
"28 280 QCURVE SMOOTH",
"28 387 LINE SMOOTH",
"28 417 OFFCURVE",
"58 417 QCURVE SMOOTH",
"88 417 OFFCURVE",
"88 447 QCURVE SMOOTH"
);
}
);
width = 469;
}
);
unicode = 0043;
},
{
glyphname = A;
layers = (
{
layerId = "70DCFFAA-56DE-41D2-8F07-83204E6B1F0A";
paths = (
{
nodes = (
"447 208 LINE",
"447 0 LINE",
"298 0 LINE",
"298 149 LINE",
"180 149 LINE",
"180 0 LINE",
"31 0 LINE",
"31 208 LINE",
"31 387 LINE SMOOTH",
"31 416 OFFCURVE",
"61 416 QCURVE SMOOTH",
"91 416 OFFCURVE",
"91 446 QCURVE SMOOTH",
"91 506 LINE SMOOTH",
"91 536 OFFCURVE",
"61 536 QCURVE SMOOTH",
"38 536 OFFCURVE",
"47 556 QCURVE SMOOTH",
"69 609 OFFCURVE",
"154 673 OFFCURVE",
"254 690 OFFCURVE",
"356 658 OFFCURVE",
"394 615 QCURVE SMOOTH",
"414 592 OFFCURVE",
"436 545 OFFCURVE",
"446 497 OFFCURVE",
"447 445 OFFCURVE",
"447 418 QCURVE SMOOTH",
"447 238 LINE"
);
},
{
nodes = (
"298 433 LINE SMOOTH",
"298 450 OFFCURVE",
"301 484 OFFCURVE",
"293 501 QCURVE SMOOTH",
"284 520 OFFCURVE",
"260 536 OFFCURVE",
"239 536 QCURVE SMOOTH",
"218 536 OFFCURVE",
"194 520 OFFCURVE",
"185 501 QCURVE SMOOTH",
"177 484 OFFCURVE",
"180 450 OFFCURVE",
"180 433 QCURVE SMOOTH",
"180 297 LINE",
"298 297 LINE"
);
}
);
width = 481;
}
);
unicode = 0041;
},
{
glyphname = at;
layers = (
{
layerId = "70DCFFAA-56DE-41D2-8F07-83204E6B1F0A";
paths = (
{
nodes = (
"719 44 LINE",
"697 10 OFFCURVE",
"670 -16 QCURVE SMOOTH",
"618 -68 OFFCURVE",
"549 -97 QCURVE SMOOTH",
"514 -112 OFFCURVE",
"440 -128 OFFCURVE",
"401 -128 QCURVE SMOOTH",
"326 -128 OFFCURVE",
"253 -97 QCURVE SMOOTH",
"185 -69 OFFCURVE",
"133 -16 QCURVE SMOOTH",
"78 39 OFFCURVE",
"50 104 QCURVE",
"21 177 OFFCURVE",
"21 253 QCURVE SMOOTH",
"21 331 OFFCURVE",
"50 401 QCURVE SMOOTH",
"78 468 OFFCURVE",
"133 522 QCURVE SMOOTH",
"159 548 OFFCURVE",
"219 590 OFFCURVE",
"253 604 QCURVE SMOOTH",
"288 619 OFFCURVE",
"363 633 OFFCURVE",
"401 633 QCURVE SMOOTH",
"481 633 OFFCURVE",
"549 604 QCURVE SMOOTH",
"583 590 OFFCURVE",
"644 548 OFFCURVE",
"670 522 QCURVE SMOOTH",
"723 469 OFFCURVE",
"751 401 QCURVE",
"782 330 OFFCURVE",
"782 253 QCURVE SMOOTH",
"782 214 OFFCURVE",
"766 140 OFFCURVE",
"751 104 QCURVE SMOOTH",
"749 100 OFFCURVE",
"745 89 OFFCURVE",
"743 84 QCURVE",
"670 84 LINE",
"567 84 LINE",
"521 84 LINE",
"479 84 LINE",
"468 84 LINE",
"468 100 LINE",
"434 84 OFFCURVE",
"397 84 QCURVE SMOOTH",
"362 84 OFFCURVE",
"301 111 OFFCURVE",
"255 157 OFFCURVE",
"228 218 OFFCURVE",
"228 253 QCURVE SMOOTH",
"228 288 OFFCURVE",
"255 349 OFFCURVE",
"301 395 OFFCURVE",
"362 422 OFFCURVE",
"397 422 QCURVE SMOOTH",
"416 422 OFFCURVE",
"452 414 OFFCURVE",
"468 407 QCURVE",
"468 422 LINE",
"567 422 LINE",
"567 146 LINE",
"700 146 LINE",
"719 198 OFFCURVE",
"719 253 QCURVE SMOOTH",
"719 319 OFFCURVE",
"669 434 OFFCURVE",
"583 521 OFFCURVE",
"467 571 OFFCURVE",
"401 571 QCURVE SMOOTH",
"335 571 OFFCURVE",
"220 521 OFFCURVE",
"133 434 OFFCURVE",
"83 319 OFFCURVE",
"83 253 QCURVE SMOOTH",
"83 187 OFFCURVE",
"133 71 OFFCURVE",
"220 -15 OFFCURVE",
"335 -65 OFFCURVE",
"401 -65 QCURVE SMOOTH",
"473 -65 OFFCURVE",
"595 -7 OFFCURVE",
"640 44 QCURVE"
);
},
{
nodes = (
"468 281 LINE",
"459 303 OFFCURVE",
"421 329 OFFCURVE",
"397 329 QCURVE SMOOTH",
"366 329 OFFCURVE",
"322 284 OFFCURVE",
"322 253 QCURVE SMOOTH",
"322 222 OFFCURVE",
"366 176 OFFCURVE",
"397 176 QCURVE SMOOTH",
"421 176 OFFCURVE",
"459 204 OFFCURVE",
"468 225 QCURVE"
);
}
);
width = 807;
}
);
unicode = 0040;
},
{
glyphname = ordfeminine;
layers = (
{
layerId = "70DCFFAA-56DE-41D2-8F07-83204E6B1F0A";
paths = (
{
nodes = (
"246 602 OFFCURVE",
"250 565 OFFCURVE",
"251 545 QCURVE",
"251 351 LINE",
"112 351 LINE",
"80 360 OFFCURVE",
"43 401 OFFCURVE",
"37 430 QCURVE SMOOTH",
"35 440 OFFCURVE",
"33 494 QCURVE",
"33 517 LINE",
"33 517 OFFCURVE",
"36 531 OFFCURVE",
"48 546 OFFCURVE",
"72 559 OFFCURVE",
"94 559 QCURVE",
"172 560 LINE",
"170 579 LINE",
"168 592 OFFCURVE",
"165 596 QCURVE SMOOTH",
"157 605 OFFCURVE",
"145 607 QCURVE",
"144 607 OFFCURVE",
"87 607 OFFCURVE",
"30 608 QCURVE",
"29 684 LINE",
"151 684 LINE",
"181 681 OFFCURVE",
"229 647 OFFCURVE",
"241 618 QCURVE"
);
},
{
nodes = (
"172 495 LINE",
"110 494 LINE",
"110 451 OFFCURVE",
"111 448 QCURVE",
"112 438 OFFCURVE",
"124 429 QCURVE SMOOTH",
"134 421 OFFCURVE",
"172 426 QCURVE"
);
}
);
width = 268;
}
);
unicode = 00AA;
},
{
glyphname = quotedbl;
layers = (
{
layerId = "70DCFFAA-56DE-41D2-8F07-83204E6B1F0A";
paths = (
{
nodes = (
"15 684 LINE",
"164 684 LINE",
"132 444 LINE",
"44 444 LINE"
);
},
{
nodes = (
"183 684 LINE",
"332 684 LINE",
"300 444 LINE",
"212 444 LINE"
);
}
);
width = 355;
}
);
unicode = 0022;
},
{
glyphname = quotesingle;
layers = (
{
layerId = "70DCFFAA-56DE-41D2-8F07-83204E6B1F0A";
paths = (
{
nodes = (
"15 684 LINE",
"164 684 LINE",
"132 444 LINE",
"44 444 LINE"
);
}
);
width = 183;
}
);
unicode = 0027;
},
{
glyphname = bar;
layers = (
{
layerId = "70DCFFAA-56DE-41D2-8F07-83204E6B1F0A";
paths = (
{
nodes = (
"147 766 LINE",
"295 766 LINE",
"295 -81 LINE",
"147 -81 LINE"
);
}
);
width = 430;
}
);
unicode = 007C;
},
{
glyphname = dollar;
layers = (
{
layerId = "70DCFFAA-56DE-41D2-8F07-83204E6B1F0A";
paths = (
{
nodes = (
"194 0 OFFCURVE",
"118 33 OFFCURVE",
"62 90 OFFCURVE",
"29 166 OFFCURVE",
"29 209 QCURVE SMOOTH",
"29 238 LINE",
"178 238 LINE",
"178 209 LINE SMOOTH",
"178 184 OFFCURVE",
"213 149 OFFCURVE",
"237 149 QCURVE SMOOTH",
"262 149 OFFCURVE",
"297 184 OFFCURVE",
"297 209 QCURVE SMOOTH",
"297 233 OFFCURVE",
"262 268 OFFCURVE",
"237 268 QCURVE SMOOTH",
"206 268 OFFCURVE",
"147 286 OFFCURVE",
"97 319 OFFCURVE",
"58 366 OFFCURVE",
"46 395 QCURVE SMOOTH",
"40 408 OFFCURVE",
"53 414 QCURVE SMOOTH",
"59 417 OFFCURVE",
"66 417 QCURVE SMOOTH",
"95 417 OFFCURVE",
"95 446 QCURVE SMOOTH",
"95 506 LINE SMOOTH",
"95 536 OFFCURVE",
"66 536 QCURVE SMOOTH",
"57 536 OFFCURVE",
"53 538 QCURVE SMOOTH",
"41 545 OFFCURVE",
"46 558 QCURVE SMOOTH",
"61 594 OFFCURVE",
"114 648 OFFCURVE",
"180 680 OFFCURVE",
"255 687 OFFCURVE",
"293 677 QCURVE SMOOTH",
"335 665 OFFCURVE",
"394 620 OFFCURVE",
"430 559 OFFCURVE",
"446 486 OFFCURVE",
"446 446 QCURVE",
"297 446 LINE",
"297 477 LINE SMOOTH",
"297 483 OFFCURVE",
"296 486 QCURVE SMOOTH",
"294 501 OFFCURVE",
"279 525 OFFCURVE",
"259 531 QCURVE",
"258 532 LINE",
"256 533 OFFCURVE",
"254 533 OFFCURVE",
"252 534 QCURVE SMOOTH",
"238 537 OFFCURVE",
"226 534 QCURVE",
"219 534 OFFCURVE",
"215 531 QCURVE",
"202 526 OFFCURVE",
"196 518 QCURVE",
"195 518 LINE",
"193 516 LINE SMOOTH",
"188 511 OFFCURVE",
"185 505 QCURVE SMOOTH",
"183 501 OFFCURVE",
"183 500 QCURVE",
"181 495 OFFCURVE",
"180 491 QCURVE SMOOTH",
"178 483 LINE",
"176 458 OFFCURVE",
"208 417 OFFCURVE",
"237 417 QCURVE SMOOTH",
"280 417 OFFCURVE",
"356 384 OFFCURVE",
"413 327 OFFCURVE",
"446 252 OFFCURVE",
"446 209 QCURVE SMOOTH",
"446 166 OFFCURVE",
"413 90 OFFCURVE",
"356 33 OFFCURVE",
"280 0 OFFCURVE",
"237 0 QCURVE SMOOTH"
);
},
{
nodes = (
"162 766 LINE",
"310 766 LINE",
"310 649 LINE",
"162 649 LINE"
);
},
{
nodes = (
"162 -81 LINE",
"162 27 LINE",
"310 27 LINE",
"310 -81 LINE"
);
}
);
width = 480;
}
);
unicode = 0024;
},
{
glyphname = slash;
layers = (
{
layerId = "70DCFFAA-56DE-41D2-8F07-83204E6B1F0A";
paths = (
{
nodes = (
"368 731 LINE",
"518 731 LINE",
"260 -53 LINE",
"112 -53 LINE"
);
}
);
width = 537;
}
);
unicode = 002F;
},
{
glyphname = Oslash;
layers = (
{
layerId = "70DCFFAA-56DE-41D2-8F07-83204E6B1F0A";
paths = (
{
nodes = (
"400 615 OFFCURVE",
"440 530 OFFCURVE",
"452 436 OFFCURVE",
"447 342 OFFCURVE",
"447 302 QCURVE SMOOTH",
"447 254 OFFCURVE",
"445 164 OFFCURVE",
"423 118 QCURVE SMOOTH",
"399 70 OFFCURVE",
"334 18 OFFCURVE",
"281 6 QCURVE SMOOTH",
"232 -5 OFFCURVE",
"141 18 OFFCURVE",
"70 74 OFFCURVE",
"27 159 OFFCURVE",
"27 209 QCURVE SMOOTH",
"27 387 LINE SMOOTH",
"27 417 OFFCURVE",
"57 417 QCURVE SMOOTH",
"87 417 OFFCURVE",
"87 447 QCURVE SMOOTH",
"87 506 LINE SMOOTH",
"87 536 OFFCURVE",
"57 536 QCURVE SMOOTH",
"35 536 OFFCURVE",
"43 556 QCURVE SMOOTH",
"62 602 OFFCURVE",
"135 664 OFFCURVE",
"222 689 OFFCURVE",
"315 675 OFFCURVE",
"356 646 QCURVE SMOOTH"
);
},
{
nodes = (
"274 160 OFFCURVE",
"291 180 OFFCURVE",
"297 205 OFFCURVE",
"295 234 OFFCURVE",
"295 249 QCURVE SMOOTH",
"295 476 LINE SMOOTH",
"295 491 OFFCURVE",
"281 517 OFFCURVE",
"258 533 OFFCURVE",
"230 538 OFFCURVE",
"216 533 QCURVE SMOOTH",
"197 526 OFFCURVE",
"180 505 OFFCURVE",
"174 480 OFFCURVE",
"176 451 OFFCURVE",
"176 436 QCURVE SMOOTH",
"176 209 LINE SMOOTH",
"176 194 OFFCURVE",
"190 168 OFFCURVE",
"212 152 OFFCURVE",
"240 148 OFFCURVE",
"255 153 QCURVE SMOOTH"
);
},
{
nodes = (
"30 -53 LINE",
"101 162 LINE",
"234 118 LINE",
"178 -53 LINE"
);
},
{
nodes = (
"286 731 LINE",
"436 731 LINE",
"385 577 LINE",
"249 617 LINE"
);
}
);
width = 475;
}
);
unicode = 00D8;
},
{
glyphname = oslash;
layers = (
{
layerId = "70DCFFAA-56DE-41D2-8F07-83204E6B1F0A";
paths = (
{
nodes = (
"400 615 OFFCURVE",
"440 530 OFFCURVE",
"452 436 OFFCURVE",
"447 342 OFFCURVE",
"447 302 QCURVE SMOOTH",
"447 254 OFFCURVE",
"445 164 OFFCURVE",
"423 118 QCURVE SMOOTH",
"399 70 OFFCURVE",
"334 18 OFFCURVE",
"281 6 QCURVE SMOOTH",
"232 -5 OFFCURVE",
"141 18 OFFCURVE",
"70 74 OFFCURVE",
"27 159 OFFCURVE",
"27 209 QCURVE SMOOTH",
"27 387 LINE SMOOTH",
"27 417 OFFCURVE",
"57 417 QCURVE SMOOTH",
"87 417 OFFCURVE",
"87 447 QCURVE SMOOTH",
"87 506 LINE SMOOTH",
"87 536 OFFCURVE",
"57 536 QCURVE SMOOTH",
"35 536 OFFCURVE",
"43 556 QCURVE SMOOTH",
"62 602 OFFCURVE",
"135 664 OFFCURVE",
"222 689 OFFCURVE",
"315 675 OFFCURVE",
"356 646 QCURVE SMOOTH"
);
},
{
nodes = (
"274 160 OFFCURVE",
"291 180 OFFCURVE",
"297 205 OFFCURVE",
"295 234 OFFCURVE",
"295 249 QCURVE SMOOTH",
"295 476 LINE SMOOTH",
"295 491 OFFCURVE",
"281 517 OFFCURVE",
"258 533 OFFCURVE",
"230 538 OFFCURVE",
"216 533 QCURVE SMOOTH",
"197 526 OFFCURVE",
"180 505 OFFCURVE",
"174 480 OFFCURVE",
"176 451 OFFCURVE",
"176 436 QCURVE SMOOTH",
"176 209 LINE SMOOTH",
"176 194 OFFCURVE",
"190 168 OFFCURVE",
"212 152 OFFCURVE",
"240 148 OFFCURVE",
"255 153 QCURVE SMOOTH"
);
},
{
nodes = (
"30 -53 LINE",
"101 162 LINE",
"234 118 LINE",
"178 -53 LINE"
);
},
{
nodes = (
"286 731 LINE",
"436 731 LINE",
"385 577 LINE",
"249 617 LINE"
);
}
);
width = 475;
}
);
unicode = 00F8;
},
{
glyphname = cent;
layers = (
{
layerId = "70DCFFAA-56DE-41D2-8F07-83204E6B1F0A";
paths = (
{
nodes = (
"95 506 LINE SMOOTH",
"95 536 OFFCURVE",
"65 536 QCURVE SMOOTH",
"42 536 OFFCURVE",
"52 557 QCURVE",
"67 593 OFFCURVE",
"120 648 OFFCURVE",
"186 680 OFFCURVE",
"261 687 OFFCURVE",
"299 677 QCURVE SMOOTH",
"341 665 OFFCURVE",
"400 621 OFFCURVE",
"436 560 OFFCURVE",
"452 487 OFFCURVE",
"452 447 QCURVE",
"303 447 LINE",
"303 470 OFFCURVE",
"300 509 OFFCURVE",
"277 526 QCURVE SMOOTH",
"258 539 OFFCURVE",
"213 532 OFFCURVE",
"198 515 QCURVE SMOOTH",
"191 507 OFFCURVE",
"185 457 OFFCURVE",
"183 401 OFFCURVE",
"184 351 OFFCURVE",
"184 343 QCURVE SMOOTH",
"184 255 LINE SMOOTH",
"184 233 OFFCURVE",
"181 191 OFFCURVE",
"198 171 QCURVE SMOOTH",
"213 153 OFFCURVE",
"258 147 OFFCURVE",
"277 160 QCURVE SMOOTH",
"300 176 OFFCURVE",
"303 216 OFFCURVE",
"303 239 QCURVE",
"452 239 LINE",
"452 209 OFFCURVE",
"446 157 OFFCURVE",
"430 110 OFFCURVE",
"399 67 OFFCURVE",
"374 47 QCURVE SMOOTH",
"331 12 OFFCURVE",
"223 -6 OFFCURVE",
"171 14 QCURVE SMOOTH",
"119 34 OFFCURVE",
"49 118 OFFCURVE",
"39 172 QCURVE SMOOTH",
"34 199 OFFCURVE",
"35 253 OFFCURVE",
"35 280 QCURVE SMOOTH",
"35 387 LINE SMOOTH",
"35 417 OFFCURVE",
"65 417 QCURVE SMOOTH",
"95 417 OFFCURVE",
"95 447 QCURVE SMOOTH"
);
},
{
nodes = (
"174 -81 LINE",
"174 92 LINE",
"322 92 LINE",
"322 -81 LINE"
);
},
{
nodes = (
"174 766 LINE",
"322 766 LINE",
"322 627 LINE",
"174 627 LINE"
);
}
);
width = 476;
}
);
unicode = 00A2;
},
{
glyphname = hyphen;
layers = (
{
layerId = "70DCFFAA-56DE-41D2-8F07-83204E6B1F0A";
paths = (
{
nodes = (
"267 432 LINE",
"267 284 LINE",
"34 284 LINE",
"34 432 LINE"
);
}
);
width = 299;
}
);
unicode = 002D;
},
{
glyphname = macron;
layers = (
{
layerId = "70DCFFAA-56DE-41D2-8F07-83204E6B1F0A";
paths = (
{
nodes = (
"424 853 LINE",
"424 732 LINE",
"130 732 LINE",
"130 853 LINE"
);
}
);
width = 572;
}
);
unicode = 00AF;
},
{
glyphname = h;
layers = (
{
layerId = "70DCFFAA-56DE-41D2-8F07-83204E6B1F0A";
paths = (
{
nodes = (
"93 238 LINE SMOOTH",
"93 268 OFFCURVE",
"64 268 QCURVE SMOOTH",
"34 268 OFFCURVE",
"34 297 QCURVE SMOOTH",
"34 684 LINE",
"182 684 LINE",
"182 326 LINE",
"301 326 LINE",
"301 684 LINE",
"450 684 LINE",
"450 0 LINE",
"301 0 LINE",
"301 177 LINE",
"182 177 LINE",
"182 0 LINE",
"34 0 LINE",
"34 119 LINE SMOOTH",
"34 149 OFFCURVE",
"64 149 QCURVE SMOOTH",
"80 149 OFFCURVE",
"93 162 OFFCURVE",
"93 179 QCURVE SMOOTH"
);
}
);
width = 485;
}
);
unicode = 0068;
},
{
glyphname = sterling;
layers = (
{
layerId = "70DCFFAA-56DE-41D2-8F07-83204E6B1F0A";
paths = (
{
nodes = (
"186 148 LINE",
"335 148 LINE",
"335 0 LINE",
"38 0 LINE",
"38 146 LINE SMOOTH",
"38 176 OFFCURVE",
"67 176 QCURVE SMOOTH",
"97 176 OFFCURVE",
"97 206 QCURVE SMOOTH",
"97 265 LINE SMOOTH",
"97 295 OFFCURVE",
"67 295 QCURVE SMOOTH",
"38 295 OFFCURVE",
"38 325 QCURVE SMOOTH",
"38 444 LINE",
"39 444 LINE",
"39 446 LINE",
"39 479 OFFCURVE",
"46 537 OFFCURVE",
"66 588 OFFCURVE",
"104 632 OFFCURVE",
"134 651 QCURVE SMOOTH",
"186 684 OFFCURVE",
"308 684 OFFCURVE",
"359 651 QCURVE SMOOTH",
"390 632 OFFCURVE",
"427 588 OFFCURVE",
"448 537 OFFCURVE",
"455 479 OFFCURVE",
"455 446 QCURVE",
"306 446 LINE",
"306 459 OFFCURVE",
"307 484 OFFCURVE",
"301 505 OFFCURVE",
"286 523 OFFCURVE",
"270 530 QCURVE SMOOTH",
"246 541 OFFCURVE",
"198 520 OFFCURVE",
"190 495 QCURVE SMOOTH",
"182 469 OFFCURVE",
"184 445 QCURVE",
"184 444 LINE",
"186 444 LINE",
"186 429 LINE"
);
},
{
nodes = (
"378 342 LINE",
"378 194 LINE",
"148 194 LINE",
"148 342 LINE"
);
}
);
width = 487;
}
);
unicode = 00A3;
},
{
glyphname = exclamdown;
layers = (
{
layerId = "70DCFFAA-56DE-41D2-8F07-83204E6B1F0A";
paths = (
{
nodes = (
"34 535 LINE",
"34 684 LINE",
"183 684 LINE",
"183 535 LINE"
);
},
{
nodes = (
"34 404 OFFCURVE",
"34 434 QCURVE SMOOTH",
"34 475 LINE",
"183 475 LINE",
"183 416 LINE",
"183 267 LINE",
"183 0 LINE",
"34 0 LINE",
"34 256 LINE SMOOTH",
"34 285 OFFCURVE",
"64 285 QCURVE SMOOTH",
"94 285 OFFCURVE",
"94 315 QCURVE SMOOTH",
"94 374 LINE SMOOTH",
"94 404 OFFCURVE",
"64 404 QCURVE SMOOTH"
);
}
);
width = 221;
}
);
unicode = 00A1;
},
{
glyphname = minus;
layers = (
{
layerId = "70DCFFAA-56DE-41D2-8F07-83204E6B1F0A";
paths = (
{
nodes = (
"511 432 LINE",
"511 284 LINE",
"44 284 LINE",
"44 432 LINE"
);
}
);
width = 561;
}
);
unicode = 2212;
},
{
glyphname = bullet;
layers = (
{
layerId = "70DCFFAA-56DE-41D2-8F07-83204E6B1F0A";
paths = (
{
nodes = (
"48 403 OFFCURVE",
"67 448 OFFCURVE",
"100 481 OFFCURVE",
"145 500 OFFCURVE",
"170 500 QCURVE SMOOTH",
"195 500 OFFCURVE",
"240 481 OFFCURVE",
"273 448 OFFCURVE",
"292 403 OFFCURVE",
"292 378 QCURVE SMOOTH",
"292 353 OFFCURVE",
"273 308 OFFCURVE",
"240 275 OFFCURVE",
"195 256 OFFCURVE",
"170 256 QCURVE SMOOTH",
"145 256 OFFCURVE",
"100 275 OFFCURVE",
"67 308 OFFCURVE",
"48 353 OFFCURVE",
"48 378 QCURVE SMOOTH"
);
}
);
width = 334;
}
);
unicode = 2022;
},
{
glyphname = equal;
layers = (
{
layerId = "70DCFFAA-56DE-41D2-8F07-83204E6B1F0A";
paths = (
{
nodes = (
"439 542 LINE",
"439 394 LINE",
"37 394 LINE",
"37 542 LINE"
);
},
{
nodes = (
"439 338 LINE",
"439 190 LINE",
"37 190 LINE",
"37 338 LINE"
);
}
);
width = 478;
}
);
unicode = 003D;
},
{
glyphname = yen;
layers = (
{
layerId = "70DCFFAA-56DE-41D2-8F07-83204E6B1F0A";
paths = (
{
nodes = (
"436 474 LINE",
"436 326 LINE",
"34 326 LINE",
"34 474 LINE"
);
},
{
nodes = (
"436 270 LINE",
"436 122 LINE",
"34 122 LINE",
"34 270 LINE"
);
},
{
nodes = (
"444 962 LINE",
"444 900 OFFCURVE",
"446 779 OFFCURVE",
"444 717 QCURVE SMOOTH",
"443 685 OFFCURVE",
"423 627 OFFCURVE",
"388 578 OFFCURVE",
"340 540 OFFCURVE",
"310 529 QCURVE",
"310 -87 LINE",
"162 -87 LINE",
"162 529 LINE",
"135 540 OFFCURVE",
"92 568 OFFCURVE",
"74 591 QCURVE SMOOTH",
"56 613 OFFCURVE",
"46 638 QCURVE",
"44 641 OFFCURVE",
"38 655 OFFCURVE",
"34 670 OFFCURVE",
"35 684 OFFCURVE",
"40 688 QCURVE SMOOTH",
"47 694 OFFCURVE",
"58 694 QCURVE SMOOTH",
"87 694 OFFCURVE",
"87 724 QCURVE SMOOTH",
"87 783 LINE SMOOTH",
"87 813 OFFCURVE",
"58 813 QCURVE SMOOTH",
"28 813 OFFCURVE",
"28 843 QCURVE SMOOTH",
"28 962 LINE",
"177 962 LINE",
"177 796 LINE SMOOTH",
"177 777 OFFCURVE",
"173 731 OFFCURVE",
"181 691 OFFCURVE",
"206 664 OFFCURVE",
"236 664 QCURVE SMOOTH",
"266 664 OFFCURVE",
"291 691 OFFCURVE",
"299 731 OFFCURVE",
"295 777 OFFCURVE",
"295 796 QCURVE SMOOTH",
"295 962 LINE"
);
}
);
width = 469;
}
);
unicode = 00A5;
},
{
glyphname = plus;
layers = (
{
layerId = "70DCFFAA-56DE-41D2-8F07-83204E6B1F0A";
paths = (
{
nodes = (
"511 432 LINE",
"511 284 LINE",
"44 284 LINE",
"44 432 LINE"
);
},
{
nodes = (
"201 593 LINE",
"349 593 LINE",
"349 126 LINE",
"201 126 LINE"
);
}
);
width = 543;
}
);
unicode = 002B;
},
{
glyphname = bracketleft;
layers = (
{
layerId = "70DCFFAA-56DE-41D2-8F07-83204E6B1F0A";
paths = (
{
nodes = (
"38 766 LINE",
"186 766 LINE",
"186 -81 LINE",
"38 -81 LINE"
);
},
{
nodes = (
"38 670 LINE",
"38 818 LINE",
"327 818 LINE",
"327 670 LINE"
);
},
{
nodes = (
"38 -113 LINE",
"38 35 LINE",
"327 35 LINE",
"327 -113 LINE"
);
}
);
width = 351;
}
);
unicode = 005B;
},
{
glyphname = bracketright;
layers = (
{
layerId = "70DCFFAA-56DE-41D2-8F07-83204E6B1F0A";
paths = (
{
nodes = (
"327 -61 LINE",
"179 -61 LINE",
"179 786 LINE",
"327 786 LINE"
);
},
{
nodes = (
"327 35 LINE",
"327 -113 LINE",
"38 -113 LINE",
"38 35 LINE"
);
},
{
nodes = (
"327 818 LINE",
"327 670 LINE",
"38 670 LINE",
"38 818 LINE"
);
}
);
width = 351;
}
);
unicode = 005D;
},
{
glyphname = backslash;
layers = (
{
layerId = "70DCFFAA-56DE-41D2-8F07-83204E6B1F0A";
paths = (
{
nodes = (
"518 -53 LINE",
"370 -53 LINE",
"112 731 LINE",
"262 731 LINE"
);
}
);
width = 537;
}
);
unicode = 005C;
},
{
glyphname = cedilla;
layers = (
{
layerId = "70DCFFAA-56DE-41D2-8F07-83204E6B1F0A";
paths = (
{
nodes = (
"118 -126 LINE",
"181 -126 LINE",
"181 -140 LINE SMOOTH",
"181 -151 OFFCURVE",
"197 -166 OFFCURVE",
"207 -166 QCURVE SMOOTH",
"217 -166 OFFCURVE",
"234 -151 OFFCURVE",
"234 -140 QCURVE SMOOTH",
"234 -113 LINE SMOOTH",
"234 -102 OFFCURVE",
"217 -86 OFFCURVE",
"207 -86 QCURVE SMOOTH",
"118 -86 LINE",
"118 33 LINE",
"181 33 LINE",
"181 -18 LINE",
"207 -18 LINE SMOOTH",
"225 -18 OFFCURVE",
"258 -33 OFFCURVE",
"282 -59 OFFCURVE",
"297 -92 OFFCURVE",
"297 -113 QCURVE SMOOTH",
"297 -140 LINE SMOOTH",
"297 -159 OFFCURVE",
"282 -194 OFFCURVE",
"258 -219 OFFCURVE",
"225 -234 OFFCURVE",
"207 -234 QCURVE SMOOTH",
"189 -234 OFFCURVE",
"157 -219 OFFCURVE",
"133 -194 OFFCURVE",
"118 -159 OFFCURVE",
"118 -140 QCURVE SMOOTH"
);
}
);
width = 380;
}
);
unicode = 00B8;
},
{
glyphname = underscore;
layers = (
{
layerId = "70DCFFAA-56DE-41D2-8F07-83204E6B1F0A";
paths = (
{
nodes = (
"640 -25 LINE",
"640 -173 LINE",
"41 -173 LINE",
"41 -25 LINE"
);
}
);
width = 662;
}
);
unicode = 005F;
},
{
glyphname = questiondown;
layers = (
{
layerId = "70DCFFAA-56DE-41D2-8F07-83204E6B1F0A";
paths = (
{
nodes = (
"178 542 LINE",
"178 690 LINE",
"327 690 LINE",
"327 542 LINE"
);
},
{
nodes = (
"386 185 LINE SMOOTH",
"386 155 OFFCURVE",
"416 155 QCURVE SMOOTH",
"423 155 OFFCURVE",
"430 152 QCURVE SMOOTH",
"436 149 OFFCURVE",
"433 143 QCURVE",
"413 89 OFFCURVE",
"330 21 OFFCURVE",
"229 0 OFFCURVE",
"126 30 OFFCURVE",
"86 72 QCURVE SMOOTH",
"46 114 OFFCURVE",
"23 219 OFFCURVE",
"50 318 OFFCURVE",
"123 398 OFFCURVE",
"178 414 QCURVE",
"178 482 LINE",
"327 482 LINE",
"327 363 LINE SMOOTH",
"327 326 OFFCURVE",
"275 274 OFFCURVE",
"238 274 QCURVE SMOOTH",
"211 274 OFFCURVE",
"178 238 OFFCURVE",
"178 215 QCURVE SMOOTH",
"178 210 OFFCURVE",
"180 202 QCURVE",
"180 199 OFFCURVE",
"181 197 QCURVE",
"181 195 OFFCURVE",
"182 194 OFFCURVE",
"182 192 QCURVE",
"183 191 OFFCURVE",
"185 187 QCURVE SMOOTH",
"186 185 OFFCURVE",
"187 184 OFFCURVE",
"188 182 QCURVE SMOOTH",
"192 175 OFFCURVE",
"196 173 QCURVE",
"207 162 OFFCURVE",
"215 160 QCURVE",
"218 158 OFFCURVE",
"226 156 QCURVE SMOOTH",
"238 153 OFFCURVE",
"252 157 QCURVE",
"254 157 OFFCURVE",
"258 159 QCURVE",
"260 159 LINE",
"280 166 OFFCURVE",
"295 190 OFFCURVE",
"297 205 QCURVE",
"297 214 LINE",
"297 215 LINE",
"298 222 OFFCURVE",
"297 236 OFFCURVE",
"297 244 QCURVE",
"386 244 LINE"
);
}
);
width = 456;
}
);
unicode = 00BF;
},
{
glyphname = percent;
layers = (
{
layerId = "70DCFFAA-56DE-41D2-8F07-83204E6B1F0A";
paths = (
{
nodes = (
"722 425 LINE",
"763 394 OFFCURVE",
"786 312 OFFCURVE",
"786 270 QCURVE SMOOTH",
"786 151 LINE",
"785 118 OFFCURVE",
"766 63 OFFCURVE",
"729 23 OFFCURVE",
"674 0 OFFCURVE",
"638 0 QCURVE SMOOTH",
"609 0 OFFCURVE",
"556 21 OFFCURVE",
"517 59 OFFCURVE",
"494 112 OFFCURVE",
"494 143 QCURVE SMOOTH",
"494 253 LINE SMOOTH",
"494 288 OFFCURVE",
"529 288 QCURVE",
"530 288 OFFCURVE",
"530 289 QCURVE",
"530 326 LINE",
"529 327 LINE",
"490 327 OFFCURVE",
"505 364 QCURVE",
"505 363 LINE",
"522 406 OFFCURVE",
"596 452 OFFCURVE",
"639 452 QCURVE SMOOTH",
"684 452 OFFCURVE",
"722 426 QCURVE"
);
},
{
nodes = (
"646 126 LINE",
"656 129 OFFCURVE",
"659 146 OFFCURVE",
"658 157 QCURVE",
"658 307 LINE SMOOTH",
"658 318 OFFCURVE",
"641 329 OFFCURVE",
"632 326 QCURVE SMOOTH",
"621 322 OFFCURVE",
"617 305 OFFCURVE",
"618 294 QCURVE",
"618 143 LINE SMOOTH",
"618 133 OFFCURVE",
"635 121 OFFCURVE",
"644 126 QCURVE"
);
},
{
nodes = (
"287 627 OFFCURVE",
"310 545 OFFCURVE",
"310 503 QCURVE SMOOTH",
"310 384 LINE SMOOTH",
"310 351 OFFCURVE",
"290 296 OFFCURVE",
"253 255 OFFCURVE",
"198 232 OFFCURVE",
"162 232 QCURVE SMOOTH",
"133 232 OFFCURVE",
"80 254 OFFCURVE",
"41 292 OFFCURVE",
"18 345 OFFCURVE",
"18 376 QCURVE SMOOTH",
"18 485 LINE SMOOTH",
"18 521 OFFCURVE",
"53 521 QCURVE",
"55 521 OFFCURVE",
"55 522 QCURVE",
"55 558 LINE",
"55 560 OFFCURVE",
"53 560 QCURVE",
"13 560 OFFCURVE",
"30 596 QCURVE",
"29 595 LINE",
"46 638 OFFCURVE",
"120 684 OFFCURVE",
"163 684 QCURVE SMOOTH",
"210 684 OFFCURVE",
"246 658 QCURVE SMOOTH"
);
},
{
nodes = (
"170 358 LINE",
"180 362 OFFCURVE",
"183 379 OFFCURVE",
"182 389 QCURVE",
"182 539 LINE SMOOTH",
"182 551 OFFCURVE",
"165 562 OFFCURVE",
"156 559 QCURVE",
"157 559 LINE",
"146 555 OFFCURVE",
"142 537 OFFCURVE",
"143 526 QCURVE",
"143 376 LINE SMOOTH",
"143 366 OFFCURVE",
"159 354 OFFCURVE",
"168 358 QCURVE"
);
},
{
nodes = (
"440 684 LINE",
"572 684 LINE",
"375 0 LINE",
"244 0 LINE"
);
}
);
width = 809;
}
);
unicode = 0025;
},
{
glyphname = AE;
layers = (
{
layerId = "70DCFFAA-56DE-41D2-8F07-83204E6B1F0A";
paths = (
{
nodes = (
"691 149 LINE",
"691 0 LINE",
"298 0 LINE",
"298 149 LINE",
"180 149 LINE",
"180 0 LINE",
"31 0 LINE",
"31 387 LINE SMOOTH",
"31 416 OFFCURVE",
"61 416 QCURVE SMOOTH",
"91 416 OFFCURVE",
"91 446 QCURVE SMOOTH",
"91 506 LINE SMOOTH",
"91 536 OFFCURVE",
"61 536 QCURVE SMOOTH",
"38 536 OFFCURVE",
"47 556 QCURVE SMOOTH",
"69 609 OFFCURVE",
"154 673 OFFCURVE",
"254 690 OFFCURVE",
"305 674 QCURVE SMOOTH",
"342 662 OFFCURVE",
"372 636 QCURVE",
"381 643 OFFCURVE",
"390 649 QCURVE SMOOTH",
"443 684 OFFCURVE",
"506 684 QCURVE SMOOTH",
"691 684 LINE",
"691 536 LINE",
"506 536 LINE SMOOTH",
"482 536 OFFCURVE",
"456 516 OFFCURVE",
"449 493 QCURVE",
"446 482 LINE",
"446 476 OFFCURVE",
"446 471 QCURVE",
"447 450 OFFCURVE",
"447 428 QCURVE SMOOTH",
"447 417 LINE",
"655 417 LINE",
"655 268 LINE",
"447 268 LINE",
"447 153 LINE"
);
},
{
nodes = (
"298 433 LINE SMOOTH",
"298 450 OFFCURVE",
"301 484 OFFCURVE",
"293 501 QCURVE SMOOTH",
"284 520 OFFCURVE",
"260 536 OFFCURVE",
"239 536 QCURVE SMOOTH",
"218 536 OFFCURVE",
"194 520 OFFCURVE",
"185 501 QCURVE SMOOTH",
"177 484 OFFCURVE",
"180 450 OFFCURVE",
"180 433 QCURVE SMOOTH",
"180 297 LINE",
"298 297 LINE"
);
}
);
width = 724;
}
);
unicode = 00C6;
},
{
glyphname = ae;
layers = (
{
layerId = "70DCFFAA-56DE-41D2-8F07-83204E6B1F0A";
paths = (
{
nodes = (
"691 149 LINE",
"691 0 LINE",
"298 0 LINE",
"298 149 LINE",
"180 149 LINE",
"180 0 LINE",
"31 0 LINE",
"31 387 LINE SMOOTH",
"31 416 OFFCURVE",
"61 416 QCURVE SMOOTH",
"91 416 OFFCURVE",
"91 446 QCURVE SMOOTH",
"91 506 LINE SMOOTH",
"91 536 OFFCURVE",
"61 536 QCURVE SMOOTH",
"38 536 OFFCURVE",
"47 556 QCURVE SMOOTH",
"69 609 OFFCURVE",
"154 673 OFFCURVE",
"254 690 OFFCURVE",
"305 674 QCURVE SMOOTH",
"342 662 OFFCURVE",
"372 636 QCURVE",
"381 643 OFFCURVE",
"390 649 QCURVE SMOOTH",
"443 684 OFFCURVE",
"506 684 QCURVE SMOOTH",
"691 684 LINE",
"691 536 LINE",
"506 536 LINE SMOOTH",
"482 536 OFFCURVE",
"456 516 OFFCURVE",
"449 493 QCURVE",
"446 482 LINE",
"446 476 OFFCURVE",
"446 471 QCURVE",
"447 450 OFFCURVE",
"447 428 QCURVE SMOOTH",
"447 417 LINE",
"655 417 LINE",
"655 268 LINE",
"447 268 LINE",
"447 153 LINE"
);
},
{
nodes = (
"298 433 LINE SMOOTH",
"298 450 OFFCURVE",
"301 484 OFFCURVE",
"293 501 QCURVE SMOOTH",
"284 520 OFFCURVE",
"260 536 OFFCURVE",
"239 536 QCURVE SMOOTH",
"218 536 OFFCURVE",
"194 520 OFFCURVE",
"185 501 QCURVE SMOOTH",
"177 484 OFFCURVE",
"180 450 OFFCURVE",
"180 433 QCURVE SMOOTH",
"180 297 LINE",
"298 297 LINE"
);
}
);
width = 724;
}
);
unicode = 00E6;
},
{
glyphname = germandbls;
layers = (
{
layerId = "70DCFFAA-56DE-41D2-8F07-83204E6B1F0A";
paths = (
{
nodes = (
"291 233 OFFCURVE",
"273 250 QCURVE SMOOTH",
"256 267 OFFCURVE",
"232 268 QCURVE",
"185 268 LINE",
"185 0 LINE",
"37 0 LINE",
"36 344 OFFCURVE",
"37 396 QCURVE",
"33 416 OFFCURVE",
"53 416 QCURVE SMOOTH",
"83 416 OFFCURVE",
"83 446 QCURVE SMOOTH",
"83 506 LINE SMOOTH",
"83 535 OFFCURVE",
"53 535 QCURVE SMOOTH",
"31 535 OFFCURVE",
"39 556 QCURVE",
"61 608 OFFCURVE",
"138 669 OFFCURVE",
"227 689 OFFCURVE",
"318 671 OFFCURVE",
"393 618 OFFCURVE",
"440 533 OFFCURVE",
"440 476 QCURVE SMOOTH",
"440 436 OFFCURVE",
"417 373 OFFCURVE",
"391 342 QCURVE",
"417 311 OFFCURVE",
"440 248 OFFCURVE",
"440 208 QCURVE SMOOTH",
"440 165 OFFCURVE",
"407 89 OFFCURVE",
"350 33 OFFCURVE",
"274 0 OFFCURVE",
"232 0 QCURVE",
"232 149 LINE",
"256 149 OFFCURVE",
"291 183 OFFCURVE",
"291 208 QCURVE SMOOTH"
);
},
{
nodes = (
"291 501 OFFCURVE",
"256 535 OFFCURVE",
"231 535 QCURVE SMOOTH",
"207 535 OFFCURVE",
"172 501 OFFCURVE",
"172 476 QCURVE SMOOTH",
"172 451 OFFCURVE",
"207 416 OFFCURVE",
"231 416 QCURVE SMOOTH",
"256 416 OFFCURVE",
"291 451 OFFCURVE",
"291 476 QCURVE SMOOTH"
);
}
);
width = 467;
}
);
unicode = 00DF;
},
{
glyphname = section;
layers = (
{
layerId = "70DCFFAA-56DE-41D2-8F07-83204E6B1F0A";
paths = (
{
nodes = (
"420 462 OFFCURVE",
"439 396 OFFCURVE",
"437 328 OFFCURVE",
"413 262 OFFCURVE",
"391 234 QCURVE",
"414 207 OFFCURVE",
"440 138 OFFCURVE",
"440 100 QCURVE SMOOTH",
"440 57 OFFCURVE",
"407 -19 OFFCURVE",
"350 -76 OFFCURVE",
"274 -109 OFFCURVE",
"231 -109 QCURVE SMOOTH",
"188 -109 OFFCURVE",
"112 -76 OFFCURVE",
"56 -19 OFFCURVE",
"23 57 OFFCURVE",
"23 100 QCURVE SMOOTH",
"23 129 LINE",
"172 129 LINE",
"172 100 LINE SMOOTH",
"172 75 OFFCURVE",
"207 40 OFFCURVE",
"231 40 QCURVE SMOOTH",
"256 40 OFFCURVE",
"291 75 OFFCURVE",
"291 100 QCURVE SMOOTH",
"291 124 OFFCURVE",
"256 159 OFFCURVE",
"231 159 QCURVE SMOOTH",
"228 159 OFFCURVE",
"226 160 QCURVE",
"225 160 LINE",
"163 162 OFFCURVE",
"63 229 OFFCURVE",
"40 286 QCURVE SMOOTH",
"24 325 OFFCURVE",
"25 377 QCURVE SMOOTH",
"26 429 OFFCURVE",
"40 449 QCURVE",
"52 479 OFFCURVE",
"72 502 QCURVE",
"51 528 OFFCURVE",
"40 554 QCURVE SMOOTH",
"34 567 OFFCURVE",
"47 573 QCURVE SMOOTH",
"53 576 OFFCURVE",
"60 576 QCURVE SMOOTH",
"89 576 OFFCURVE",
"89 605 QCURVE SMOOTH",
"89 665 LINE SMOOTH",
"89 695 OFFCURVE",
"60 695 QCURVE SMOOTH",
"53 695 OFFCURVE",
"47 697 QCURVE",
"36 704 OFFCURVE",
"40 717 QCURVE",
"55 753 OFFCURVE",
"108 807 OFFCURVE",
"174 839 OFFCURVE",
"249 846 OFFCURVE",
"287 836 QCURVE SMOOTH",
"329 824 OFFCURVE",
"388 779 OFFCURVE",
"424 718 OFFCURVE",
"440 645 OFFCURVE",
"440 605 QCURVE",
"291 605 LINE",
"291 635 LINE",
"291 636 LINE",
"291 643 OFFCURVE",
"290 645 QCURVE",
"288 660 OFFCURVE",
"273 684 OFFCURVE",
"253 690 QCURVE",
"252 691 LINE",
"246 693 LINE",
"232 696 OFFCURVE",
"220 693 QCURVE",
"213 693 OFFCURVE",
"209 690 QCURVE",
"197 686 OFFCURVE",
"190 677 QCURVE",
"189 677 LINE",
"187 675 LINE SMOOTH",
"182 670 OFFCURVE",
"179 664 QCURVE SMOOTH",
"177 658 OFFCURVE",
"177 659 QCURVE",
"175 654 OFFCURVE",
"173 646 OFFCURVE",
"172 642 QCURVE",
"170 617 OFFCURVE",
"202 576 OFFCURVE",
"231 576 QCURVE SMOOTH",
"278 576 OFFCURVE",
"317 558 QCURVE",
"371 535 OFFCURVE",
"400 490 QCURVE"
);
},
{
nodes = (
"256 308 OFFCURVE",
"291 343 OFFCURVE",
"291 368 QCURVE SMOOTH",
"291 374 OFFCURVE",
"290 376 QCURVE",
"290 377 LINE",
"290 379 OFFCURVE",
"289 382 OFFCURVE",
"289 384 QCURVE",
"281 408 OFFCURVE",
"260 420 QCURVE SMOOTH",
"256 422 OFFCURVE",
"253 422 QCURVE",
"252 423 LINE",
"246 425 LINE",
"232 428 OFFCURVE",
"220 425 QCURVE",
"213 425 OFFCURVE",
"209 422 QCURVE",
"197 418 OFFCURVE",
"190 409 QCURVE",
"189 409 LINE",
"187 407 LINE SMOOTH",
"182 402 OFFCURVE",
"179 396 QCURVE SMOOTH",
"177 390 OFFCURVE",
"177 391 QCURVE",
"175 386 OFFCURVE",
"173 378 OFFCURVE",
"172 374 QCURVE",
"172 368 LINE SMOOTH",
"172 344 OFFCURVE",
"205 310 OFFCURVE",
"228 309 QCURVE",
"229 308 OFFCURVE",
"231 308 QCURVE"
);
}
);
width = 477;
}
);
unicode = 00A7;
},
{
glyphname = ordmasculine;
layers = (
{
layerId = "70DCFFAA-56DE-41D2-8F07-83204E6B1F0A";
paths = (
{
nodes = (
"245 485 LINE",
"244 444 OFFCURVE",
"235 412 QCURVE",
"227 393 OFFCURVE",
"200 365 OFFCURVE",
"165 348 OFFCURVE",
"126 344 OFFCURVE",
"106 350 QCURVE SMOOTH",
"85 356 OFFCURVE",
"54 379 OFFCURVE",
"35 410 OFFCURVE",
"27 448 OFFCURVE",
"27 560 QCURVE SMOOTH",
"27 581 OFFCURVE",
"35 619 OFFCURVE",
"54 650 OFFCURVE",
"85 673 OFFCURVE",
"106 679 QCURVE SMOOTH",
"126 685 OFFCURVE",
"165 681 OFFCURVE",
"200 664 OFFCURVE",
"227 636 OFFCURVE",
"235 617 QCURVE",
"244 585 OFFCURVE",
"245 544 QCURVE"
);
},
{
nodes = (
"166 550 LINE SMOOTH",
"166 565 OFFCURVE",
"163 591 OFFCURVE",
"159 595 QCURVE SMOOTH",
"151 604 OFFCURVE",
"128 608 OFFCURVE",
"118 601 QCURVE SMOOTH",
"106 592 OFFCURVE",
"104 572 OFFCURVE",
"104 560 QCURVE SMOOTH",
"104 457 OFFCURVE",
"106 437 OFFCURVE",
"118 428 QCURVE SMOOTH",
"128 421 OFFCURVE",
"151 425 OFFCURVE",
"159 434 QCURVE SMOOTH",
"163 438 OFFCURVE",
"166 464 OFFCURVE",
"166 479 QCURVE SMOOTH"
);
}
);
width = 268;
}
);
unicode = 00BA;
},
{
glyphname = ogonek;
layers = (
{
layerId = "70DCFFAA-56DE-41D2-8F07-83204E6B1F0A";
paths = (
{
nodes = (
"257 -140 LINE SMOOTH",
"257 -159 OFFCURVE",
"242 -194 OFFCURVE",
"218 -219 OFFCURVE",
"186 -234 OFFCURVE",
"168 -234 QCURVE SMOOTH",
"150 -234 OFFCURVE",
"117 -219 OFFCURVE",
"93 -194 OFFCURVE",
"78 -159 OFFCURVE",
"78 -140 QCURVE SMOOTH",
"78 -113 LINE SMOOTH",
"78 -92 OFFCURVE",
"93 -59 OFFCURVE",
"117 -33 OFFCURVE",
"150 -18 OFFCURVE",
"168 -18 QCURVE SMOOTH",
"194 -18 LINE",
"194 33 LINE",
"257 33 LINE",
"257 -86 LINE",
"168 -86 LINE SMOOTH",
"158 -86 OFFCURVE",
"141 -102 OFFCURVE",
"141 -113 QCURVE SMOOTH",
"141 -140 LINE SMOOTH",
"141 -151 OFFCURVE",
"158 -166 OFFCURVE",
"168 -166 QCURVE SMOOTH",
"178 -166 OFFCURVE",
"194 -151 OFFCURVE",
"194 -140 QCURVE SMOOTH",
"194 -126 LINE",
"257 -126 LINE"
);
}
);
width = 257;
}
);
unicode = 02DB;
},
{
glyphname = paragraph;
layers = (
{
layerId = "70DCFFAA-56DE-41D2-8F07-83204E6B1F0A";
paths = (
{
nodes = (
"781 684 LINE",
"781 536 LINE",
"711 536 LINE",
"711 416 LINE",
"711 267 LINE",
"711 -165 LINE",
"563 -165 LINE",
"563 296 LINE SMOOTH",
"563 325 OFFCURVE",
"592 325 QCURVE SMOOTH",
"622 325 OFFCURVE",
"622 355 QCURVE SMOOTH",
"622 414 LINE SMOOTH",
"622 444 OFFCURVE",
"592 444 QCURVE SMOOTH",
"563 444 OFFCURVE",
"563 474 QCURVE SMOOTH",
"563 536 LINE",
"448 536 LINE",
"448 208 LINE",
"448 -165 LINE",
"299 -165 LINE",
"299 149 LINE",
"299 208 LINE",
"299 268 LINE",
"240 268 LINE SMOOTH",
"197 268 OFFCURVE",
"121 301 OFFCURVE",
"65 357 OFFCURVE",
"32 433 OFFCURVE",
"32 476 QCURVE SMOOTH",
"32 519 OFFCURVE",
"65 595 OFFCURVE",
"121 651 OFFCURVE",
"197 684 OFFCURVE",
"240 684 QCURVE SMOOTH",
"407 684 LINE",
"415 684 LINE",
"563 684 LINE",
"711 684 LINE"
);
}
);
width = 833;
}
);
unicode = 00B6;
},
{
glyphname = dieresis;
layers = (
{
layerId = "70DCFFAA-56DE-41D2-8F07-83204E6B1F0A";
paths = (
{
nodes = (
"122 827 OFFCURVE",
"160 865 OFFCURVE",
"186 865 QCURVE SMOOTH",
"212 865 OFFCURVE",
"250 827 OFFCURVE",
"250 801 QCURVE SMOOTH",
"250 775 OFFCURVE",
"212 737 OFFCURVE",
"186 737 QCURVE SMOOTH",
"160 737 OFFCURVE",
"122 775 OFFCURVE",
"122 801 QCURVE SMOOTH"
);
},
{
nodes = (
"329 826 OFFCURVE",
"367 864 OFFCURVE",
"393 864 QCURVE SMOOTH",
"419 864 OFFCURVE",
"457 826 OFFCURVE",
"457 800 QCURVE SMOOTH",
"457 774 OFFCURVE",
"419 736 OFFCURVE",
"393 736 QCURVE SMOOTH",
"367 736 OFFCURVE",
"329 774 OFFCURVE",
"329 800 QCURVE SMOOTH"
);
}
);
width = 579;
}
);
unicode = 00A8;
},
{
glyphname = circumflex;
layers = (
{
layerId = "70DCFFAA-56DE-41D2-8F07-83204E6B1F0A";
paths = (
{
nodes = (
"268 851 LINE",
"209 716 LINE",
"95 716 LINE",
"154 851 LINE"
);
},
{
nodes = (
"414 851 LINE",
"472 716 LINE",
"358 716 LINE",
"299 851 LINE"
);
}
);
width = 683;
}
);
unicode = 02C6;
},
{
glyphname = acute;
layers = (
{
layerId = "70DCFFAA-56DE-41D2-8F07-83204E6B1F0A";
paths = (
{
nodes = (
"317 856 LINE",
"248 726 LINE",
"147 726 LINE",
"206 856 LINE"
);
}
);
width = 453;
}
);
unicode = 00B4;
},
{
glyphname = grave;
layers = (
{
layerId = "70DCFFAA-56DE-41D2-8F07-83204E6B1F0A";
paths = (
{
nodes = (
"258 854 LINE",
"317 724 LINE",
"216 724 LINE",
"147 854 LINE"
);
}
);
width = 453;
}
);
unicode = 0060;
},
{
glyphname = dotaccent;
layers = (
{
layerId = "70DCFFAA-56DE-41D2-8F07-83204E6B1F0A";
paths = (
{
nodes = (
"40 833 OFFCURVE",
"83 876 OFFCURVE",
"112 876 QCURVE SMOOTH",
"141 876 OFFCURVE",
"184 833 OFFCURVE",
"184 804 QCURVE SMOOTH",
"184 775 OFFCURVE",
"141 732 OFFCURVE",
"112 732 QCURVE SMOOTH",
"83 732 OFFCURVE",
"40 775 OFFCURVE",
"40 804 QCURVE SMOOTH"
);
}
);
width = 216;
}
);
unicode = 02D9;
},
{
glyphname = uogonek;
layers = (
{
layerId = "70DCFFAA-56DE-41D2-8F07-83204E6B1F0A";
paths = (
{
nodes = (
"88 506 LINE SMOOTH",
"88 536 OFFCURVE",
"59 536 QCURVE SMOOTH",
"29 536 OFFCURVE",
"29 566 QCURVE SMOOTH",
"29 685 LINE",
"178 685 LINE",
"178 400 LINE",
"178 258 LINE SMOOTH",
"178 240 OFFCURVE",
"174 206 OFFCURVE",
"181 188 QCURVE SMOOTH",
"189 167 OFFCURVE",
"214 149 OFFCURVE",
"237 149 QCURVE SMOOTH",
"260 149 OFFCURVE",
"285 167 OFFCURVE",
"293 188 QCURVE SMOOTH",
"300 206 OFFCURVE",
"296 240 OFFCURVE",
"296 258 QCURVE SMOOTH",
"296 400 LINE",
"296 685 LINE",
"445 685 LINE",
"445 358 LINE SMOOTH",
"445 320 OFFCURVE",
"449 239 OFFCURVE",
"440 158 OFFCURVE",
"409 83 OFFCURVE",
"373 52 QCURVE SMOOTH",
"341 23 OFFCURVE",
"262 -2 OFFCURVE",
"183 4 OFFCURVE",
"108 40 OFFCURVE",
"80 73 QCURVE SMOOTH",
"54 103 OFFCURVE",
"32 185 OFFCURVE",
"26 272 OFFCURVE",
"29 355 OFFCURVE",
"29 387 QCURVE SMOOTH",
"29 417 OFFCURVE",
"59 417 QCURVE SMOOTH",
"88 417 OFFCURVE",
"88 447 QCURVE SMOOTH"
);
},
{
nodes = (
"295 -140 LINE SMOOTH",
"295 -159 OFFCURVE",
"280 -194 OFFCURVE",
"256 -219 OFFCURVE",
"224 -234 OFFCURVE",
"206 -234 QCURVE SMOOTH",
"188 -234 OFFCURVE",
"155 -219 OFFCURVE",
"131 -194 OFFCURVE",
"116 -159 OFFCURVE",
"116 -140 QCURVE SMOOTH",
"116 -113 LINE SMOOTH",
"116 -92 OFFCURVE",
"131 -59 OFFCURVE",
"155 -33 OFFCURVE",
"188 -18 OFFCURVE",
"206 -18 QCURVE SMOOTH",
"232 -18 LINE",
"232 33 LINE",
"295 33 LINE",
"295 -86 LINE",
"206 -86 LINE SMOOTH",
"196 -86 OFFCURVE",
"179 -102 OFFCURVE",
"179 -113 QCURVE SMOOTH",
"179 -140 LINE SMOOTH",
"179 -151 OFFCURVE",
"196 -166 OFFCURVE",
"206 -166 QCURVE SMOOTH",
"216 -166 OFFCURVE",
"232 -151 OFFCURVE",
"232 -140 QCURVE SMOOTH",
"232 -126 LINE",
"295 -126 LINE"
);
}
);
width = 475;
}
);
unicode = 0173;
},
{
glyphname = Uogonek;
layers = (
{
layerId = "70DCFFAA-56DE-41D2-8F07-83204E6B1F0A";
paths = (
{
nodes = (
"88 506 LINE SMOOTH",
"88 536 OFFCURVE",
"59 536 QCURVE SMOOTH",
"29 536 OFFCURVE",
"29 566 QCURVE SMOOTH",
"29 685 LINE",
"178 685 LINE",
"178 400 LINE",
"178 258 LINE SMOOTH",
"178 240 OFFCURVE",
"174 206 OFFCURVE",
"181 188 QCURVE SMOOTH",
"189 167 OFFCURVE",
"214 149 OFFCURVE",
"237 149 QCURVE SMOOTH",
"260 149 OFFCURVE",
"285 167 OFFCURVE",
"293 188 QCURVE SMOOTH",
"300 206 OFFCURVE",
"296 240 OFFCURVE",
"296 258 QCURVE SMOOTH",
"296 400 LINE",
"296 685 LINE",
"445 685 LINE",
"445 358 LINE SMOOTH",
"445 320 OFFCURVE",
"449 239 OFFCURVE",
"440 158 OFFCURVE",
"409 83 OFFCURVE",
"373 52 QCURVE SMOOTH",
"341 23 OFFCURVE",
"262 -2 OFFCURVE",
"183 4 OFFCURVE",
"108 40 OFFCURVE",
"80 73 QCURVE SMOOTH",
"54 103 OFFCURVE",
"32 185 OFFCURVE",
"26 272 OFFCURVE",
"29 355 OFFCURVE",
"29 387 QCURVE SMOOTH",
"29 417 OFFCURVE",
"59 417 QCURVE SMOOTH",
"88 417 OFFCURVE",
"88 447 QCURVE SMOOTH"
);
},
{
nodes = (
"295 -140 LINE SMOOTH",
"295 -159 OFFCURVE",
"280 -194 OFFCURVE",
"256 -219 OFFCURVE",
"224 -234 OFFCURVE",
"206 -234 QCURVE SMOOTH",
"188 -234 OFFCURVE",
"155 -219 OFFCURVE",
"131 -194 OFFCURVE",
"116 -159 OFFCURVE",
"116 -140 QCURVE SMOOTH",
"116 -113 LINE SMOOTH",
"116 -92 OFFCURVE",
"131 -59 OFFCURVE",
"155 -33 OFFCURVE",
"188 -18 OFFCURVE",
"206 -18 QCURVE SMOOTH",
"232 -18 LINE",
"232 33 LINE",
"295 33 LINE",
"295 -86 LINE",
"206 -86 LINE SMOOTH",
"196 -86 OFFCURVE",
"179 -102 OFFCURVE",
"179 -113 QCURVE SMOOTH",
"179 -140 LINE SMOOTH",
"179 -151 OFFCURVE",
"196 -166 OFFCURVE",
"206 -166 QCURVE SMOOTH",
"216 -166 OFFCURVE",
"232 -151 OFFCURVE",
"232 -140 QCURVE SMOOTH",
"232 -126 LINE",
"295 -126 LINE"
);
}
);
width = 475;
}
);
unicode = 0172;
},
{
glyphname = hungarumlaut;
layers = (
{
layerId = "70DCFFAA-56DE-41D2-8F07-83204E6B1F0A";
paths = (
{
nodes = (
"257 864 LINE",
"175 734 LINE",
"74 734 LINE",
"133 864 LINE"
);
},
{
nodes = (
"475 864 LINE",
"390 734 LINE",
"289 734 LINE",
"348 864 LINE"
);
}
);
width = 527;
}
);
unicode = 02DD;
},
{
glyphname = oe;
layers = (
{
layerId = "70DCFFAA-56DE-41D2-8F07-83204E6B1F0A";
paths = (
{
nodes = (
"686 149 LINE",
"686 0 LINE",
"501 0 LINE SMOOTH",
"435 0 OFFCURVE",
"382 37 QCURVE",
"375 41 OFFCURVE",
"369 46 QCURVE",
"368 45 OFFCURVE",
"366 44 QCURVE SMOOTH",
"334 18 OFFCURVE",
"281 6 QCURVE SMOOTH",
"232 -5 OFFCURVE",
"141 18 OFFCURVE",
"70 74 OFFCURVE",
"27 159 OFFCURVE",
"27 209 QCURVE SMOOTH",
"27 387 LINE SMOOTH",
"27 417 OFFCURVE",
"57 417 QCURVE SMOOTH",
"87 417 OFFCURVE",
"87 447 QCURVE SMOOTH",
"87 506 LINE SMOOTH",
"87 536 OFFCURVE",
"57 536 QCURVE SMOOTH",
"35 536 OFFCURVE",
"43 556 QCURVE SMOOTH",
"62 602 OFFCURVE",
"135 664 OFFCURVE",
"222 689 OFFCURVE",
"315 675 OFFCURVE",
"356 646 QCURVE SMOOTH",
"362 641 OFFCURVE",
"368 636 QCURVE",
"376 643 OFFCURVE",
"385 649 QCURVE SMOOTH",
"438 684 OFFCURVE",
"501 684 QCURVE SMOOTH",
"686 684 LINE",
"686 536 LINE",
"501 536 LINE SMOOTH",
"477 536 OFFCURVE",
"451 516 OFFCURVE",
"444 495 QCURVE",
"445 489 OFFCURVE",
"446 483 QCURVE SMOOTH",
"450 450 OFFCURVE",
"450 417 QCURVE",
"650 417 LINE",
"650 268 LINE",
"447 268 LINE",
"446 238 OFFCURVE",
"446 209 QCURVE SMOOTH",
"446 199 OFFCURVE",
"444 190 QCURVE",
"451 168 OFFCURVE",
"464 159 QCURVE SMOOTH",
"477 149 OFFCURVE",
"501 149 QCURVE SMOOTH"
);
},
{
nodes = (
"274 160 OFFCURVE",
"291 180 OFFCURVE",
"294 192 QCURVE SMOOTH",
"295 196 OFFCURVE",
"295 199 QCURVE",
"294 224 OFFCURVE",
"293 252 QCURVE",
"293 387 LINE SMOOTH",
"293 395 OFFCURVE",
"295 401 QCURVE",
"295 476 LINE SMOOTH",
"295 491 OFFCURVE",
"281 517 OFFCURVE",
"258 533 OFFCURVE",
"230 538 OFFCURVE",
"216 533 QCURVE SMOOTH",
"197 526 OFFCURVE",
"180 505 OFFCURVE",
"174 480 OFFCURVE",
"176 451 OFFCURVE",
"176 436 QCURVE SMOOTH",
"176 209 LINE SMOOTH",
"176 194 OFFCURVE",
"190 168 OFFCURVE",
"212 152 OFFCURVE",
"240 148 OFFCURVE",
"255 153 QCURVE SMOOTH"
);
}
);
width = 707;
}
);
unicode = 0153;
},
{
glyphname = OE;
layers = (
{
layerId = "70DCFFAA-56DE-41D2-8F07-83204E6B1F0A";
paths = (
{
nodes = (
"686 149 LINE",
"686 0 LINE",
"501 0 LINE SMOOTH",
"435 0 OFFCURVE",
"382 37 QCURVE",
"375 41 OFFCURVE",
"369 46 QCURVE",
"368 45 OFFCURVE",
"366 44 QCURVE SMOOTH",
"334 18 OFFCURVE",
"281 6 QCURVE SMOOTH",
"232 -5 OFFCURVE",
"141 18 OFFCURVE",
"70 74 OFFCURVE",
"27 159 OFFCURVE",
"27 209 QCURVE SMOOTH",
"27 387 LINE SMOOTH",
"27 417 OFFCURVE",
"57 417 QCURVE SMOOTH",
"87 417 OFFCURVE",
"87 447 QCURVE SMOOTH",
"87 506 LINE SMOOTH",
"87 536 OFFCURVE",
"57 536 QCURVE SMOOTH",
"35 536 OFFCURVE",
"43 556 QCURVE SMOOTH",
"62 602 OFFCURVE",
"135 664 OFFCURVE",
"222 689 OFFCURVE",
"315 675 OFFCURVE",
"356 646 QCURVE SMOOTH",
"362 641 OFFCURVE",
"368 636 QCURVE",
"376 643 OFFCURVE",
"385 649 QCURVE SMOOTH",
"438 684 OFFCURVE",
"501 684 QCURVE SMOOTH",
"686 684 LINE",
"686 536 LINE",
"501 536 LINE SMOOTH",
"477 536 OFFCURVE",
"451 516 OFFCURVE",
"444 495 QCURVE",
"445 489 OFFCURVE",
"446 483 QCURVE SMOOTH",
"450 450 OFFCURVE",
"450 417 QCURVE",
"650 417 LINE",
"650 268 LINE",
"447 268 LINE",
"446 238 OFFCURVE",
"446 209 QCURVE SMOOTH",
"446 199 OFFCURVE",
"444 190 QCURVE",
"451 168 OFFCURVE",
"464 159 QCURVE SMOOTH",
"477 149 OFFCURVE",
"501 149 QCURVE SMOOTH"
);
},
{
nodes = (
"274 160 OFFCURVE",
"291 180 OFFCURVE",
"294 192 QCURVE SMOOTH",
"295 196 OFFCURVE",
"295 199 QCURVE",
"294 224 OFFCURVE",
"293 252 QCURVE",
"293 387 LINE SMOOTH",
"293 395 OFFCURVE",
"295 401 QCURVE",
"295 476 LINE SMOOTH",
"295 491 OFFCURVE",
"281 517 OFFCURVE",
"258 533 OFFCURVE",
"230 538 OFFCURVE",
"216 533 QCURVE SMOOTH",
"197 526 OFFCURVE",
"180 505 OFFCURVE",
"174 480 OFFCURVE",
"176 451 OFFCURVE",
"176 436 QCURVE SMOOTH",
"176 209 LINE SMOOTH",
"176 194 OFFCURVE",
"190 168 OFFCURVE",
"212 152 OFFCURVE",
"240 148 OFFCURVE",
"255 153 QCURVE SMOOTH"
);
}
);
width = 707;
}
);
unicode = 0152;
},
{
glyphname = caron;
layers = (
{
layerId = "70DCFFAA-56DE-41D2-8F07-83204E6B1F0A";
paths = (
{
nodes = (
"236 854 LINE",
"288 776 LINE",
"341 854 LINE",
"459 854 LINE",
"374 724 LINE",
"203 724 LINE",
"118 854 LINE"
);
}
);
width = 564;
}
);
unicode = 02C7;
},
{
glyphname = d;
layers = (
{
layerId = "70DCFFAA-56DE-41D2-8F07-83204E6B1F0A";
paths = (
{
nodes = (
"246 149 LINE SMOOTH",
"277 149 OFFCURVE",
"295 174 QCURVE SMOOTH",
"305 187 OFFCURVE",
"306 214 OFFCURVE",
"306 228 QCURVE SMOOTH",
"306 342 LINE",
"306 455 LINE SMOOTH",
"306 470 OFFCURVE",
"305 496 OFFCURVE",
"295 510 QCURVE SMOOTH",
"277 535 OFFCURVE",
"246 535 QCURVE SMOOTH",
"187 535 LINE",
"187 476 LINE",
"187 446 LINE",
"187 238 LINE",
"187 208 LINE",
"187 149 LINE"
);
},
{
nodes = (
"246 684 LINE SMOOTH",
"306 684 OFFCURVE",
"406 622 OFFCURVE",
"433 569 QCURVE SMOOTH",
"447 540 OFFCURVE",
"460 484 OFFCURVE",
"464 427 OFFCURVE",
"463 371 OFFCURVE",
"463 342 QCURVE SMOOTH",
"463 313 OFFCURVE",
"464 257 OFFCURVE",
"460 200 OFFCURVE",
"447 144 OFFCURVE",
"433 115 QCURVE SMOOTH",
"406 61 OFFCURVE",
"306 0 OFFCURVE",
"246 0 QCURVE SMOOTH",
"187 0 LINE",
"38 0 LINE",
"38 208 LINE",
"38 238 LINE",
"38 449 LINE SMOOTH",
"38 478 OFFCURVE",
"68 478 QCURVE SMOOTH",
"98 478 OFFCURVE",
"98 508 QCURVE SMOOTH",
"98 567 LINE SMOOTH",
"98 597 OFFCURVE",
"68 597 QCURVE SMOOTH",
"38 597 OFFCURVE",
"38 627 QCURVE SMOOTH",
"38 684 LINE",
"187 684 LINE"
);
}
);
width = 486;
}
);
unicode = 0064;
},
{
glyphname = dcroat;
layers = (
{
layerId = "70DCFFAA-56DE-41D2-8F07-83204E6B1F0A";
paths = (
{
nodes = (
"276 149 LINE SMOOTH",
"307 149 OFFCURVE",
"325 174 QCURVE SMOOTH",
"335 187 OFFCURVE",
"336 214 OFFCURVE",
"336 228 QCURVE SMOOTH",
"336 342 LINE",
"336 455 LINE SMOOTH",
"336 470 OFFCURVE",
"335 496 OFFCURVE",
"325 510 QCURVE SMOOTH",
"307 535 OFFCURVE",
"276 535 QCURVE SMOOTH",
"217 535 LINE",
"217 476 LINE",
"217 446 LINE",
"217 238 LINE",
"217 208 LINE",
"217 149 LINE"
);
},
{
nodes = (
"276 684 LINE SMOOTH",
"336 684 OFFCURVE",
"436 622 OFFCURVE",
"463 569 QCURVE SMOOTH",
"477 540 OFFCURVE",
"490 484 OFFCURVE",
"494 427 OFFCURVE",
"493 371 OFFCURVE",
"493 342 QCURVE SMOOTH",
"493 313 OFFCURVE",
"494 257 OFFCURVE",
"490 200 OFFCURVE",
"477 144 OFFCURVE",
"463 115 QCURVE SMOOTH",
"436 61 OFFCURVE",
"336 0 OFFCURVE",
"276 0 QCURVE SMOOTH",
"217 0 LINE",
"68 0 LINE",
"68 208 LINE",
"68 238 LINE",
"68 449 LINE SMOOTH",
"68 478 OFFCURVE",
"98 478 QCURVE SMOOTH",
"128 478 OFFCURVE",
"128 508 QCURVE SMOOTH",
"128 567 LINE SMOOTH",
"128 597 OFFCURVE",
"98 597 QCURVE SMOOTH",
"68 597 OFFCURVE",
"68 627 QCURVE SMOOTH",
"68 684 LINE",
"217 684 LINE"
);
},
{
nodes = (
"259 432 LINE",
"259 284 LINE",
"26 284 LINE",
"26 432 LINE"
);
}
);
width = 522;
}
);
unicode = 0111;
},
{
glyphname = Dcroat;
layers = (
{
layerId = "70DCFFAA-56DE-41D2-8F07-83204E6B1F0A";
paths = (
{
nodes = (
"276 149 LINE SMOOTH",
"307 149 OFFCURVE",
"325 174 QCURVE SMOOTH",
"335 187 OFFCURVE",
"336 214 OFFCURVE",
"336 228 QCURVE SMOOTH",
"336 342 LINE",
"336 455 LINE SMOOTH",
"336 470 OFFCURVE",
"335 496 OFFCURVE",
"325 510 QCURVE SMOOTH",
"307 535 OFFCURVE",
"276 535 QCURVE SMOOTH",
"217 535 LINE",
"217 476 LINE",
"217 446 LINE",
"217 238 LINE",
"217 208 LINE",
"217 149 LINE"
);
},
{
nodes = (
"276 684 LINE SMOOTH",
"336 684 OFFCURVE",
"436 622 OFFCURVE",
"463 569 QCURVE SMOOTH",
"477 540 OFFCURVE",
"490 484 OFFCURVE",
"494 427 OFFCURVE",
"493 371 OFFCURVE",
"493 342 QCURVE SMOOTH",
"493 313 OFFCURVE",
"494 257 OFFCURVE",
"490 200 OFFCURVE",
"477 144 OFFCURVE",
"463 115 QCURVE SMOOTH",
"436 61 OFFCURVE",
"336 0 OFFCURVE",
"276 0 QCURVE SMOOTH",
"217 0 LINE",
"68 0 LINE",
"68 208 LINE",
"68 238 LINE",
"68 449 LINE SMOOTH",
"68 478 OFFCURVE",
"98 478 QCURVE SMOOTH",
"128 478 OFFCURVE",
"128 508 QCURVE SMOOTH",
"128 567 LINE SMOOTH",
"128 597 OFFCURVE",
"98 597 QCURVE SMOOTH",
"68 597 OFFCURVE",
"68 627 QCURVE SMOOTH",
"68 684 LINE",
"217 684 LINE"
);
},
{
nodes = (
"259 432 LINE",
"259 284 LINE",
"26 284 LINE",
"26 432 LINE"
);
}
);
width = 522;
}
);
unicode = 0110;
},
{
glyphname = eth;
layers = (
{
layerId = "70DCFFAA-56DE-41D2-8F07-83204E6B1F0A";
paths = (
{
nodes = (
"276 149 LINE SMOOTH",
"307 149 OFFCURVE",
"325 174 QCURVE SMOOTH",
"335 187 OFFCURVE",
"336 214 OFFCURVE",
"336 228 QCURVE SMOOTH",
"336 342 LINE",
"336 455 LINE SMOOTH",
"336 470 OFFCURVE",
"335 496 OFFCURVE",
"325 510 QCURVE SMOOTH",
"307 535 OFFCURVE",
"276 535 QCURVE SMOOTH",
"217 535 LINE",
"217 476 LINE",
"217 446 LINE",
"217 238 LINE",
"217 208 LINE",
"217 149 LINE"
);
},
{
nodes = (
"276 684 LINE SMOOTH",
"336 684 OFFCURVE",
"436 622 OFFCURVE",
"463 569 QCURVE SMOOTH",
"477 540 OFFCURVE",
"490 484 OFFCURVE",
"494 427 OFFCURVE",
"493 371 OFFCURVE",
"493 342 QCURVE SMOOTH",
"493 313 OFFCURVE",
"494 257 OFFCURVE",
"490 200 OFFCURVE",
"477 144 OFFCURVE",
"463 115 QCURVE SMOOTH",
"436 61 OFFCURVE",
"336 0 OFFCURVE",
"276 0 QCURVE SMOOTH",
"217 0 LINE",
"68 0 LINE",
"68 208 LINE",
"68 238 LINE",
"68 449 LINE SMOOTH",
"68 478 OFFCURVE",
"98 478 QCURVE SMOOTH",
"128 478 OFFCURVE",
"128 508 QCURVE SMOOTH",
"128 567 LINE SMOOTH",
"128 597 OFFCURVE",
"98 597 QCURVE SMOOTH",
"68 597 OFFCURVE",
"68 627 QCURVE SMOOTH",
"68 684 LINE",
"217 684 LINE"
);
},
{
nodes = (
"259 432 LINE",
"259 284 LINE",
"26 284 LINE",
"26 432 LINE"
);
}
);
width = 522;
}
);
unicode = 00F0;
},
{
glyphname = Eth;
layers = (
{
layerId = "70DCFFAA-56DE-41D2-8F07-83204E6B1F0A";
paths = (
{
nodes = (
"276 149 LINE SMOOTH",
"307 149 OFFCURVE",
"325 174 QCURVE SMOOTH",
"335 187 OFFCURVE",
"336 214 OFFCURVE",
"336 228 QCURVE SMOOTH",
"336 342 LINE",
"336 455 LINE SMOOTH",
"336 470 OFFCURVE",
"335 496 OFFCURVE",
"325 510 QCURVE SMOOTH",
"307 535 OFFCURVE",
"276 535 QCURVE SMOOTH",
"217 535 LINE",
"217 476 LINE",
"217 446 LINE",
"217 238 LINE",
"217 208 LINE",
"217 149 LINE"
);
},
{
nodes = (
"276 684 LINE SMOOTH",
"336 684 OFFCURVE",
"436 622 OFFCURVE",
"463 569 QCURVE SMOOTH",
"477 540 OFFCURVE",
"490 484 OFFCURVE",
"494 427 OFFCURVE",
"493 371 OFFCURVE",
"493 342 QCURVE SMOOTH",
"493 313 OFFCURVE",
"494 257 OFFCURVE",
"490 200 OFFCURVE",
"477 144 OFFCURVE",
"463 115 QCURVE SMOOTH",
"436 61 OFFCURVE",
"336 0 OFFCURVE",
"276 0 QCURVE SMOOTH",
"217 0 LINE",
"68 0 LINE",
"68 208 LINE",
"68 238 LINE",
"68 449 LINE SMOOTH",
"68 478 OFFCURVE",
"98 478 QCURVE SMOOTH",
"128 478 OFFCURVE",
"128 508 QCURVE SMOOTH",
"128 567 LINE SMOOTH",
"128 597 OFFCURVE",
"98 597 QCURVE SMOOTH",
"68 597 OFFCURVE",
"68 627 QCURVE SMOOTH",
"68 684 LINE",
"217 684 LINE"
);
},
{
nodes = (
"259 432 LINE",
"259 284 LINE",
"26 284 LINE",
"26 432 LINE"
);
}
);
width = 522;
}
);
unicode = 00D0;
},
{
glyphname = circumflex.case;
layers = (
{
layerId = "70DCFFAA-56DE-41D2-8F07-83204E6B1F0A";
paths = (
{
nodes = (
"178 1024 LINE",
"119 889 LINE",
"5 889 LINE",
"64 1024 LINE"
);
},
{
nodes = (
"324 1024 LINE",
"382 889 LINE",
"268 889 LINE",
"209 1024 LINE"
);
}
);
width = 387;
}
);
},
{
glyphname = breve;
layers = (
{
layerId = "70DCFFAA-56DE-41D2-8F07-83204E6B1F0A";
paths = (
{
nodes = (
"274 821 OFFCURVE",
"285 834 OFFCURVE",
"289 850 OFFCURVE",
"289 859 QCURVE",
"288 863 LINE",
"389 863 LINE",
"388 853 LINE",
"388 824 OFFCURVE",
"373 794 QCURVE SMOOTH",
"357 763 OFFCURVE",
"314 730 OFFCURVE",
"279 722 QCURVE SMOOTH",
"246 715 OFFCURVE",
"186 730 OFFCURVE",
"139 766 OFFCURVE",
"110 820 OFFCURVE",
"110 853 QCURVE SMOOTH",
"110 863 LINE",
"209 863 LINE",
"209 853 LINE SMOOTH",
"209 843 OFFCURVE",
"218 826 OFFCURVE",
"233 816 OFFCURVE",
"251 813 OFFCURVE",
"261 817 QCURVE SMOOTH"
);
}
);
width = 482;
}
);
unicode = 02D8;
},
{
glyphname = iogonek;
layers = (
{
layerId = "70DCFFAA-56DE-41D2-8F07-83204E6B1F0A";
paths = (
{
nodes = (
"96 505 LINE SMOOTH",
"96 535 OFFCURVE",
"66 535 QCURVE SMOOTH",
"37 535 OFFCURVE",
"37 565 QCURVE SMOOTH",
"37 684 LINE",
"185 684 LINE",
"185 416 LINE",
"185 267 LINE",
"185 0 LINE",
"37 0 LINE",
"37 387 LINE SMOOTH",
"37 416 OFFCURVE",
"66 416 QCURVE SMOOTH",
"96 416 OFFCURVE",
"96 446 QCURVE SMOOTH"
);
},
{
nodes = (
"185 -140 LINE SMOOTH",
"185 -159 OFFCURVE",
"170 -194 OFFCURVE",
"146 -219 OFFCURVE",
"114 -234 OFFCURVE",
"96 -234 QCURVE SMOOTH",
"78 -234 OFFCURVE",
"45 -219 OFFCURVE",
"21 -194 OFFCURVE",
"6 -159 OFFCURVE",
"6 -140 QCURVE SMOOTH",
"6 -113 LINE SMOOTH",
"6 -92 OFFCURVE",
"21 -59 OFFCURVE",
"45 -33 OFFCURVE",
"78 -18 OFFCURVE",
"96 -18 QCURVE SMOOTH",
"122 -18 LINE",
"122 33 LINE",
"185 33 LINE",
"185 -86 LINE",
"96 -86 LINE SMOOTH",
"86 -86 OFFCURVE",
"69 -102 OFFCURVE",
"69 -113 QCURVE SMOOTH",
"69 -140 LINE SMOOTH",
"69 -151 OFFCURVE",
"86 -166 OFFCURVE",
"96 -166 QCURVE SMOOTH",
"106 -166 OFFCURVE",
"122 -151 OFFCURVE",
"122 -140 QCURVE SMOOTH",
"122 -126 LINE",
"185 -126 LINE"
);
}
);
width = 224;
}
);
unicode = 012F;
},
{
glyphname = Iogonek;
layers = (
{
layerId = "70DCFFAA-56DE-41D2-8F07-83204E6B1F0A";
paths = (
{
nodes = (
"96 505 LINE SMOOTH",
"96 535 OFFCURVE",
"66 535 QCURVE SMOOTH",
"37 535 OFFCURVE",
"37 565 QCURVE SMOOTH",
"37 684 LINE",
"185 684 LINE",
"185 416 LINE",
"185 267 LINE",
"185 0 LINE",
"37 0 LINE",
"37 387 LINE SMOOTH",
"37 416 OFFCURVE",
"66 416 QCURVE SMOOTH",
"96 416 OFFCURVE",
"96 446 QCURVE SMOOTH"
);
},
{
nodes = (
"185 -140 LINE SMOOTH",
"185 -159 OFFCURVE",
"170 -194 OFFCURVE",
"146 -219 OFFCURVE",
"114 -234 OFFCURVE",
"96 -234 QCURVE SMOOTH",
"78 -234 OFFCURVE",
"45 -219 OFFCURVE",
"21 -194 OFFCURVE",
"6 -159 OFFCURVE",
"6 -140 QCURVE SMOOTH",
"6 -113 LINE SMOOTH",
"6 -92 OFFCURVE",
"21 -59 OFFCURVE",
"45 -33 OFFCURVE",
"78 -18 OFFCURVE",
"96 -18 QCURVE SMOOTH",
"122 -18 LINE",
"122 33 LINE",
"185 33 LINE",
"185 -86 LINE",
"96 -86 LINE SMOOTH",
"86 -86 OFFCURVE",
"69 -102 OFFCURVE",
"69 -113 QCURVE SMOOTH",
"69 -140 LINE SMOOTH",
"69 -151 OFFCURVE",
"86 -166 OFFCURVE",
"96 -166 QCURVE SMOOTH",
"106 -166 OFFCURVE",
"122 -151 OFFCURVE",
"122 -140 QCURVE SMOOTH",
"122 -126 LINE",
"185 -126 LINE"
);
}
);
width = 224;
}
);
unicode = 012E;
},
{
glyphname = multiply;
layers = (
{
layerId = "70DCFFAA-56DE-41D2-8F07-83204E6B1F0A";
paths = (
{
nodes = (
"459 197 LINE",
"354 93 LINE",
"24 423 LINE",
"128 528 LINE"
);
},
{
nodes = (
"353 530 LINE",
"458 426 LINE",
"128 96 LINE",
"23 200 LINE"
);
}
);
width = 484;
}
);
unicode = 00D7;
},
{
glyphname = ring;
layers = (
{
layerId = "70DCFFAA-56DE-41D2-8F07-83204E6B1F0A";
paths = (
{
nodes = (
"183 956 OFFCURVE",
"226 937 OFFCURVE",
"258 906 OFFCURVE",
"277 863 OFFCURVE",
"277 839 QCURVE SMOOTH",
"277 815 OFFCURVE",
"258 772 OFFCURVE",
"226 741 OFFCURVE",
"183 722 OFFCURVE",
"158 722 QCURVE SMOOTH",
"133 722 OFFCURVE",
"90 741 OFFCURVE",
"58 772 OFFCURVE",
"40 815 OFFCURVE",
"40 839 QCURVE SMOOTH",
"40 863 OFFCURVE",
"58 906 OFFCURVE",
"90 937 OFFCURVE",
"133 956 OFFCURVE",
"158 956 QCURVE SMOOTH"
);
},
{
nodes = (
"174 803 OFFCURVE",
"195 824 OFFCURVE",
"195 839 QCURVE SMOOTH",
"195 854 OFFCURVE",
"174 875 OFFCURVE",
"158 875 QCURVE SMOOTH",
"144 875 OFFCURVE",
"122 854 OFFCURVE",
"122 839 QCURVE SMOOTH",
"122 824 OFFCURVE",
"144 803 OFFCURVE",
"158 803 QCURVE SMOOTH"
);
}
);
width = 313;
}
);
unicode = 02DA;
},
{
glyphname = hbar;
layers = (
{
layerId = "70DCFFAA-56DE-41D2-8F07-83204E6B1F0A";
paths = (
{
nodes = (
"125 238 LINE SMOOTH",
"125 268 OFFCURVE",
"96 268 QCURVE SMOOTH",
"66 268 OFFCURVE",
"66 297 QCURVE SMOOTH",
"66 684 LINE",
"214 684 LINE",
"214 326 LINE",
"333 326 LINE",
"333 684 LINE",
"482 684 LINE",
"482 0 LINE",
"333 0 LINE",
"333 177 LINE",
"214 177 LINE",
"214 0 LINE",
"66 0 LINE",
"66 119 LINE SMOOTH",
"66 149 OFFCURVE",
"96 149 QCURVE SMOOTH",
"112 149 OFFCURVE",
"125 162 OFFCURVE",
"125 179 QCURVE SMOOTH"
);
},
{
nodes = (
"534 625 LINE",
"534 486 LINE",
"13 486 LINE",
"13 625 LINE"
);
}
);
width = 550;
}
);
unicode = 0127;
},
{
glyphname = Hbar;
layers = (
{
layerId = "70DCFFAA-56DE-41D2-8F07-83204E6B1F0A";
paths = (
{
nodes = (
"125 238 LINE SMOOTH",
"125 268 OFFCURVE",
"96 268 QCURVE SMOOTH",
"66 268 OFFCURVE",
"66 297 QCURVE SMOOTH",
"66 684 LINE",
"214 684 LINE",
"214 326 LINE",
"333 326 LINE",
"333 684 LINE",
"482 684 LINE",
"482 0 LINE",
"333 0 LINE",
"333 177 LINE",
"214 177 LINE",
"214 0 LINE",
"66 0 LINE",
"66 119 LINE SMOOTH",
"66 149 OFFCURVE",
"96 149 QCURVE SMOOTH",
"112 149 OFFCURVE",
"125 162 OFFCURVE",
"125 179 QCURVE SMOOTH"
);
},
{
nodes = (
"534 625 LINE",
"534 486 LINE",
"13 486 LINE",
"13 625 LINE"
);
}
);
width = 550;
}
);
unicode = 0126;
},
{
glyphname = daggerdbl;
layers = (
{
layerId = "70DCFFAA-56DE-41D2-8F07-83204E6B1F0A";
paths = (
{
nodes = (
"120 766 LINE",
"268 766 LINE",
"268 -81 LINE",
"120 -81 LINE"
);
},
{
nodes = (
"395 542 LINE",
"395 394 LINE",
"-7 394 LINE",
"-7 542 LINE"
);
},
{
nodes = (
"395 338 LINE",
"395 190 LINE",
"-7 190 LINE",
"-7 338 LINE"
);
}
);
width = 387;
}
);
unicode = 2021;
},
{
glyphname = dagger;
layers = (
{
layerId = "70DCFFAA-56DE-41D2-8F07-83204E6B1F0A";
paths = (
{
nodes = (
"134 766 LINE",
"282 766 LINE",
"282 -81 LINE",
"134 -81 LINE"
);
},
{
nodes = (
"404 598 LINE",
"404 450 LINE",
"20 450 LINE",
"20 598 LINE"
);
}
);
width = 428;
}
);
unicode = 2020;
},
{
glyphname = perthousand;
layers = (
{
layerId = "70DCFFAA-56DE-41D2-8F07-83204E6B1F0A";
paths = (
{
nodes = (
"722 425 LINE",
"763 394 OFFCURVE",
"786 312 OFFCURVE",
"786 270 QCURVE SMOOTH",
"786 151 LINE",
"785 118 OFFCURVE",
"766 63 OFFCURVE",
"729 23 OFFCURVE",
"674 0 OFFCURVE",
"638 0 QCURVE SMOOTH",
"609 0 OFFCURVE",
"556 21 OFFCURVE",
"517 59 OFFCURVE",
"494 112 OFFCURVE",
"494 143 QCURVE SMOOTH",
"494 253 LINE SMOOTH",
"494 288 OFFCURVE",
"529 288 QCURVE",
"530 288 OFFCURVE",
"530 289 QCURVE",
"530 326 LINE",
"529 327 LINE",
"490 327 OFFCURVE",
"505 364 QCURVE",
"505 363 LINE",
"522 406 OFFCURVE",
"596 452 OFFCURVE",
"639 452 QCURVE SMOOTH",
"684 452 OFFCURVE",
"722 426 QCURVE"
);
},
{
nodes = (
"646 126 LINE",
"656 129 OFFCURVE",
"659 146 OFFCURVE",
"658 157 QCURVE",
"658 307 LINE SMOOTH",
"658 318 OFFCURVE",
"641 329 OFFCURVE",
"632 326 QCURVE SMOOTH",
"621 322 OFFCURVE",
"617 305 OFFCURVE",
"618 294 QCURVE",
"618 143 LINE SMOOTH",
"618 133 OFFCURVE",
"635 121 OFFCURVE",
"644 126 QCURVE"
);
},
{
nodes = (
"287 627 OFFCURVE",
"310 545 OFFCURVE",
"310 503 QCURVE SMOOTH",
"310 384 LINE SMOOTH",
"310 351 OFFCURVE",
"290 296 OFFCURVE",
"253 255 OFFCURVE",
"198 232 OFFCURVE",
"162 232 QCURVE SMOOTH",
"133 232 OFFCURVE",
"80 254 OFFCURVE",
"41 292 OFFCURVE",
"18 345 OFFCURVE",
"18 376 QCURVE SMOOTH",
"18 485 LINE SMOOTH",
"18 521 OFFCURVE",
"53 521 QCURVE",
"55 521 OFFCURVE",
"55 522 QCURVE",
"55 558 LINE",
"55 560 OFFCURVE",
"53 560 QCURVE",
"13 560 OFFCURVE",
"30 596 QCURVE",
"29 595 LINE",
"46 638 OFFCURVE",
"120 684 OFFCURVE",
"163 684 QCURVE SMOOTH",
"210 684 OFFCURVE",
"246 658 QCURVE SMOOTH"
);
},
{
nodes = (
"170 358 LINE",
"180 362 OFFCURVE",
"183 379 OFFCURVE",
"182 389 QCURVE",
"182 539 LINE SMOOTH",
"182 551 OFFCURVE",
"165 562 OFFCURVE",
"156 559 QCURVE",
"157 559 LINE",
"146 555 OFFCURVE",
"142 537 OFFCURVE",
"143 526 QCURVE",
"143 376 LINE SMOOTH",
"143 366 OFFCURVE",
"159 354 OFFCURVE",
"168 358 QCURVE"
);
},
{
nodes = (
"440 684 LINE",
"572 684 LINE",
"375 0 LINE",
"244 0 LINE"
);
},
{
nodes = (
"1034 425 LINE",
"1075 394 OFFCURVE",
"1098 312 OFFCURVE",
"1098 270 QCURVE SMOOTH",
"1098 151 LINE",
"1097 118 OFFCURVE",
"1078 63 OFFCURVE",
"1041 23 OFFCURVE",
"986 0 OFFCURVE",
"950 0 QCURVE SMOOTH",
"921 0 OFFCURVE",
"868 21 OFFCURVE",
"829 59 OFFCURVE",
"806 112 OFFCURVE",
"806 143 QCURVE SMOOTH",
"806 253 LINE SMOOTH",
"806 288 OFFCURVE",
"841 288 QCURVE",
"842 288 OFFCURVE",
"842 289 QCURVE",
"842 326 LINE",
"841 327 LINE",
"802 327 OFFCURVE",
"817 364 QCURVE",
"817 363 LINE",
"834 406 OFFCURVE",
"908 452 OFFCURVE",
"951 452 QCURVE SMOOTH",
"996 452 OFFCURVE",
"1034 426 QCURVE"
);
},
{
nodes = (
"958 126 LINE",
"968 129 OFFCURVE",
"971 146 OFFCURVE",
"970 157 QCURVE",
"970 307 LINE SMOOTH",
"970 318 OFFCURVE",
"953 329 OFFCURVE",
"944 326 QCURVE SMOOTH",
"933 322 OFFCURVE",
"929 305 OFFCURVE",
"930 294 QCURVE",
"930 143 LINE SMOOTH",
"930 133 OFFCURVE",
"947 121 OFFCURVE",
"956 126 QCURVE"
);
}
);
width = 1124;
}
);
unicode = 2030;
},
{
glyphname = registered;
layers = (
{
layerId = "70DCFFAA-56DE-41D2-8F07-83204E6B1F0A";
paths = (
{
nodes = (
"196 234 OFFCURVE",
"114 270 OFFCURVE",
"53 331 OFFCURVE",
"17 413 OFFCURVE",
"17 460 QCURVE SMOOTH",
"17 507 OFFCURVE",
"53 589 OFFCURVE",
"114 649 OFFCURVE",
"196 684 OFFCURVE",
"243 684 QCURVE SMOOTH",
"290 684 OFFCURVE",
"371 649 OFFCURVE",
"431 589 OFFCURVE",
"466 507 OFFCURVE",
"466 460 QCURVE SMOOTH",
"466 413 OFFCURVE",
"431 331 OFFCURVE",
"371 270 OFFCURVE",
"290 234 OFFCURVE",
"243 234 QCURVE SMOOTH"
);
},
{
nodes = (
"213 600 OFFCURVE",
"162 578 OFFCURVE",
"123 541 OFFCURVE",
"101 490 OFFCURVE",
"101 460 QCURVE SMOOTH",
"101 431 OFFCURVE",
"123 380 OFFCURVE",
"162 341 OFFCURVE",
"213 318 OFFCURVE",
"243 318 QCURVE SMOOTH",
"273 318 OFFCURVE",
"323 341 OFFCURVE",
"361 380 OFFCURVE",
"382 431 OFFCURVE",
"382 460 QCURVE SMOOTH",
"382 490 OFFCURVE",
"361 541 OFFCURVE",
"323 578 OFFCURVE",
"273 600 OFFCURVE",
"243 600 QCURVE SMOOTH"
);
},
{
nodes = (
"224 417 LINE",
"224 397 LINE",
"224 346 LINE",
"174 346 LINE",
"174 417 LINE",
"174 478 LINE SMOOTH",
"174 488 OFFCURVE",
"184 488 QCURVE SMOOTH",
"194 488 OFFCURVE",
"194 498 QCURVE SMOOTH",
"194 518 LINE SMOOTH",
"194 528 OFFCURVE",
"184 528 QCURVE SMOOTH",
"174 528 OFFCURVE",
"174 538 QCURVE SMOOTH",
"174 579 LINE",
"245 579 LINE SMOOTH",
"259 579 OFFCURVE",
"285 568 OFFCURVE",
"304 549 OFFCURVE",
"315 523 OFFCURVE",
"315 508 QCURVE SMOOTH",
"315 495 OFFCURVE",
"307 473 OFFCURVE",
"299 463 QCURVE",
"307 452 OFFCURVE",
"315 431 OFFCURVE",
"315 417 QCURVE SMOOTH",
"315 346 LINE",
"305 346 LINE",
"265 346 LINE",
"265 417 LINE SMOOTH",
"265 426 OFFCURVE",
"253 437 OFFCURVE",
"245 437 QCURVE SMOOTH",
"224 437 LINE"
);
},
{
nodes = (
"245 488 LINE SMOOTH",
"253 488 OFFCURVE",
"265 500 OFFCURVE",
"265 508 QCURVE SMOOTH",
"265 517 OFFCURVE",
"253 528 OFFCURVE",
"245 528 QCURVE SMOOTH",
"224 528 LINE",
"224 508 LINE",
"224 488 LINE"
);
}
);
width = 493;
}
);
unicode = 00AE;
},
{
glyphname = less;
layers = (
{
layerId = "70DCFFAA-56DE-41D2-8F07-83204E6B1F0A";
paths = (
{
nodes = (
"32 471 LINE",
"268 684 LINE",
"475 684 LINE",
"136 378 LINE",
"472 76 LINE",
"264 76 LINE",
"32 285 LINE"
);
}
);
width = 513;
}
);
unicode = 003C;
},
{
glyphname = greater;
layers = (
{
layerId = "70DCFFAA-56DE-41D2-8F07-83204E6B1F0A";
paths = (
{
nodes = (
"475 289 LINE",
"239 76 LINE",
"32 76 LINE",
"371 382 LINE",
"35 684 LINE",
"243 684 LINE",
"475 475 LINE"
);
}
);
width = 513;
}
);
unicode = 003E;
},
{
glyphname = asciicircum;
layers = (
{
layerId = "70DCFFAA-56DE-41D2-8F07-83204E6B1F0A";
paths = (
{
nodes = (
"416 684 LINE",
"629 448 LINE",
"629 241 LINE",
"323 580 LINE",
"21 244 LINE",
"21 452 LINE",
"230 684 LINE"
);
}
);
width = 653;
}
);
unicode = 005E;
},
{
glyphname = dotlessi;
layers = (
{
layerId = "70DCFFAA-56DE-41D2-8F07-83204E6B1F0A";
paths = (
{
nodes = (
"96 505 LINE SMOOTH",
"96 535 OFFCURVE",
"66 535 QCURVE SMOOTH",
"37 535 OFFCURVE",
"37 565 QCURVE SMOOTH",
"37 684 LINE",
"185 684 LINE",
"185 416 LINE",
"185 267 LINE",
"185 0 LINE",
"37 0 LINE",
"37 387 LINE SMOOTH",
"37 416 OFFCURVE",
"66 416 QCURVE SMOOTH",
"96 416 OFFCURVE",
"96 446 QCURVE SMOOTH"
);
}
);
width = 224;
}
);
unicode = 0131;
},
{
glyphname = ampersand;
layers = (
{
layerId = "70DCFFAA-56DE-41D2-8F07-83204E6B1F0A";
paths = (
{
nodes = (
"307 466 LINE",
"455 466 LINE",
"455 0 LINE",
"225 0 LINE SMOOTH",
"159 0 OFFCURVE",
"61 69 OFFCURVE",
"13 172 OFFCURVE",
"23 291 OFFCURVE",
"66 342 QCURVE",
"55 355 OFFCURVE",
"39 381 OFFCURVE",
"33 396 QCURVE SMOOTH",
"25 416 OFFCURVE",
"47 416 QCURVE SMOOTH",
"77 416 OFFCURVE",
"77 446 QCURVE SMOOTH",
"77 506 LINE SMOOTH",
"77 535 OFFCURVE",
"47 535 QCURVE SMOOTH",
"25 535 OFFCURVE",
"33 556 QCURVE",
"55 608 OFFCURVE",
"132 669 OFFCURVE",
"177 679 QCURVE SMOOTH",
"201 684 OFFCURVE",
"226 684 QCURVE",
"226 683 LINE",
"455 683 LINE",
"455 535 LINE",
"224 535 LINE",
"200 534 OFFCURVE",
"183 518 QCURVE SMOOTH",
"166 501 OFFCURVE",
"166 476 QCURVE SMOOTH",
"166 451 OFFCURVE",
"201 416 OFFCURVE",
"225 416 QCURVE SMOOTH",
"307 416 LINE"
);
},
{
nodes = (
"307 267 LINE",
"224 267 LINE",
"224 268 LINE",
"200 267 OFFCURVE",
"183 250 QCURVE SMOOTH",
"166 233 OFFCURVE",
"166 208 QCURVE SMOOTH",
"166 183 OFFCURVE",
"201 149 OFFCURVE",
"225 149 QCURVE",
"226 149 LINE",
"226 148 LINE",
"307 148 LINE"
);
}
);
width = 475;
}
);
unicode = 0026;
},
{
glyphname = numbersign;
layers = (
{
layerId = "70DCFFAA-56DE-41D2-8F07-83204E6B1F0A";
paths = (
{
nodes = (
"646 258 LINE",
"624 153 LINE",
"25 153 LINE",
"47 258 LINE"
);
},
{
nodes = (
"703 523 LINE",
"680 416 LINE",
"81 416 LINE",
"104 523 LINE"
);
},
{
nodes = (
"238 0 LINE",
"132 0 LINE",
"271 656 LINE",
"377 656 LINE"
);
},
{
nodes = (
"463 0 LINE",
"356 0 LINE",
"495 656 LINE",
"602 656 LINE"
);
}
);
width = 720;
}
);
unicode = 0023;
},
{
glyphname = copyright;
layers = (
{
layerId = "70DCFFAA-56DE-41D2-8F07-83204E6B1F0A";
paths = (
{
nodes = (
"170 299 OFFCURVE",
"103 328 OFFCURVE",
"53 378 OFFCURVE",
"25 446 OFFCURVE",
"25 484 QCURVE SMOOTH",
"25 522 OFFCURVE",
"53 589 OFFCURVE",
"103 638 OFFCURVE",
"170 667 OFFCURVE",
"208 667 QCURVE SMOOTH",
"246 667 OFFCURVE",
"314 638 OFFCURVE",
"364 589 OFFCURVE",
"393 522 OFFCURVE",
"393 484 QCURVE SMOOTH",
"393 446 OFFCURVE",
"364 378 OFFCURVE",
"314 328 OFFCURVE",
"246 299 OFFCURVE",
"208 299 QCURVE SMOOTH"
);
},
{
nodes = (
"179 623 OFFCURVE",
"129 601 OFFCURVE",
"91 563 OFFCURVE",
"69 512 OFFCURVE",
"69 484 QCURVE SMOOTH",
"69 455 OFFCURVE",
"91 403 OFFCURVE",
"129 365 OFFCURVE",
"179 343 OFFCURVE",
"208 343 QCURVE SMOOTH",
"237 343 OFFCURVE",
"289 365 OFFCURVE",
"327 403 OFFCURVE",
"349 455 OFFCURVE",
"349 484 QCURVE SMOOTH",
"349 512 OFFCURVE",
"327 563 OFFCURVE",
"289 601 OFFCURVE",
"237 623 OFFCURVE",
"208 623 QCURVE SMOOTH"
);
},
{
nodes = (
"258 449 LINE",
"240 425 OFFCURVE",
"210 425 QCURVE SMOOTH",
"186 425 OFFCURVE",
"151 459 OFFCURVE",
"151 484 QCURVE SMOOTH",
"151 507 OFFCURVE",
"186 541 OFFCURVE",
"210 541 QCURVE SMOOTH",
"239 541 OFFCURVE",
"256 521 QCURVE",
"290 551 LINE",
"276 568 OFFCURVE",
"233 586 OFFCURVE",
"210 586 QCURVE SMOOTH",
"189 586 OFFCURVE",
"151 570 OFFCURVE",
"123 542 OFFCURVE",
"106 505 OFFCURVE",
"106 484 QCURVE SMOOTH",
"106 463 OFFCURVE",
"123 425 OFFCURVE",
"151 396 OFFCURVE",
"189 380 OFFCURVE",
"210 380 QCURVE SMOOTH",
"236 380 OFFCURVE",
"281 404 OFFCURVE",
"295 425 QCURVE"
);
}
);
width = 426;
}
);
unicode = 00A9;
},
{
glyphname = tilde;
layers = (
{
layerId = "70DCFFAA-56DE-41D2-8F07-83204E6B1F0A";
paths = (
{
nodes = (
"387 835 LINE",
"377 815 OFFCURVE",
"354 776 OFFCURVE",
"324 744 OFFCURVE",
"286 724 OFFCURVE",
"262 724 QCURVE SMOOTH",
"240 724 OFFCURVE",
"196 747 OFFCURVE",
"179 758 QCURVE SMOOTH",
"168 765 OFFCURVE",
"152 776 OFFCURVE",
"139 776 OFFCURVE",
"127 764 OFFCURVE",
"120 749 QCURVE SMOOTH",
"118 744 OFFCURVE",
"109 725 OFFCURVE",
"107 721 QCURVE",
"21 757 LINE",
"30 777 OFFCURVE",
"53 817 OFFCURVE",
"84 848 OFFCURVE",
"122 868 OFFCURVE",
"145 868 QCURVE SMOOTH",
"167 868 OFFCURVE",
"210 846 OFFCURVE",
"227 834 QCURVE SMOOTH",
"245 822 OFFCURVE",
"265 817 OFFCURVE",
"280 827 OFFCURVE",
"293 851 OFFCURVE",
"303 868 QCURVE"
);
}
);
width = 419;
}
);
unicode = 02DC;
},
{
glyphname = parenleft;
layers = (
{
layerId = "70DCFFAA-56DE-41D2-8F07-83204E6B1F0A";
paths = (
{
nodes = (
"91 486 OFFCURVE",
"99 522 OFFCURVE",
"104 540 QCURVE SMOOTH",
"114 576 OFFCURVE",
"87 586 QCURVE",
"73 590 OFFCURVE",
"65 614 OFFCURVE",
"73 633 QCURVE SMOOTH",
"102 705 OFFCURVE",
"187 837 OFFCURVE",
"246 896 QCURVE",
"272 870 OFFCURVE",
"324 817 OFFCURVE",
"350 791 QCURVE",
"272 713 OFFCURVE",
"183 523 OFFCURVE",
"172 421 QCURVE",
"162 342 OFFCURVE",
"174 260 QCURVE SMOOTH",
"188 163 OFFCURVE",
"275 -17 OFFCURVE",
"350 -91 QCURVE",
"324 -117 OFFCURVE",
"272 -170 OFFCURVE",
"246 -196 QCURVE",
"184 -135 OFFCURVE",
"95 6 OFFCURVE",
"39 159 OFFCURVE",
"16 319 OFFCURVE",
"21 399 QCURVE SMOOTH",
"24 438 OFFCURVE",
"53 435 QCURVE SMOOTH",
"82 432 OFFCURVE",
"88 468 QCURVE SMOOTH"
);
}
);
width = 205;
}
);
unicode = 0028;
},
{
glyphname = parenright;
layers = (
{
layerId = "70DCFFAA-56DE-41D2-8F07-83204E6B1F0A";
paths = (
{
nodes = (
"251 499 OFFCURVE",
"242 532 QCURVE",
"231 567 OFFCURVE",
"203 557 QCURVE SMOOTH",
"176 548 OFFCURVE",
"164 579 QCURVE SMOOTH",
"141 637 OFFCURVE",
"72 744 OFFCURVE",
"25 791 QCURVE",
"51 817 OFFCURVE",
"103 870 OFFCURVE",
"129 896 QCURVE",
"226 799 OFFCURVE",
"336 564 OFFCURVE",
"350 438 QCURVE SMOOTH",
"362 338 OFFCURVE",
"347 239 QCURVE SMOOTH",
"330 119 OFFCURVE",
"222 -104 OFFCURVE",
"129 -196 QCURVE",
"103 -170 OFFCURVE",
"51 -117 OFFCURVE",
"25 -91 QCURVE",
"125 9 OFFCURVE",
"214 259 OFFCURVE",
"206 390 QCURVE SMOOTH",
"204 421 OFFCURVE",
"232 425 QCURVE",
"263 428 OFFCURVE",
"257 463 QCURVE SMOOTH"
);
}
);
width = 379;
}
);
unicode = 0029;
},
{
glyphname = periodcentered;
layers = (
{
layerId = "70DCFFAA-56DE-41D2-8F07-83204E6B1F0A";
paths = (
{
nodes = (
"40 395 OFFCURVE",
"83 438 OFFCURVE",
"112 438 QCURVE SMOOTH",
"141 438 OFFCURVE",
"184 395 OFFCURVE",
"184 366 QCURVE SMOOTH",
"184 337 OFFCURVE",
"141 294 OFFCURVE",
"112 294 QCURVE SMOOTH",
"83 294 OFFCURVE",
"40 337 OFFCURVE",
"40 366 QCURVE SMOOTH"
);
}
);
width = 218;
}
);
unicode = 00B7;
},
{
glyphname = ldot;
layers = (
{
layerId = "70DCFFAA-56DE-41D2-8F07-83204E6B1F0A";
paths = (
{
nodes = (
"211 335 OFFCURVE",
"254 292 OFFCURVE",
"283 292 QCURVE SMOOTH",
"312 292 OFFCURVE",
"355 335 OFFCURVE",
"355 364 QCURVE SMOOTH",
"355 393 OFFCURVE",
"312 436 OFFCURVE",
"283 436 QCURVE SMOOTH",
"254 436 OFFCURVE",
"211 393 OFFCURVE",
"211 364 QCURVE SMOOTH"
);
},
{
nodes = (
"97 505 LINE SMOOTH",
"97 535 OFFCURVE",
"67 535 QCURVE SMOOTH",
"38 535 OFFCURVE",
"38 565 QCURVE SMOOTH",
"38 684 LINE",
"186 684 LINE",
"186 416 LINE",
"186 267 LINE",
"186 148 LINE",
"335 148 LINE",
"335 0 LINE",
"186 0 LINE",
"38 0 LINE",
"38 386 LINE SMOOTH",
"38 416 OFFCURVE",
"67 416 QCURVE SMOOTH",
"97 416 OFFCURVE",
"97 446 QCURVE SMOOTH"
);
}
);
width = 379;
}
);
unicode = 0140;
},
{
glyphname = Ldot;
layers = (
{
layerId = "70DCFFAA-56DE-41D2-8F07-83204E6B1F0A";
paths = (
{
nodes = (
"211 335 OFFCURVE",
"254 292 OFFCURVE",
"283 292 QCURVE SMOOTH",
"312 292 OFFCURVE",
"355 335 OFFCURVE",
"355 364 QCURVE SMOOTH",
"355 393 OFFCURVE",
"312 436 OFFCURVE",
"283 436 QCURVE SMOOTH",
"254 436 OFFCURVE",
"211 393 OFFCURVE",
"211 364 QCURVE SMOOTH"
);
},
{
nodes = (
"97 505 LINE SMOOTH",
"97 535 OFFCURVE",
"67 535 QCURVE SMOOTH",
"38 535 OFFCURVE",
"38 565 QCURVE SMOOTH",
"38 684 LINE",
"186 684 LINE",
"186 416 LINE",
"186 267 LINE",
"186 148 LINE",
"335 148 LINE",
"335 0 LINE",
"186 0 LINE",
"38 0 LINE",
"38 386 LINE SMOOTH",
"38 416 OFFCURVE",
"67 416 QCURVE SMOOTH",
"97 416 OFFCURVE",
"97 446 QCURVE SMOOTH"
);
}
);
width = 379;
}
);
unicode = 013F;
},
{
glyphname = degree;
layers = (
{
layerId = "70DCFFAA-56DE-41D2-8F07-83204E6B1F0A";
paths = (
{
nodes = (
"149 337 OFFCURVE",
"90 363 OFFCURVE",
"46 407 OFFCURVE",
"20 466 OFFCURVE",
"20 499 QCURVE SMOOTH",
"20 533 OFFCURVE",
"46 592 OFFCURVE",
"90 636 OFFCURVE",
"149 661 OFFCURVE",
"182 661 QCURVE SMOOTH",
"215 661 OFFCURVE",
"274 636 OFFCURVE",
"318 592 OFFCURVE",
"343 533 OFFCURVE",
"343 499 QCURVE SMOOTH",
"343 466 OFFCURVE",
"318 407 OFFCURVE",
"274 363 OFFCURVE",
"215 337 OFFCURVE",
"182 337 QCURVE SMOOTH"
);
},
{
nodes = (
"163 592 OFFCURVE",
"129 578 OFFCURVE",
"103 552 OFFCURVE",
"88 518 OFFCURVE",
"88 499 QCURVE SMOOTH",
"88 479 OFFCURVE",
"103 445 OFFCURVE",
"129 420 OFFCURVE",
"163 405 OFFCURVE",
"182 405 QCURVE SMOOTH",
"221 405 OFFCURVE",
"275 460 OFFCURVE",
"275 499 QCURVE SMOOTH",
"275 538 OFFCURVE",
"221 592 OFFCURVE",
"182 592 QCURVE SMOOTH"
);
}
);
width = 366;
}
);
unicode = 00B0;
},
{
glyphname = braceright;
layers = (
{
layerId = "70DCFFAA-56DE-41D2-8F07-83204E6B1F0A";
paths = (
{
nodes = (
"197 -91 OFFCURVE",
"144 -146 OFFCURVE",
"78 -178 OFFCURVE",
"41 -181 QCURVE SMOOTH",
"28 -182 OFFCURVE",
"14 -182 QCURVE",
"14 -34 LINE",
"21 -34 OFFCURVE",
"29 -33 QCURVE SMOOTH",
"51 -30 OFFCURVE",
"66 -13 QCURVE SMOOTH",
"73 -5 OFFCURVE",
"79 45 OFFCURVE",
"81 101 OFFCURVE",
"80 498 OFFCURVE",
"80 506 QCURVE SMOOTH",
"80 594 LINE SMOOTH",
"80 616 OFFCURVE",
"83 658 OFFCURVE",
"66 678 QCURVE SMOOTH",
"51 696 OFFCURVE",
"29 699 QCURVE SMOOTH",
"21 700 OFFCURVE",
"14 700 QCURVE",
"14 849 LINE",
"54 850 OFFCURVE",
"93 835 QCURVE SMOOTH",
"145 815 OFFCURVE",
"215 731 OFFCURVE",
"225 677 QCURVE SMOOTH",
"230 650 OFFCURVE",
"229 596 OFFCURVE",
"229 569 QCURVE SMOOTH",
"229 442 LINE",
"341 337 LINE",
"229 235 LINE",
"229 123 LINE",
"234 5 OFFCURVE",
"212 -55 QCURVE"
);
}
);
width = 370;
}
);
unicode = 007D;
},
{
glyphname = braceleft;
layers = (
{
layerId = "70DCFFAA-56DE-41D2-8F07-83204E6B1F0A";
paths = (
{
nodes = (
"158 759 OFFCURVE",
"211 814 OFFCURVE",
"277 846 OFFCURVE",
"314 849 QCURVE SMOOTH",
"327 850 OFFCURVE",
"341 850 QCURVE",
"341 702 LINE",
"334 702 OFFCURVE",
"326 701 QCURVE SMOOTH",
"304 698 OFFCURVE",
"289 681 QCURVE SMOOTH",
"282 673 OFFCURVE",
"276 623 OFFCURVE",
"274 567 OFFCURVE",
"275 170 OFFCURVE",
"275 162 QCURVE SMOOTH",
"275 74 LINE SMOOTH",
"275 52 OFFCURVE",
"272 10 OFFCURVE",
"289 -10 QCURVE SMOOTH",
"304 -28 OFFCURVE",
"326 -31 QCURVE SMOOTH",
"334 -32 OFFCURVE",
"341 -32 QCURVE",
"341 -181 LINE",
"301 -182 OFFCURVE",
"262 -167 QCURVE SMOOTH",
"210 -147 OFFCURVE",
"140 -63 OFFCURVE",
"130 -9 QCURVE SMOOTH",
"125 18 OFFCURVE",
"126 72 OFFCURVE",
"126 99 QCURVE SMOOTH",
"126 226 LINE",
"14 331 LINE",
"126 433 LINE",
"126 545 LINE",
"121 663 OFFCURVE",
"143 723 QCURVE"
);
}
);
width = 370;
}
);
unicode = 007B;
},
{
glyphname = Lslash;
layers = (
{
layerId = "70DCFFAA-56DE-41D2-8F07-83204E6B1F0A";
paths = (
{
nodes = (
"330 399 LINE",
"330 251 LINE",
"13 158 LINE",
"13 306 LINE"
);
},
{
nodes = (
"123 505 LINE SMOOTH",
"123 535 OFFCURVE",
"93 535 QCURVE SMOOTH",
"64 535 OFFCURVE",
"64 565 QCURVE SMOOTH",
"64 684 LINE",
"212 684 LINE",
"212 416 LINE",
"212 267 LINE",
"212 148 LINE",
"361 148 LINE",
"361 0 LINE",
"212 0 LINE",
"64 0 LINE",
"64 386 LINE SMOOTH",
"64 416 OFFCURVE",
"93 416 QCURVE SMOOTH",
"123 416 OFFCURVE",
"123 446 QCURVE SMOOTH"
);
}
);
width = 384;
}
);
unicode = 0141;
},
{
glyphname = lslash;
layers = (
{
layerId = "70DCFFAA-56DE-41D2-8F07-83204E6B1F0A";
paths = (
{
nodes = (
"330 399 LINE",
"330 251 LINE",
"13 158 LINE",
"13 306 LINE"
);
},
{
nodes = (
"123 505 LINE SMOOTH",
"123 535 OFFCURVE",
"93 535 QCURVE SMOOTH",
"64 535 OFFCURVE",
"64 565 QCURVE SMOOTH",
"64 684 LINE",
"212 684 LINE",
"212 416 LINE",
"212 267 LINE",
"212 148 LINE",
"361 148 LINE",
"361 0 LINE",
"212 0 LINE",
"64 0 LINE",
"64 386 LINE SMOOTH",
"64 416 OFFCURVE",
"93 416 QCURVE SMOOTH",
"123 416 OFFCURVE",
"123 446 QCURVE SMOOTH"
);
}
);
width = 384;
}
);
unicode = 0142;
},
{
glyphname = asciitilde;
layers = (
{
layerId = "70DCFFAA-56DE-41D2-8F07-83204E6B1F0A";
paths = (
{
nodes = (
"622 430 LINE",
"606 387 LINE SMOOTH",
"604 383 OFFCURVE",
"588 349 OFFCURVE",
"558 306 OFFCURVE",
"514 265 OFFCURVE",
"484 253 QCURVE SMOOTH",
"480 251 OFFCURVE",
"473 250 OFFCURVE",
"470 248 QCURVE",
"461 246 OFFCURVE",
"444 244 OFFCURVE",
"435 244 QCURVE SMOOTH",
"413 244 OFFCURVE",
"369 255 OFFCURVE",
"344 266 QCURVE SMOOTH",
"321 277 OFFCURVE",
"287 299 OFFCURVE",
"285 301 QCURVE",
"284 302 OFFCURVE",
"263 316 OFFCURVE",
"247 323 QCURVE SMOOTH",
"232 330 OFFCURVE",
"214 333 OFFCURVE",
"211 333 QCURVE SMOOTH",
"208 333 LINE",
"193 327 OFFCURVE",
"176 302 QCURVE SMOOTH",
"168 291 OFFCURVE",
"160 273 OFFCURVE",
"159 272 QCURVE",
"143 229 LINE",
"23 277 LINE",
"40 319 LINE",
"41 323 OFFCURVE",
"58 357 OFFCURVE",
"88 400 OFFCURVE",
"132 441 OFFCURVE",
"162 453 QCURVE SMOOTH",
"184 462 OFFCURVE",
"211 462 QCURVE SMOOTH",
"232 462 OFFCURVE",
"277 451 OFFCURVE",
"302 440 QCURVE SMOOTH",
"326 429 OFFCURVE",
"359 407 OFFCURVE",
"361 405 QCURVE",
"362 404 OFFCURVE",
"383 391 OFFCURVE",
"399 384 QCURVE",
"414 376 OFFCURVE",
"431 374 OFFCURVE",
"435 374 QCURVE SMOOTH",
"438 374 LINE",
"453 380 OFFCURVE",
"471 405 QCURVE SMOOTH",
"479 416 OFFCURVE",
"486 433 OFFCURVE",
"487 434 QCURVE",
"503 477 LINE"
);
}
);
width = 640;
}
);
unicode = 007E;
},
{
glyphname = Thorn;
layers = (
{
layerId = "70DCFFAA-56DE-41D2-8F07-83204E6B1F0A";
paths = (
{
nodes = (
"245 561 LINE SMOOTH",
"288 561 OFFCURVE",
"364 528 OFFCURVE",
"420 472 OFFCURVE",
"453 396 OFFCURVE",
"453 353 QCURVE SMOOTH",
"453 310 OFFCURVE",
"420 234 OFFCURVE",
"364 178 OFFCURVE",
"288 145 OFFCURVE",
"245 145 QCURVE SMOOTH",
"186 145 LINE",
"186 119 LINE",
"185 119 LINE",
"185 0 LINE",
"37 0 LINE",
"37 387 LINE SMOOTH",
"37 416 OFFCURVE",
"66 416 QCURVE SMOOTH",
"96 416 OFFCURVE",
"96 446 QCURVE SMOOTH",
"96 505 LINE SMOOTH",
"96 535 OFFCURVE",
"66 535 QCURVE SMOOTH",
"37 535 OFFCURVE",
"37 565 QCURVE SMOOTH",
"37 684 LINE",
"185 684 LINE",
"185 561 LINE"
);
},
{
nodes = (
"305 378 OFFCURVE",
"270 412 OFFCURVE",
"245 412 QCURVE SMOOTH",
"186 412 LINE",
"186 294 LINE",
"245 294 LINE SMOOTH",
"270 294 OFFCURVE",
"305 328 OFFCURVE",
"305 353 QCURVE SMOOTH"
);
}
);
width = 474;
}
);
unicode = 00DE;
},
{
glyphname = thorn;
layers = (
{
layerId = "70DCFFAA-56DE-41D2-8F07-83204E6B1F0A";
paths = (
{
nodes = (
"245 561 LINE SMOOTH",
"288 561 OFFCURVE",
"364 528 OFFCURVE",
"420 472 OFFCURVE",
"453 396 OFFCURVE",
"453 353 QCURVE SMOOTH",
"453 310 OFFCURVE",
"420 234 OFFCURVE",
"364 178 OFFCURVE",
"288 145 OFFCURVE",
"245 145 QCURVE SMOOTH",
"186 145 LINE",
"186 119 LINE",
"185 119 LINE",
"185 0 LINE",
"37 0 LINE",
"37 387 LINE SMOOTH",
"37 416 OFFCURVE",
"66 416 QCURVE SMOOTH",
"96 416 OFFCURVE",
"96 446 QCURVE SMOOTH",
"96 505 LINE SMOOTH",
"96 535 OFFCURVE",
"66 535 QCURVE SMOOTH",
"37 535 OFFCURVE",
"37 565 QCURVE SMOOTH",
"37 684 LINE",
"185 684 LINE",
"185 561 LINE"
);
},
{
nodes = (
"305 378 OFFCURVE",
"270 412 OFFCURVE",
"245 412 QCURVE SMOOTH",
"186 412 LINE",
"186 294 LINE",
"245 294 LINE SMOOTH",
"270 294 OFFCURVE",
"305 328 OFFCURVE",
"305 353 QCURVE SMOOTH"
);
}
);
width = 474;
}
);
unicode = 00FE;
},
{
glyphname = brokenbar;
layers = (
{
layerId = "70DCFFAA-56DE-41D2-8F07-83204E6B1F0A";
paths = (
{
nodes = (
"147 -81 LINE",
"147 193 LINE",
"295 193 LINE",
"295 -81 LINE"
);
},
{
nodes = (
"147 766 LINE",
"295 766 LINE",
"295 514 LINE",
"147 514 LINE"
);
}
);
width = 430;
}
);
unicode = 00A6;
},
{
glyphname = guillemotright;
layers = (
{
layerId = "70DCFFAA-56DE-41D2-8F07-83204E6B1F0A";
paths = (
{
nodes = (
"400 255 LINE",
"398 238 OFFCURVE",
"380 196 OFFCURVE",
"365 186 QCURVE SMOOTH",
"70 0 LINE",
"36 84 LINE",
"309 264 LINE",
"36 444 LINE",
"70 528 LINE",
"365 342 LINE SMOOTH",
"380 333 OFFCURVE",
"399 290 OFFCURVE",
"401 273 QCURVE"
);
},
{
nodes = (
"699 255 LINE",
"697 238 OFFCURVE",
"679 196 OFFCURVE",
"664 186 QCURVE SMOOTH",
"369 0 LINE",
"335 84 LINE",
"608 264 LINE",
"335 444 LINE",
"369 528 LINE",
"664 342 LINE SMOOTH",
"679 333 OFFCURVE",
"698 290 OFFCURVE",
"700 273 QCURVE"
);
}
);
width = 744;
}
);
unicode = 00BB;
},
{
glyphname = guillemotleft;
layers = (
{
layerId = "70DCFFAA-56DE-41D2-8F07-83204E6B1F0A";
paths = (
{
nodes = (
"336 273 LINE",
"338 290 OFFCURVE",
"356 332 OFFCURVE",
"371 342 QCURVE SMOOTH",
"666 528 LINE",
"700 444 LINE",
"427 264 LINE",
"700 84 LINE",
"666 0 LINE",
"371 186 LINE SMOOTH",
"356 195 OFFCURVE",
"337 238 OFFCURVE",
"335 255 QCURVE"
);
},
{
nodes = (
"37 273 LINE",
"39 290 OFFCURVE",
"57 332 OFFCURVE",
"72 342 QCURVE SMOOTH",
"367 528 LINE",
"401 444 LINE",
"128 264 LINE",
"401 84 LINE",
"367 0 LINE",
"72 186 LINE SMOOTH",
"57 195 OFFCURVE",
"38 238 OFFCURVE",
"36 255 QCURVE"
);
}
);
width = 744;
}
);
unicode = 00AB;
},
{
glyphname = Idotaccent;
layers = (
{
layerId = "70DCFFAA-56DE-41D2-8F07-83204E6B1F0A";
paths = (
{
nodes = (
"96 505 LINE SMOOTH",
"96 535 OFFCURVE",
"66 535 QCURVE SMOOTH",
"37 535 OFFCURVE",
"37 565 QCURVE SMOOTH",
"37 684 LINE",
"185 684 LINE",
"185 416 LINE",
"185 267 LINE",
"185 0 LINE",
"37 0 LINE",
"37 387 LINE SMOOTH",
"37 416 OFFCURVE",
"66 416 QCURVE SMOOTH",
"96 416 OFFCURVE",
"96 446 QCURVE SMOOTH"
);
},
{
nodes = (
"40 833 OFFCURVE",
"83 876 OFFCURVE",
"112 876 QCURVE SMOOTH",
"141 876 OFFCURVE",
"184 833 OFFCURVE",
"184 804 QCURVE SMOOTH",
"184 775 OFFCURVE",
"141 732 OFFCURVE",
"112 732 QCURVE SMOOTH",
"83 732 OFFCURVE",
"40 775 OFFCURVE",
"40 804 QCURVE SMOOTH"
);
}
);
width = 224;
}
);
unicode = 0130;
},
{
glyphname = Dcaron;
layers = (
{
layerId = "70DCFFAA-56DE-41D2-8F07-83204E6B1F0A";
paths = (
{
nodes = (
"246 149 LINE SMOOTH",
"277 149 OFFCURVE",
"295 174 QCURVE SMOOTH",
"305 187 OFFCURVE",
"306 214 OFFCURVE",
"306 228 QCURVE SMOOTH",
"306 342 LINE",
"306 455 LINE SMOOTH",
"306 470 OFFCURVE",
"305 496 OFFCURVE",
"295 510 QCURVE SMOOTH",
"277 535 OFFCURVE",
"246 535 QCURVE SMOOTH",
"187 535 LINE",
"187 476 LINE",
"187 446 LINE",
"187 238 LINE",
"187 208 LINE",
"187 149 LINE"
);
},
{
nodes = (
"246 684 LINE SMOOTH",
"306 684 OFFCURVE",
"406 622 OFFCURVE",
"433 569 QCURVE SMOOTH",
"447 540 OFFCURVE",
"460 484 OFFCURVE",
"464 427 OFFCURVE",
"463 371 OFFCURVE",
"463 342 QCURVE SMOOTH",
"463 313 OFFCURVE",
"464 257 OFFCURVE",
"460 200 OFFCURVE",
"447 144 OFFCURVE",
"433 115 QCURVE SMOOTH",
"406 61 OFFCURVE",
"306 0 OFFCURVE",
"246 0 QCURVE SMOOTH",
"187 0 LINE",
"38 0 LINE",
"38 208 LINE",
"38 238 LINE",
"38 449 LINE SMOOTH",
"38 478 OFFCURVE",
"68 478 QCURVE SMOOTH",
"98 478 OFFCURVE",
"98 508 QCURVE SMOOTH",
"98 567 LINE SMOOTH",
"98 597 OFFCURVE",
"68 597 QCURVE SMOOTH",
"38 597 OFFCURVE",
"38 627 QCURVE SMOOTH",
"38 684 LINE",
"187 684 LINE"
);
},
{
nodes = (
"196 854 LINE",
"248 776 LINE",
"301 854 LINE",
"419 854 LINE",
"334 724 LINE",
"163 724 LINE",
"78 854 LINE"
);
}
);
width = 486;
}
);
unicode = 010E;
},
{
glyphname = quotedblbase;
layers = (
{
layerId = "70DCFFAA-56DE-41D2-8F07-83204E6B1F0A";
paths = (
{
nodes = (
"186 148 LINE",
"186 -71 LINE",
"37 -71 LINE",
"37 148 LINE"
);
},
{
nodes = (
"385 148 LINE",
"385 -71 LINE",
"236 -71 LINE",
"236 148 LINE"
);
}
);
width = 422;
}
);
unicode = 201E;
},
{
glyphname = quotedblright;
layers = (
{
layerId = "70DCFFAA-56DE-41D2-8F07-83204E6B1F0A";
paths = (
{
nodes = (
"188 684 LINE",
"188 465 LINE",
"39 465 LINE",
"39 684 LINE"
);
},
{
nodes = (
"387 684 LINE",
"387 465 LINE",
"238 465 LINE",
"238 684 LINE"
);
}
);
width = 422;
}
);
unicode = 201D;
},
{
glyphname = quotedblleft;
layers = (
{
layerId = "70DCFFAA-56DE-41D2-8F07-83204E6B1F0A";
paths = (
{
nodes = (
"188 684 LINE",
"188 465 LINE",
"39 465 LINE",
"39 684 LINE"
);
},
{
nodes = (
"387 684 LINE",
"387 465 LINE",
"238 465 LINE",
"238 684 LINE"
);
}
);
width = 422;
}
);
unicode = 201C;
},
{
glyphname = quotesinglbase;
layers = (
{
layerId = "70DCFFAA-56DE-41D2-8F07-83204E6B1F0A";
paths = (
{
nodes = (
"183 243 LINE",
"183 24 LINE",
"34 24 LINE",
"34 243 LINE"
);
}
);
width = 422;
}
);
unicode = 201A;
},
{
glyphname = quoteright;
layers = (
{
layerId = "70DCFFAA-56DE-41D2-8F07-83204E6B1F0A";
paths = (
{
nodes = (
"188 684 LINE",
"188 465 LINE",
"39 465 LINE",
"39 684 LINE"
);
}
);
width = 222;
}
);
unicode = 2019;
},
{
glyphname = quoteleft;
layers = (
{
layerId = "70DCFFAA-56DE-41D2-8F07-83204E6B1F0A";
paths = (
{
nodes = (
"188 684 LINE",
"188 465 LINE",
"39 465 LINE",
"39 684 LINE"
);
}
);
width = 222;
}
);
unicode = 2018;
},
{
glyphname = plusminus;
layers = (
{
layerId = "70DCFFAA-56DE-41D2-8F07-83204E6B1F0A";
paths = (
{
nodes = (
"388 375 LINE",
"388 263 LINE",
"35 263 LINE",
"35 375 LINE"
);
},
{
nodes = (
"153 496 LINE",
"265 496 LINE",
"265 143 LINE",
"153 143 LINE"
);
},
{
nodes = (
"388 112 LINE",
"388 0 LINE",
"35 0 LINE",
"35 112 LINE"
);
}
);
width = 419;
}
);
unicode = 00B1;
},
{
glyphname = uni02C9;
layers = (
{
layerId = "70DCFFAA-56DE-41D2-8F07-83204E6B1F0A";
paths = (
{
nodes = (
"424 853 LINE",
"424 732 LINE",
"130 732 LINE",
"130 853 LINE"
);
}
);
width = 590;
}
);
unicode = 02C9;
},
{
glyphname = Tcaron;
layers = (
{
layerId = "70DCFFAA-56DE-41D2-8F07-83204E6B1F0A";
paths = (
{
nodes = (
"190 505 LINE SMOOTH",
"190 535 OFFCURVE",
"160 535 QCURVE SMOOTH",
"12 535 LINE",
"12 684 LINE",
"131 684 LINE",
"160 684 LINE",
"250 684 LINE",
"279 684 LINE",
"398 684 LINE",
"398 535 LINE",
"279 535 LINE",
"279 416 LINE",
"279 267 LINE",
"279 0 LINE",
"131 0 LINE",
"131 386 LINE SMOOTH",
"131 416 OFFCURVE",
"160 416 QCURVE SMOOTH",
"190 416 OFFCURVE",
"190 446 QCURVE SMOOTH"
);
},
{
nodes = (
"169 854 LINE",
"221 776 LINE",
"274 854 LINE",
"392 854 LINE",
"307 724 LINE",
"136 724 LINE",
"51 854 LINE"
);
}
);
width = 415;
}
);
unicode = 0164;
},
{
glyphname = tbar;
layers = (
{
layerId = "70DCFFAA-56DE-41D2-8F07-83204E6B1F0A";
paths = (
{
nodes = (
"363 479 LINE",
"363 358 LINE",
"69 358 LINE",
"69 479 LINE"
);
},
{
nodes = (
"190 505 LINE SMOOTH",
"190 535 OFFCURVE",
"160 535 QCURVE SMOOTH",
"12 535 LINE",
"12 684 LINE",
"131 684 LINE",
"160 684 LINE",
"250 684 LINE",
"279 684 LINE",
"398 684 LINE",
"398 535 LINE",
"279 535 LINE",
"279 416 LINE",
"279 267 LINE",
"279 0 LINE",
"131 0 LINE",
"131 386 LINE SMOOTH",
"131 416 OFFCURVE",
"160 416 QCURVE SMOOTH",
"190 416 OFFCURVE",
"190 446 QCURVE SMOOTH"
);
}
);
width = 415;
}
);
unicode = 0167;
},
{
glyphname = Tbar;
layers = (
{
layerId = "70DCFFAA-56DE-41D2-8F07-83204E6B1F0A";
paths = (
{
nodes = (
"363 479 LINE",
"363 358 LINE",
"69 358 LINE",
"69 479 LINE"
);
},
{
nodes = (
"190 505 LINE SMOOTH",
"190 535 OFFCURVE",
"160 535 QCURVE SMOOTH",
"12 535 LINE",
"12 684 LINE",
"131 684 LINE",
"160 684 LINE",
"250 684 LINE",
"279 684 LINE",
"398 684 LINE",
"398 535 LINE",
"279 535 LINE",
"279 416 LINE",
"279 267 LINE",
"279 0 LINE",
"131 0 LINE",
"131 386 LINE SMOOTH",
"131 416 OFFCURVE",
"160 416 QCURVE SMOOTH",
"190 416 OFFCURVE",
"190 446 QCURVE SMOOTH"
);
}
);
width = 415;
}
);
unicode = 0166;
},
{
glyphname = uni0237;
layers = (
{
layerId = "70DCFFAA-56DE-41D2-8F07-83204E6B1F0A";
paths = (
{
nodes = (
"181 -24 LINE",
"148 -243 LINE",
"66 -243 LINE",
"68 -160 LINE",
"32 -150 LINE",
"32 -24 LINE"
);
}
);
width = 214;
}
);
unicode = 0237;
},
{
glyphname = uni021B;
layers = (
{
layerId = "70DCFFAA-56DE-41D2-8F07-83204E6B1F0A";
paths = (
{
nodes = (
"190 505 LINE SMOOTH",
"190 535 OFFCURVE",
"160 535 QCURVE SMOOTH",
"12 535 LINE",
"12 684 LINE",
"131 684 LINE",
"160 684 LINE",
"250 684 LINE",
"279 684 LINE",
"398 684 LINE",
"398 535 LINE",
"279 535 LINE",
"279 416 LINE",
"279 267 LINE",
"279 0 LINE",
"131 0 LINE",
"131 386 LINE SMOOTH",
"131 416 OFFCURVE",
"160 416 QCURVE SMOOTH",
"190 416 OFFCURVE",
"190 446 QCURVE SMOOTH"
);
},
{
nodes = (
"278 -40 LINE",
"245 -259 LINE",
"163 -259 LINE",
"165 -176 LINE",
"129 -166 LINE",
"129 -40 LINE"
);
}
);
width = 415;
}
);
unicode = 021B;
},
{
glyphname = uni021A;
layers = (
{
layerId = "70DCFFAA-56DE-41D2-8F07-83204E6B1F0A";
paths = (
{
nodes = (
"190 505 LINE SMOOTH",
"190 535 OFFCURVE",
"160 535 QCURVE SMOOTH",
"12 535 LINE",
"12 684 LINE",
"131 684 LINE",
"160 684 LINE",
"250 684 LINE",
"279 684 LINE",
"398 684 LINE",
"398 535 LINE",
"279 535 LINE",
"279 416 LINE",
"279 267 LINE",
"279 0 LINE",
"131 0 LINE",
"131 386 LINE SMOOTH",
"131 416 OFFCURVE",
"160 416 QCURVE SMOOTH",
"190 416 OFFCURVE",
"190 446 QCURVE SMOOTH"
);
},
{
nodes = (
"278 -40 LINE",
"245 -259 LINE",
"163 -259 LINE",
"165 -176 LINE",
"129 -166 LINE",
"129 -40 LINE"
);
}
);
width = 415;
}
);
unicode = 021A;
},
{
glyphname = lcaron;
layers = (
{
layerId = "70DCFFAA-56DE-41D2-8F07-83204E6B1F0A";
paths = (
{
nodes = (
"368 684 LINE",
"335 465 LINE",
"253 465 LINE",
"255 548 LINE",
"219 558 LINE",
"219 684 LINE"
);
},
{
nodes = (
"97 505 LINE SMOOTH",
"97 535 OFFCURVE",
"67 535 QCURVE SMOOTH",
"38 535 OFFCURVE",
"38 565 QCURVE SMOOTH",
"38 684 LINE",
"186 684 LINE",
"186 416 LINE",
"186 267 LINE",
"186 148 LINE",
"335 148 LINE",
"335 0 LINE",
"186 0 LINE",
"38 0 LINE",
"38 386 LINE SMOOTH",
"38 416 OFFCURVE",
"67 416 QCURVE SMOOTH",
"97 416 OFFCURVE",
"97 446 QCURVE SMOOTH"
);
}
);
width = 379;
}
);
unicode = 013E;
},
{
glyphname = ellipsis;
layers = (
{
layerId = "70DCFFAA-56DE-41D2-8F07-83204E6B1F0A";
paths = (
{
nodes = (
"186 148 LINE",
"186 0 LINE",
"37 0 LINE",
"37 148 LINE"
);
},
{
nodes = (
"405 148 LINE",
"405 0 LINE",
"256 0 LINE",
"256 148 LINE"
);
},
{
nodes = (
"624 148 LINE",
"624 0 LINE",
"475 0 LINE",
"475 148 LINE"
);
}
);
width = 657;
}
);
unicode = 2026;
},
{
glyphname = guilsinglleft;
layers = (
{
layerId = "70DCFFAA-56DE-41D2-8F07-83204E6B1F0A";
paths = (
{
nodes = (
"37 273 LINE",
"39 290 OFFCURVE",
"57 332 OFFCURVE",
"72 342 QCURVE SMOOTH",
"367 528 LINE",
"401 444 LINE",
"128 264 LINE",
"401 84 LINE",
"367 0 LINE",
"72 186 LINE SMOOTH",
"57 195 OFFCURVE",
"38 238 OFFCURVE",
"36 255 QCURVE"
);
}
);
width = 435;
}
);
unicode = 2039;
},
{
glyphname = guilsinglright;
layers = (
{
layerId = "70DCFFAA-56DE-41D2-8F07-83204E6B1F0A";
paths = (
{
nodes = (
"400 255 LINE",
"398 238 OFFCURVE",
"380 196 OFFCURVE",
"365 186 QCURVE SMOOTH",
"70 0 LINE",
"36 84 LINE",
"309 264 LINE",
"36 444 LINE",
"70 528 LINE",
"365 342 LINE SMOOTH",
"380 333 OFFCURVE",
"399 290 OFFCURVE",
"401 273 QCURVE"
);
}
);
width = 435;
}
);
unicode = 203A;
},
{
glyphname = Euro;
layers = (
{
layerId = "70DCFFAA-56DE-41D2-8F07-83204E6B1F0A";
paths = (
{
nodes = (
"292 429 LINE",
"292 363 LINE",
"23 363 LINE",
"23 429 LINE"
);
},
{
nodes = (
"292 329 LINE",
"292 263 LINE",
"23 263 LINE",
"23 329 LINE"
);
},
{
nodes = (
"138 506 LINE SMOOTH",
"138 536 OFFCURVE",
"108 536 QCURVE SMOOTH",
"85 536 OFFCURVE",
"95 557 QCURVE",
"110 593 OFFCURVE",
"163 648 OFFCURVE",
"229 680 OFFCURVE",
"304 687 OFFCURVE",
"342 677 QCURVE SMOOTH",
"384 665 OFFCURVE",
"443 621 OFFCURVE",
"479 560 OFFCURVE",
"495 487 OFFCURVE",
"495 447 QCURVE",
"346 447 LINE",
"346 470 OFFCURVE",
"343 509 OFFCURVE",
"320 526 QCURVE SMOOTH",
"301 539 OFFCURVE",
"256 532 OFFCURVE",
"241 515 QCURVE SMOOTH",
"234 507 OFFCURVE",
"228 457 OFFCURVE",
"226 401 OFFCURVE",
"227 351 OFFCURVE",
"227 343 QCURVE SMOOTH",
"227 255 LINE SMOOTH",
"227 233 OFFCURVE",
"224 191 OFFCURVE",
"241 171 QCURVE SMOOTH",
"256 153 OFFCURVE",
"301 147 OFFCURVE",
"320 160 QCURVE SMOOTH",
"343 176 OFFCURVE",
"346 216 OFFCURVE",
"346 239 QCURVE",
"495 239 LINE",
"495 209 OFFCURVE",
"489 157 OFFCURVE",
"473 110 OFFCURVE",
"442 67 OFFCURVE",
"417 47 QCURVE SMOOTH",
"374 12 OFFCURVE",
"266 -6 OFFCURVE",
"214 14 QCURVE SMOOTH",
"162 34 OFFCURVE",
"92 118 OFFCURVE",
"82 172 QCURVE SMOOTH",
"77 199 OFFCURVE",
"78 253 OFFCURVE",
"78 280 QCURVE SMOOTH",
"78 387 LINE SMOOTH",
"78 417 OFFCURVE",
"108 417 QCURVE SMOOTH",
"138 417 OFFCURVE",
"138 447 QCURVE SMOOTH"
);
}
);
width = 524;
}
);
unicode = 20AC;
},
{
glyphname = trademark;
layers = (
{
layerId = "70DCFFAA-56DE-41D2-8F07-83204E6B1F0A";
paths = (
{
nodes = (
"105 600 LINE SMOOTH",
"105 614 OFFCURVE",
"91 614 QCURVE SMOOTH",
"21 614 LINE",
"21 684 LINE",
"78 684 LINE",
"91 684 LINE",
"134 684 LINE",
"147 684 LINE",
"204 684 LINE",
"204 614 LINE",
"147 614 LINE",
"147 558 LINE",
"147 488 LINE",
"147 362 LINE",
"78 362 LINE",
"78 543 LINE SMOOTH",
"78 558 OFFCURVE",
"91 558 QCURVE SMOOTH",
"105 558 OFFCURVE",
"105 572 QCURVE SMOOTH"
);
},
{
nodes = (
"423 459 LINE",
"423 362 LINE",
"352 362 LINE",
"352 497 LINE",
"352 563 LINE SMOOTH",
"352 571 OFFCURVE",
"354 588 OFFCURVE",
"351 596 QCURVE SMOOTH",
"348 606 OFFCURVE",
"336 614 OFFCURVE",
"325 614 QCURVE SMOOTH",
"314 614 OFFCURVE",
"302 606 OFFCURVE",
"298 596 QCURVE SMOOTH",
"295 588 OFFCURVE",
"297 571 OFFCURVE",
"297 563 QCURVE SMOOTH",
"297 497 LINE",
"297 362 LINE",
"228 362 LINE",
"228 545 LINE SMOOTH",
"228 558 OFFCURVE",
"241 558 QCURVE SMOOTH",
"255 558 OFFCURVE",
"255 572 QCURVE SMOOTH",
"255 600 LINE SMOOTH",
"255 614 OFFCURVE",
"241 614 QCURVE SMOOTH",
"230 614 OFFCURVE",
"235 624 QCURVE",
"244 647 OFFCURVE",
"280 675 OFFCURVE",
"324 686 OFFCURVE",
"369 677 OFFCURVE",
"387 661 QCURVE",
"405 675 OFFCURVE",
"448 686 OFFCURVE",
"490 678 OFFCURVE",
"526 653 OFFCURVE",
"537 632 QCURVE SMOOTH",
"543 621 OFFCURVE",
"548 601 OFFCURVE",
"549 579 OFFCURVE",
"548 558 OFFCURVE",
"548 547 QCURVE SMOOTH",
"548 474 LINE",
"548 459 LINE",
"548 362 LINE",
"478 362 LINE",
"478 497 LINE",
"478 563 LINE SMOOTH",
"478 571 OFFCURVE",
"481 588 OFFCURVE",
"477 596 QCURVE",
"474 606 OFFCURVE",
"462 614 OFFCURVE",
"451 614 QCURVE SMOOTH",
"440 614 OFFCURVE",
"428 606 OFFCURVE",
"424 596 QCURVE",
"422 588 OFFCURVE",
"423 571 OFFCURVE",
"423 563 QCURVE SMOOTH",
"423 474 LINE"
);
}
);
width = 580;
}
);
unicode = 2122;
},
{
glyphname = notequal;
layers = (
{
layerId = "70DCFFAA-56DE-41D2-8F07-83204E6B1F0A";
paths = (
{
nodes = (
"253 719 LINE",
"371 690 LINE",
"206 41 LINE",
"89 71 LINE"
);
},
{
nodes = (
"439 542 LINE",
"439 394 LINE",
"37 394 LINE",
"37 542 LINE"
);
},
{
nodes = (
"439 338 LINE",
"439 190 LINE",
"37 190 LINE",
"37 338 LINE"
);
}
);
width = 478;
}
);
unicode = 2260;
},
{
glyphname = greaterequal;
layers = (
{
layerId = "70DCFFAA-56DE-41D2-8F07-83204E6B1F0A";
paths = (
{
nodes = (
"378 315 LINE",
"200 154 LINE",
"43 154 LINE",
"300 385 LINE",
"46 613 LINE",
"203 613 LINE",
"378 455 LINE"
);
},
{
nodes = (
"387 112 LINE",
"387 0 LINE",
"34 0 LINE",
"34 112 LINE"
);
}
);
width = 401;
}
);
unicode = 2265;
},
{
glyphname = lessequal;
layers = (
{
layerId = "70DCFFAA-56DE-41D2-8F07-83204E6B1F0A";
paths = (
{
nodes = (
"387 112 LINE",
"387 0 LINE",
"34 0 LINE",
"34 112 LINE"
);
},
{
nodes = (
"43 455 LINE",
"218 613 LINE",
"375 613 LINE",
"121 385 LINE",
"378 154 LINE",
"221 154 LINE",
"43 315 LINE"
);
}
);
width = 401;
}
);
unicode = 2264;
},
{
glyphname = Lcaron;
layers = (
{
layerId = "70DCFFAA-56DE-41D2-8F07-83204E6B1F0A";
paths = (
{
nodes = (
"97 505 LINE SMOOTH",
"97 535 OFFCURVE",
"67 535 QCURVE SMOOTH",
"38 535 OFFCURVE",
"38 565 QCURVE SMOOTH",
"38 684 LINE",
"186 684 LINE",
"186 416 LINE",
"186 267 LINE",
"186 148 LINE",
"335 148 LINE",
"335 0 LINE",
"186 0 LINE",
"38 0 LINE",
"38 386 LINE SMOOTH",
"38 416 OFFCURVE",
"67 416 QCURVE SMOOTH",
"97 416 OFFCURVE",
"97 446 QCURVE SMOOTH"
);
},
{
nodes = (
"144 854 LINE",
"196 776 LINE",
"249 854 LINE",
"367 854 LINE",
"282 724 LINE",
"111 724 LINE",
"26 854 LINE"
);
}
);
width = 355;
}
);
unicode = 013D;
},
{
glyphname = uni00AD;
layers = (
{
layerId = "70DCFFAA-56DE-41D2-8F07-83204E6B1F0A";
paths = (
{
nodes = (
"386 432 LINE",
"386 284 LINE",
"34 284 LINE",
"34 432 LINE"
);
}
);
width = 411;
}
);
unicode = 00AD;
},
{
glyphname = endash;
layers = (
{
layerId = "70DCFFAA-56DE-41D2-8F07-83204E6B1F0A";
paths = (
{
nodes = (
"386 432 LINE",
"386 284 LINE",
"34 284 LINE",
"34 432 LINE"
);
}
);
width = 419;
}
);
unicode = 2013;
},
{
glyphname = emdash;
layers = (
{
layerId = "70DCFFAA-56DE-41D2-8F07-83204E6B1F0A";
paths = (
{
nodes = (
"477 432 LINE",
"477 284 LINE",
"34 284 LINE",
"34 432 LINE"
);
}
);
width = 505;
}
);
unicode = 2014;
},
{
glyphname = asterisk;
layers = (
{
layerId = "70DCFFAA-56DE-41D2-8F07-83204E6B1F0A";
paths = (
{
nodes = (
"451 545 LINE",
"318 472 LINE",
"445 387 LINE",
"360 288 LINE",
"291 365 LINE",
"304 258 LINE",
"174 258 LINE",
"191 383 LINE",
"95 292 LINE",
"17 397 LINE",
"149 471 LINE",
"23 555 LINE",
"108 654 LINE",
"176 578 LINE",
"163 684 LINE",
"294 684 LINE",
"277 560 LINE",
"373 650 LINE"
);
}
);
width = 476;
}
);
unicode = 002A;
},
{
glyphname = currency;
layers = (
{
layerId = "70DCFFAA-56DE-41D2-8F07-83204E6B1F0A";
paths = (
{
nodes = (
"15 574 LINE",
"93 615 LINE",
"152 538 LINE",
"187 554 OFFCURVE",
"229 554 QCURVE SMOOTH",
"268 554 OFFCURVE",
"306 538 QCURVE",
"366 615 LINE",
"444 574 LINE",
"404 447 LINE",
"426 407 OFFCURVE",
"426 357 QCURVE SMOOTH",
"426 305 OFFCURVE",
"402 263 QCURVE",
"444 130 LINE",
"366 89 LINE",
"300 173 LINE",
"268 160 OFFCURVE",
"229 160 QCURVE SMOOTH",
"190 160 OFFCURVE",
"158 173 QCURVE",
"93 89 LINE",
"15 130 LINE",
"56 262 LINE",
"33 306 OFFCURVE",
"33 357 QCURVE SMOOTH",
"33 406 OFFCURVE",
"54 447 QCURVE"
);
},
{
nodes = (
"208 460 OFFCURVE",
"171 444 OFFCURVE",
"142 416 OFFCURVE",
"126 378 OFFCURVE",
"126 357 QCURVE SMOOTH",
"126 336 OFFCURVE",
"142 298 OFFCURVE",
"171 270 OFFCURVE",
"208 254 OFFCURVE",
"229 254 QCURVE SMOOTH",
"250 254 OFFCURVE",
"288 270 OFFCURVE",
"316 298 OFFCURVE",
"332 336 OFFCURVE",
"332 357 QCURVE SMOOTH",
"332 378 OFFCURVE",
"316 416 OFFCURVE",
"288 444 OFFCURVE",
"250 460 OFFCURVE",
"229 460 QCURVE SMOOTH"
);
}
);
width = 460;
}
);
unicode = 00A4;
},
{
glyphname = gravecomb;
layers = (
{
layerId = "70DCFFAA-56DE-41D2-8F07-83204E6B1F0A";
paths = (
{
nodes = (
"216 724 LINE",
"147 854 LINE",
"258 854 LINE",
"317 724 LINE"
);
}
);
width = 453;
}
);
unicode = 0300;
},
{
glyphname = acutecomb;
layers = (
{
layerId = "70DCFFAA-56DE-41D2-8F07-83204E6B1F0A";
paths = (
{
nodes = (
"147 726 LINE",
"206 856 LINE",
"317 856 LINE",
"248 726 LINE"
);
}
);
width = 453;
}
);
unicode = 0301;
},
{
glyphname = uni0302;
layers = (
{
layerId = "70DCFFAA-56DE-41D2-8F07-83204E6B1F0A";
paths = (
{
nodes = (
"95 716 LINE",
"154 851 LINE",
"268 851 LINE",
"209 716 LINE"
);
},
{
nodes = (
"358 716 LINE",
"299 851 LINE",
"414 851 LINE",
"472 716 LINE"
);
}
);
width = 683;
}
);
unicode = 0302;
},
{
glyphname = tildecomb;
layers = (
{
layerId = "70DCFFAA-56DE-41D2-8F07-83204E6B1F0A";
paths = (
{
nodes = (
"21 757 LINE",
"30 777 OFFCURVE",
"54 817 OFFCURVE",
"84 848 OFFCURVE",
"122 868 OFFCURVE",
"145 868 QCURVE SMOOTH",
"167 868 OFFCURVE",
"210 846 OFFCURVE",
"227 834 QCURVE SMOOTH",
"245 822 OFFCURVE",
"258 819 OFFCURVE",
"261 819 QCURVE SMOOTH",
"267 819 OFFCURVE",
"275 824 OFFCURVE",
"284 835 OFFCURVE",
"295 854 OFFCURVE",
"303 868 QCURVE",
"387 835 LINE",
"377 815 OFFCURVE",
"354 776 OFFCURVE",
"324 744 OFFCURVE",
"286 724 OFFCURVE",
"262 724 QCURVE SMOOTH",
"240 724 OFFCURVE",
"196 747 OFFCURVE",
"179 758 QCURVE SMOOTH",
"168 765 OFFCURVE",
"152 776 OFFCURVE",
"139 776 OFFCURVE",
"127 764 OFFCURVE",
"120 749 QCURVE SMOOTH",
"118 744 OFFCURVE",
"109 725 OFFCURVE",
"107 721 QCURVE"
);
}
);
width = 419;
}
);
unicode = 0303;
},
{
glyphname = uni0304;
layers = (
{
layerId = "70DCFFAA-56DE-41D2-8F07-83204E6B1F0A";
paths = (
{
nodes = (
"130 732 LINE",
"130 853 LINE",
"424 853 LINE",
"424 732 LINE"
);
}
);
width = 572;
}
);
unicode = 0304;
},
{
glyphname = uni0306;
layers = (
{
layerId = "70DCFFAA-56DE-41D2-8F07-83204E6B1F0A";
paths = (
{
nodes = (
"110 863 LINE",
"209 863 LINE",
"209 853 LINE SMOOTH",
"209 841 OFFCURVE",
"219 826 OFFCURVE",
"232 817 OFFCURVE",
"244 814 OFFCURVE",
"247 814 QCURVE SMOOTH",
"253 814 OFFCURVE",
"261 817 QCURVE SMOOTH",
"280 823 OFFCURVE",
"289 845 OFFCURVE",
"289 859 QCURVE",
"288 863 LINE",
"389 863 LINE",
"388 853 LINE",
"388 824 OFFCURVE",
"373 794 QCURVE SMOOTH",
"357 763 OFFCURVE",
"314 730 OFFCURVE",
"279 722 QCURVE",
"262 719 OFFCURVE",
"248 719 QCURVE SMOOTH",
"232 719 OFFCURVE",
"186 730 OFFCURVE",
"163 748 QCURVE SMOOTH",
"139 766 OFFCURVE",
"110 820 OFFCURVE",
"110 853 QCURVE SMOOTH"
);
}
);
width = 482;
}
);
unicode = 0306;
},
{
glyphname = uni0307;
layers = (
{
layerId = "70DCFFAA-56DE-41D2-8F07-83204E6B1F0A";
paths = (
{
nodes = (
"83 732 OFFCURVE",
"40 775 OFFCURVE",
"40 804 QCURVE SMOOTH",
"40 833 OFFCURVE",
"83 876 OFFCURVE",
"112 876 QCURVE SMOOTH",
"141 876 OFFCURVE",
"184 833 OFFCURVE",
"184 804 QCURVE SMOOTH",
"184 775 OFFCURVE",
"141 732 OFFCURVE",
"112 732 QCURVE SMOOTH"
);
}
);
width = 216;
}
);
unicode = 0307;
},
{
glyphname = uni0308;
layers = (
{
layerId = "70DCFFAA-56DE-41D2-8F07-83204E6B1F0A";
paths = (
{
nodes = (
"160 737 OFFCURVE",
"122 775 OFFCURVE",
"122 801 QCURVE SMOOTH",
"122 827 OFFCURVE",
"160 865 OFFCURVE",
"186 865 QCURVE SMOOTH",
"212 865 OFFCURVE",
"250 827 OFFCURVE",
"250 801 QCURVE SMOOTH",
"250 775 OFFCURVE",
"212 737 OFFCURVE",
"186 737 QCURVE SMOOTH"
);
},
{
nodes = (
"367 736 OFFCURVE",
"329 774 OFFCURVE",
"329 800 QCURVE SMOOTH",
"329 826 OFFCURVE",
"367 864 OFFCURVE",
"393 864 QCURVE SMOOTH",
"419 864 OFFCURVE",
"457 826 OFFCURVE",
"457 800 QCURVE SMOOTH",
"457 774 OFFCURVE",
"419 736 OFFCURVE",
"393 736 QCURVE SMOOTH"
);
}
);
width = 579;
}
);
unicode = 0308;
},
{
glyphname = uni030A;
layers = (
{
layerId = "70DCFFAA-56DE-41D2-8F07-83204E6B1F0A";
paths = (
{
nodes = (
"40 863 OFFCURVE",
"58 906 OFFCURVE",
"90 937 OFFCURVE",
"133 956 OFFCURVE",
"158 956 QCURVE SMOOTH",
"183 956 OFFCURVE",
"226 937 OFFCURVE",
"258 906 OFFCURVE",
"277 863 OFFCURVE",
"277 839 QCURVE SMOOTH",
"277 815 OFFCURVE",
"258 772 OFFCURVE",
"226 741 OFFCURVE",
"183 722 OFFCURVE",
"158 722 QCURVE SMOOTH",
"133 722 OFFCURVE",
"90 741 OFFCURVE",
"58 772 OFFCURVE",
"40 815 OFFCURVE",
"40 839 QCURVE SMOOTH"
);
},
{
nodes = (
"122 824 OFFCURVE",
"144 803 OFFCURVE",
"158 803 QCURVE SMOOTH",
"174 803 OFFCURVE",
"195 824 OFFCURVE",
"195 839 QCURVE SMOOTH",
"195 854 OFFCURVE",
"174 875 OFFCURVE",
"158 875 QCURVE SMOOTH",
"144 875 OFFCURVE",
"122 854 OFFCURVE",
"122 839 QCURVE SMOOTH"
);
}
);
width = 313;
}
);
unicode = 030A;
},
{
glyphname = uni030B;
layers = (
{
layerId = "70DCFFAA-56DE-41D2-8F07-83204E6B1F0A";
paths = (
{
nodes = (
"74 734 LINE",
"133 864 LINE",
"257 864 LINE",
"175 734 LINE"
);
},
{
nodes = (
"289 734 LINE",
"348 864 LINE",
"475 864 LINE",
"390 734 LINE"
);
}
);
width = 527;
}
);
unicode = 030B;
},
{
glyphname = uni030C;
layers = (
{
layerId = "70DCFFAA-56DE-41D2-8F07-83204E6B1F0A";
paths = (
{
nodes = (
"203 724 LINE",
"118 854 LINE",
"236 854 LINE",
"288 776 LINE",
"341 854 LINE",
"459 854 LINE",
"374 724 LINE"
);
}
);
width = 564;
}
);
unicode = 030C;
},
{
glyphname = uni0326;
layers = (
{
layerId = "70DCFFAA-56DE-41D2-8F07-83204E6B1F0A";
paths = (
{
nodes = (
"153 -243 LINE",
"155 -160 LINE",
"119 -150 LINE",
"119 -24 LINE",
"268 -24 LINE",
"235 -243 LINE"
);
}
);
width = 387;
}
);
unicode = 0326;
},
{
glyphname = uni0327;
layers = (
{
layerId = "70DCFFAA-56DE-41D2-8F07-83204E6B1F0A";
paths = (
{
nodes = (
"181 -140 LINE SMOOTH",
"181 -151 OFFCURVE",
"197 -166 OFFCURVE",
"207 -166 QCURVE SMOOTH",
"217 -166 OFFCURVE",
"234 -151 OFFCURVE",
"234 -140 QCURVE SMOOTH",
"234 -113 LINE SMOOTH",
"234 -102 OFFCURVE",
"217 -86 OFFCURVE",
"207 -86 QCURVE SMOOTH",
"118 -86 LINE",
"118 33 LINE",
"181 33 LINE",
"181 -18 LINE",
"207 -18 LINE SMOOTH",
"225 -18 OFFCURVE",
"258 -33 OFFCURVE",
"282 -58 OFFCURVE",
"297 -93 OFFCURVE",
"297 -113 QCURVE SMOOTH",
"297 -140 LINE SMOOTH",
"297 -160 OFFCURVE",
"282 -194 OFFCURVE",
"258 -219 OFFCURVE",
"225 -234 OFFCURVE",
"207 -234 QCURVE SMOOTH",
"189 -234 OFFCURVE",
"157 -219 OFFCURVE",
"133 -194 OFFCURVE",
"118 -160 OFFCURVE",
"118 -140 QCURVE SMOOTH",
"118 -126 LINE",
"181 -126 LINE"
);
}
);
width = 380;
}
);
unicode = 0327;
},
{
glyphname = Germandbls;
layers = (
{
layerId = "70DCFFAA-56DE-41D2-8F07-83204E6B1F0A";
paths = (
{
nodes = (
"37 0 LINE",
"37 271 LINE",
"37 396 LINE",
"36 398 OFFCURVE",
"36 402 QCURVE SMOOTH",
"36 416 OFFCURVE",
"53 416 QCURVE SMOOTH",
"83 416 OFFCURVE",
"83 446 QCURVE SMOOTH",
"83 506 LINE SMOOTH",
"83 535 OFFCURVE",
"53 535 QCURVE SMOOTH",
"37 535 OFFCURVE",
"37 546 QCURVE",
"37 548 OFFCURVE",
"39 556 QCURVE",
"61 608 OFFCURVE",
"138 669 OFFCURVE",
"172 677 QCURVE SMOOTH",
"204 684 OFFCURVE",
"230 684 QCURVE SMOOTH",
"251 684 OFFCURVE",
"318 671 OFFCURVE",
"356 645 QCURVE SMOOTH",
"394 618 OFFCURVE",
"440 533 OFFCURVE",
"440 476 QCURVE SMOOTH",
"440 436 OFFCURVE",
"417 373 OFFCURVE",
"391 342 QCURVE",
"417 311 OFFCURVE",
"440 248 OFFCURVE",
"440 208 QCURVE SMOOTH",
"440 165 OFFCURVE",
"407 89 OFFCURVE",
"350 33 OFFCURVE",
"274 0 OFFCURVE",
"232 0 QCURVE",
"232 149 LINE",
"256 149 OFFCURVE",
"291 183 OFFCURVE",
"291 208 QCURVE SMOOTH",
"291 233 OFFCURVE",
"273 250 QCURVE SMOOTH",
"257 266 OFFCURVE",
"232 268 QCURVE",
"185 268 LINE",
"185 0 LINE"
);
},
{
nodes = (
"256 416 OFFCURVE",
"291 451 OFFCURVE",
"291 476 QCURVE SMOOTH",
"291 501 OFFCURVE",
"256 535 OFFCURVE",
"231 535 QCURVE SMOOTH",
"207 535 OFFCURVE",
"172 501 OFFCURVE",
"172 476 QCURVE SMOOTH",
"172 451 OFFCURVE",
"207 416 OFFCURVE",
"231 416 QCURVE SMOOTH"
);
}
